STARTFONT 2.3
FONT -FontForge-Roboto Condensed-Book-R-Condensed---9-90-72-72-P-44-ISO10646-1
SIZE 9 72 72  4
FONTBOUNDINGBOX 16 15 -7 -3
COMMENT "Generated by fontforge, http://fontforge.sourceforge.net"
COMMENT "Copyright 2011 Google Inc. All Rights Reserved."
STARTPROPERTIES 42
FOUNDRY "FontForge"
FAMILY_NAME "Roboto Condensed"
WEIGHT_NAME "Book"
SLANT "R"
SETWIDTH_NAME "Condensed"
ADD_STYLE_NAME ""
PIXEL_SIZE 9
POINT_SIZE 90
RESOLUTION_X 72
RESOLUTION_Y 72
SPACING "P"
AVERAGE_WIDTH 44
CHARSET_REGISTRY "ISO10646"
CHARSET_ENCODING "1"
FONTNAME_REGISTRY ""
CHARSET_COLLECTIONS "ISO8859-2 ISO8859-5 ISO8859-7 ISO8859-9 ISO8859-4 ISO10646-1"
BITS_PER_PIXEL 4
FONT_NAME "RobotoCondensed-Regular"
FACE_NAME "Roboto Condensed"
COPYRIGHT "Copyright 2011 Google Inc. All Rights Reserved."
FONT_VERSION "2.137; 2017"
FONT_ASCENT 7
FONT_DESCENT 2
UNDERLINE_POSITION -1
UNDERLINE_THICKNESS 1
X_HEIGHT 4
CAP_HEIGHT 6
DEFAULT_CHAR 1
RAW_ASCENT 750
RAW_DESCENT 250
NORM_SPACE 2
RELATIVE_WEIGHT 40
RELATIVE_SETWIDTH 50
SUPERSCRIPT_X 0
SUPERSCRIPT_Y 4
SUPERSCRIPT_SIZE 5
SUBSCRIPT_X 0
SUBSCRIPT_Y 1
SUBSCRIPT_SIZE 5
FIGURE_WIDTH 4
AVG_LOWERCASE_WIDTH 42
AVG_UPPERCASE_WIDTH 51
ENDPROPERTIES
CHARS 1296
STARTCHAR uni0000
ENCODING 0
SWIDTH 0 0
DWIDTH 0 0
BBX 1 1 0 0
BITMAP
00
ENDCHAR
STARTCHAR uni0002
ENCODING 2
SWIDTH 0 0
DWIDTH 0 0
BBX 1 1 0 0
BITMAP
00
ENDCHAR
STARTCHAR uni000D
ENCODING 13
SWIDTH 229 0
DWIDTH 2 0
BBX 1 1 0 0
BITMAP
00
ENDCHAR
STARTCHAR space
ENCODING 32
SWIDTH 229 0
DWIDTH 2 0
BBX 1 1 0 0
BITMAP
00
ENDCHAR
STARTCHAR exclam
ENCODING 33
SWIDTH 245 0
DWIDTH 2 0
BBX 2 7 0 0
BITMAP
48
47
47
47
47
00
37
ENDCHAR
STARTCHAR quotedbl
ENCODING 34
SWIDTH 319 0
DWIDTH 3 0
BBX 3 2 0 5
BITMAP
6660
6550
ENDCHAR
STARTCHAR numbersign
ENCODING 35
SWIDTH 547 0
DWIDTH 5 0
BBX 5 7 0 0
BITMAP
009630
018810
2FFFA0
054900
6FFF60
092700
095400
ENDCHAR
STARTCHAR dollar
ENCODING 36
SWIDTH 493 0
DWIDTH 4 0
BBX 4 9 0 -1
BITMAP
0090
0BF6
4A2C
3C21
07E5
002C
672C
2DE6
0170
ENDCHAR
STARTCHAR percent
ENCODING 37
SWIDTH 632 0
DWIDTH 6 0
BBX 6 7 0 0
BITMAP
4E6000
839530
4E6800
006200
018AD1
061A64
000AD1
ENDCHAR
STARTCHAR ampersand
ENCODING 38
SWIDTH 543 0
DWIDTH 5 0
BBX 5 7 0 0
BITMAP
0AE400
1B4800
0CA300
0BA120
66A960
772F20
2CEA80
ENDCHAR
STARTCHAR quotesingle
ENCODING 39
SWIDTH 174 0
DWIDTH 2 0
BBX 2 2 0 5
BITMAP
81
81
ENDCHAR
STARTCHAR parenleft
ENCODING 40
SWIDTH 313 0
DWIDTH 3 0
BBX 3 9 0 -2
BITMAP
0250
0A00
2900
5600
6500
5600
2900
0A00
0250
ENDCHAR
STARTCHAR parenright
ENCODING 41
SWIDTH 318 0
DWIDTH 3 0
BBX 3 9 0 -2
BITMAP
7100
2800
0B00
0920
0830
0920
0A00
2800
7100
ENDCHAR
STARTCHAR asterisk
ENCODING 42
SWIDTH 430 0
DWIDTH 4 0
BBX 4 4 0 3
BITMAP
0640
8986
2CB2
3791
ENDCHAR
STARTCHAR plus
ENCODING 43
SWIDTH 496 0
DWIDTH 4 0
BBX 5 5 0 0
BITMAP
028000
029000
9FFF10
029000
029000
ENDCHAR
STARTCHAR comma
ENCODING 44
SWIDTH 196 0
DWIDTH 2 0
BBX 2 2 0 -1
BITMAP
75
81
ENDCHAR
STARTCHAR hyphen
ENCODING 45
SWIDTH 248 0
DWIDTH 2 0
BBX 2 1 0 2
BITMAP
CF
ENDCHAR
STARTCHAR period
ENCODING 46
SWIDTH 263 0
DWIDTH 2 0
BBX 2 1 0 0
BITMAP
37
ENDCHAR
STARTCHAR slash
ENCODING 47
SWIDTH 370 0
DWIDTH 3 0
BBX 3 8 0 -1
BITMAP
00A0
0190
0550
0910
0A00
2700
7300
A000
ENDCHAR
STARTCHAR zero
ENCODING 48
SWIDTH 493 0
DWIDTH 4 0
BBX 4 7 0 0
BITMAP
1BE4
582B
750C
840C
750C
592B
0BE4
ENDCHAR
STARTCHAR one
ENCODING 49
SWIDTH 493 0
DWIDTH 4 0
BBX 3 7 0 0
BITMAP
06B0
48C0
00C0
00C0
00C0
00C0
00C0
ENDCHAR
STARTCHAR two
ENCODING 50
SWIDTH 493 0
DWIDTH 4 0
BBX 5 7 0 0
BITMAP
2CE500
762C00
001A00
009300
058000
2B0000
7FFF10
ENDCHAR
STARTCHAR three
ENCODING 51
SWIDTH 493 0
DWIDTH 4 0
BBX 4 7 0 0
BITMAP
1BE4
673B
1039
08F3
102B
772B
1CE4
ENDCHAR
STARTCHAR four
ENCODING 52
SWIDTH 493 0
DWIDTH 4 0
BBX 5 7 0 0
BITMAP
009700
01D700
077700
0A5700
555700
AFFF30
005700
ENDCHAR
STARTCHAR five
ENCODING 53
SWIDTH 493 0
DWIDTH 4 0
BBX 4 7 0 0
BITMAP
0EFD
1B00
2EE6
012D
000B
371C
0BE6
ENDCHAR
STARTCHAR six
ENCODING 54
SWIDTH 493 0
DWIDTH 4 0
BBX 4 7 0 0
BITMAP
05D3
1C20
5CE6
692D
660C
4A2C
0AE5
ENDCHAR
STARTCHAR seven
ENCODING 55
SWIDTH 493 0
DWIDTH 4 0
BBX 5 7 0 0
BITMAP
9FFF10
000A00
005600
00A100
01A000
065000
0B1000
ENDCHAR
STARTCHAR eight
ENCODING 56
SWIDTH 493 0
DWIDTH 4 0
BBX 4 7 0 0
BITMAP
0BE4
593B
492A
0CF4
582B
682C
1CE5
ENDCHAR
STARTCHAR nine
ENCODING 57
SWIDTH 493 0
DWIDTH 4 0
BBX 4 7 0 0
BITMAP
1CD3
674A
840C
683C
1CBB
0078
0BA1
ENDCHAR
STARTCHAR colon
ENCODING 58
SWIDTH 233 0
DWIDTH 2 0
BBX 2 5 0 0
BITMAP
47
00
00
00
47
ENDCHAR
STARTCHAR semicolon
ENCODING 59
SWIDTH 202 0
DWIDTH 2 0
BBX 2 6 0 -1
BITMAP
56
00
00
00
66
82
ENDCHAR
STARTCHAR less
ENCODING 60
SWIDTH 445 0
DWIDTH 4 0
BBX 4 4 0 1
BITMAP
0185
5B50
5B40
0185
ENDCHAR
STARTCHAR equal
ENCODING 61
SWIDTH 479 0
DWIDTH 4 0
BBX 4 3 0 1
BITMAP
5FFB
0000
5FFB
ENDCHAR
STARTCHAR greater
ENCODING 62
SWIDTH 459 0
DWIDTH 4 0
BBX 4 4 0 1
BITMAP
5810
04A6
04B6
5810
ENDCHAR
STARTCHAR question
ENCODING 63
SWIDTH 421 0
DWIDTH 4 0
BBX 4 7 0 0
BITMAP
3EC1
6486
0084
03A0
0830
0000
0820
ENDCHAR
STARTCHAR at
ENCODING 64
SWIDTH 769 0
DWIDTH 7 0
BBX 7 8 0 -2
BITMAP
01BED400
0B513B10
373EA350
63A29170
72B2A560
559CCC10
1C312000
04DE7000
ENDCHAR
STARTCHAR A
ENCODING 65
SWIDTH 576 0
DWIDTH 5 0
BBX 5 7 0 0
BITMAP
00D100
03C600
073A00
0A0A00
1FFF40
660380
A200C0
ENDCHAR
STARTCHAR B
ENCODING 66
SWIDTH 545 0
DWIDTH 5 0
BBX 5 7 0 0
BITMAP
5FFA00
580A30
580B20
5FFB00
580940
580950
5FFB00
ENDCHAR
STARTCHAR C
ENCODING 67
SWIDTH 566 0
DWIDTH 5 0
BBX 5 7 0 0
BITMAP
08EB10
3B1670
660140
750000
660140
3B1670
08EB10
ENDCHAR
STARTCHAR D
ENCODING 68
SWIDTH 570 0
DWIDTH 5 0
BBX 5 7 0 0
BITMAP
5FE900
581A50
580480
580390
580480
581A50
5FE800
ENDCHAR
STARTCHAR E
ENCODING 69
SWIDTH 496 0
DWIDTH 4 0
BBX 5 7 0 0
BITMAP
5FFF10
580000
580000
5FFB00
580000
580000
5FFF20
ENDCHAR
STARTCHAR F
ENCODING 70
SWIDTH 480 0
DWIDTH 4 0
BBX 4 7 0 0
BITMAP
5FFF
5800
5800
5FFA
5800
5800
5800
ENDCHAR
STARTCHAR G
ENCODING 71
SWIDTH 590 0
DWIDTH 5 0
BBX 5 7 0 0
BITMAP
09EB10
4B1680
660130
750000
664FA0
3C13A0
08ED50
ENDCHAR
STARTCHAR H
ENCODING 72
SWIDTH 620 0
DWIDTH 6 0
BBX 5 7 0 0
BITMAP
5800C0
5800C0
5800C0
5FFFD0
5800C0
5800C0
5800C0
ENDCHAR
STARTCHAR I
ENCODING 73
SWIDTH 250 0
DWIDTH 2 0
BBX 2 7 0 0
BITMAP
48
48
48
48
48
48
48
ENDCHAR
STARTCHAR J
ENCODING 74
SWIDTH 483 0
DWIDTH 4 0
BBX 4 7 0 0
BITMAP
002B
002B
002B
002B
002B
9459
4ED3
ENDCHAR
STARTCHAR K
ENCODING 75
SWIDTH 544 0
DWIDTH 5 0
BBX 5 7 0 0
BITMAP
580960
584A00
58C100
5EC000
5A7700
581C10
580690
ENDCHAR
STARTCHAR L
ENCODING 76
SWIDTH 475 0
DWIDTH 4 0
BBX 4 7 0 0
BITMAP
5800
5800
5800
5800
5800
5800
5FFF
ENDCHAR
STARTCHAR M
ENCODING 77
SWIDTH 755 0
DWIDTH 7 0
BBX 7 7 0 0
BITMAP
5D001F20
5F306F20
5B70AB20
58B0BA20
57A57B20
586D2B20
581D0B20
ENDCHAR
STARTCHAR N
ENCODING 78
SWIDTH 619 0
DWIDTH 6 0
BBX 5 7 0 0
BITMAP
5B00C0
5E30C0
59A0C0
5892C0
5829C0
5809D0
5803D0
ENDCHAR
STARTCHAR O
ENCODING 79
SWIDTH 600 0
DWIDTH 5 0
BBX 5 7 0 0
BITMAP
08EC20
3B1690
6600C0
7500C0
6600C0
3B1690
08EC20
ENDCHAR
STARTCHAR P
ENCODING 80
SWIDTH 554 0
DWIDTH 5 0
BBX 5 7 0 0
BITMAP
5FFC20
580680
580680
5FFC20
580000
580000
580000
ENDCHAR
STARTCHAR Q
ENCODING 81
SWIDTH 600 0
DWIDTH 5 0
BBX 5 8 0 -1
BITMAP
08EC20
4B1690
7500C0
7500C0
7500C0
4B1690
08EF30
000490
ENDCHAR
STARTCHAR R
ENCODING 82
SWIDTH 530 0
DWIDTH 5 0
BBX 5 7 0 0
BITMAP
5FFB00
580950
580950
5FFB00
583A00
580C10
580670
ENDCHAR
STARTCHAR S
ENCODING 83
SWIDTH 518 0
DWIDTH 5 0
BBX 5 7 0 0
BITMAP
1BE600
681B20
490210
07C600
210B20
771A30
0AEA00
ENDCHAR
STARTCHAR T
ENCODING 84
SWIDTH 520 0
DWIDTH 5 0
BBX 5 7 0 0
BITMAP
BFFF70
01B000
01B000
01B000
01B000
01B000
01B000
ENDCHAR
STARTCHAR U
ENCODING 85
SWIDTH 561 0
DWIDTH 5 0
BBX 5 7 0 0
BITMAP
660480
660480
660480
660480
660570
591860
0BEB10
ENDCHAR
STARTCHAR V
ENCODING 86
SWIDTH 560 0
DWIDTH 5 0
BBX 5 7 0 0
BITMAP
A302B0
670660
2B0A20
0C0C00
086900
04D400
00E100
ENDCHAR
STARTCHAR W
ENCODING 87
SWIDTH 761 0
DWIDTH 7 0
BBX 7 7 0 0
BITMAP
930D0480
653E2750
48695920
1A938B00
0BA0AB00
0A90A900
08607700
ENDCHAR
STARTCHAR X
ENCODING 88
SWIDTH 550 0
DWIDTH 5 0
BBX 5 7 0 0
BITMAP
680860
1C1C00
07C700
02F100
07B700
1C1D10
770860
ENDCHAR
STARTCHAR Y
ENCODING 89
SWIDTH 524 0
DWIDTH 5 0
BBX 5 7 0 0
BITMAP
A30860
490C00
0C4800
06D200
01C000
01B000
01B000
ENDCHAR
STARTCHAR Z
ENCODING 90
SWIDTH 522 0
DWIDTH 5 0
BBX 5 7 0 0
BITMAP
8FFF30
001B00
008400
02A000
0A2000
490000
9FFF50
ENDCHAR
STARTCHAR bracketleft
ENCODING 91
SWIDTH 250 0
DWIDTH 2 0
BBX 3 8 0 -1
BITMAP
6F10
6600
6600
6600
6600
6600
6600
6F10
ENDCHAR
STARTCHAR backslash
ENCODING 92
SWIDTH 369 0
DWIDTH 3 0
BBX 4 8 0 -1
BITMAP
A100
5600
1A00
0B00
0830
0480
00B0
00A1
ENDCHAR
STARTCHAR bracketright
ENCODING 93
SWIDTH 250 0
DWIDTH 2 0
BBX 2 8 0 -1
BITMAP
D9
39
39
39
39
39
39
D9
ENDCHAR
STARTCHAR asciicircum
ENCODING 94
SWIDTH 371 0
DWIDTH 3 0
BBX 3 3 0 4
BITMAP
0C20
2B70
83A0
ENDCHAR
STARTCHAR underscore
ENCODING 95
SWIDTH 404 0
DWIDTH 4 0
BBX 4 1 0 -1
BITMAP
DFF8
ENDCHAR
STARTCHAR grave
ENCODING 96
SWIDTH 309 0
DWIDTH 3 0
BBX 2 2 0 6
BITMAP
78
0A
ENDCHAR
STARTCHAR a
ENCODING 97
SWIDTH 479 0
DWIDTH 4 0
BBX 4 5 0 0
BITMAP
1CE5
243A
2CFA
773A
3EBC
ENDCHAR
STARTCHAR b
ENCODING 98
SWIDTH 493 0
DWIDTH 4 0
BBX 4 7 0 0
BITMAP
6500
6500
6CE7
681D
650B
681D
6CE7
ENDCHAR
STARTCHAR c
ENCODING 99
SWIDTH 461 0
DWIDTH 4 0
BBX 4 5 0 0
BITMAP
2CE5
7629
9300
7617
2CE5
ENDCHAR
STARTCHAR d
ENCODING 100
SWIDTH 496 0
DWIDTH 4 0
BBX 4 7 0 0
BITMAP
000C
000C
2DDC
762C
930C
762C
2DCC
ENDCHAR
STARTCHAR e
ENCODING 101
SWIDTH 468 0
DWIDTH 4 0
BBX 4 5 0 0
BITMAP
1CE4
762B
8FFD
7601
2CE7
ENDCHAR
STARTCHAR f
ENCODING 102
SWIDTH 316 0
DWIDTH 3 0
BBX 3 7 0 0
BITMAP
0AB0
1C00
BF80
1B00
1B00
1B00
1B00
ENDCHAR
STARTCHAR g
ENCODING 103
SWIDTH 492 0
DWIDTH 4 0
BBX 4 7 0 -2
BITMAP
2DDC
762C
930C
762C
2DDC
023C
2CE5
ENDCHAR
STARTCHAR h
ENCODING 104
SWIDTH 482 0
DWIDTH 4 0
BBX 4 7 0 0
BITMAP
6500
6500
6CE6
682B
650C
650C
650C
ENDCHAR
STARTCHAR i
ENCODING 105
SWIDTH 229 0
DWIDTH 2 0
BBX 2 7 0 0
BITMAP
45
00
56
56
56
56
56
ENDCHAR
STARTCHAR j
ENCODING 106
SWIDTH 223 0
DWIDTH 2 0
BBX 3 9 -1 -2
BITMAP
0540
0000
0660
0660
0660
0660
0660
0750
1E20
ENDCHAR
STARTCHAR k
ENCODING 107
SWIDTH 450 0
DWIDTH 4 0
BBX 4 7 0 0
BITMAP
6500
6500
6576
68A0
6E80
66B2
653A
ENDCHAR
STARTCHAR l
ENCODING 108
SWIDTH 229 0
DWIDTH 2 0
BBX 2 7 0 0
BITMAP
56
56
56
56
56
56
56
ENDCHAR
STARTCHAR m
ENCODING 109
SWIDTH 752 0
DWIDTH 7 0
BBX 7 5 0 0
BITMAP
6CE9EB00
683E1B20
650C0930
650C0930
650C0930
ENDCHAR
STARTCHAR n
ENCODING 110
SWIDTH 483 0
DWIDTH 4 0
BBX 4 5 0 0
BITMAP
6CE6
682B
650C
650C
650C
ENDCHAR
STARTCHAR o
ENCODING 111
SWIDTH 501 0
DWIDTH 5 0
BBX 5 5 0 0
BITMAP
1CE600
771D00
930A10
771C00
1CE600
ENDCHAR
STARTCHAR p
ENCODING 112
SWIDTH 493 0
DWIDTH 4 0
BBX 4 7 0 -2
BITMAP
6CE7
671D
650B
671D
6CE7
6500
6500
ENDCHAR
STARTCHAR q
ENCODING 113
SWIDTH 500 0
DWIDTH 5 0
BBX 4 7 0 -2
BITMAP
2DDC
762C
930C
762C
2DDC
000C
000C
ENDCHAR
STARTCHAR r
ENCODING 114
SWIDTH 304 0
DWIDTH 3 0
BBX 3 5 0 0
BITMAP
6C80
6800
6500
6500
6500
ENDCHAR
STARTCHAR s
ENCODING 115
SWIDTH 455 0
DWIDTH 4 0
BBX 4 5 0 0
BITMAP
2DE4
5A44
09E4
4449
3DE4
ENDCHAR
STARTCHAR t
ENCODING 116
SWIDTH 295 0
DWIDTH 3 0
BBX 3 6 0 0
BITMAP
3900
EF50
3900
3900
3A00
1D40
ENDCHAR
STARTCHAR u
ENCODING 117
SWIDTH 483 0
DWIDTH 4 0
BBX 4 5 0 0
BITMAP
750C
750C
750C
673C
2DCB
ENDCHAR
STARTCHAR v
ENCODING 118
SWIDTH 427 0
DWIDTH 4 0
BBX 4 5 0 0
BITMAP
A247
6583
19A0
0A90
0850
ENDCHAR
STARTCHAR w
ENCODING 119
SWIDTH 649 0
DWIDTH 6 0
BBX 6 5 0 0
BITMAP
A18547
75A974
389AA1
0E68B0
0B2590
ENDCHAR
STARTCHAR x
ENCODING 120
SWIDTH 438 0
DWIDTH 4 0
BBX 4 5 0 0
BITMAP
7676
1BB0
0980
1BB0
8567
ENDCHAR
STARTCHAR y
ENCODING 121
SWIDTH 416 0
DWIDTH 4 0
BBX 4 7 0 -2
BITMAP
B267
6592
29B0
0B90
0850
0B10
9900
ENDCHAR
STARTCHAR z
ENCODING 122
SWIDTH 438 0
DWIDTH 4 0
BBX 4 5 0 0
BITMAP
8FF7
00A2
0750
3900
9FF9
ENDCHAR
STARTCHAR braceleft
ENCODING 123
SWIDTH 306 0
DWIDTH 3 0
BBX 3 9 0 -2
BITMAP
0560
0C00
0C00
1B00
A600
1B00
0C00
0C00
0560
ENDCHAR
STARTCHAR bar
ENCODING 124
SWIDTH 243 0
DWIDTH 2 0
BBX 2 8 0 -1
BITMAP
46
46
46
46
46
46
46
46
ENDCHAR
STARTCHAR braceright
ENCODING 125
SWIDTH 306 0
DWIDTH 3 0
BBX 3 9 0 -2
BITMAP
8200
3900
2A00
1C10
0A60
1C00
2A00
3900
8200
ENDCHAR
STARTCHAR asciitilde
ENCODING 126
SWIDTH 589 0
DWIDTH 5 0
BBX 5 2 0 2
BITMAP
1DA290
657E50
ENDCHAR
STARTCHAR uni00A0
ENCODING 160
SWIDTH 229 0
DWIDTH 2 0
BBX 1 1 0 0
BITMAP
00
ENDCHAR
STARTCHAR exclamdown
ENCODING 161
SWIDTH 231 0
DWIDTH 2 0
BBX 2 7 0 -2
BITMAP
46
00
56
56
57
57
57
ENDCHAR
STARTCHAR cent
ENCODING 162
SWIDTH 479 0
DWIDTH 4 0
BBX 4 7 0 -1
BITMAP
0390
1CF6
6828
8400
6716
1CF6
0390
ENDCHAR
STARTCHAR sterling
ENCODING 163
SWIDTH 510 0
DWIDTH 5 0
BBX 5 7 0 0
BITMAP
07EA00
0D1A20
1B0000
9FE000
0C0000
1B0000
8FFF40
ENDCHAR
STARTCHAR currency
ENCODING 164
SWIDTH 712 0
DWIDTH 6 0
BBX 6 6 0 0
BITMAP
5ADE9B
1E31A8
57001B
57001C
1E3198
49DE9A
ENDCHAR
STARTCHAR yen
ENCODING 165
SWIDTH 463 0
DWIDTH 4 0
BBX 4 7 0 0
BITMAP
B31D
6868
1DB3
0BD0
7FF9
7FF9
0570
ENDCHAR
STARTCHAR brokenbar
ENCODING 166
SWIDTH 239 0
DWIDTH 2 0
BBX 2 8 0 -1
BITMAP
57
57
57
57
00
57
57
57
ENDCHAR
STARTCHAR section
ENCODING 167
SWIDTH 537 0
DWIDTH 5 0
BBX 5 9 0 -2
BITMAP
1BEA00
581A30
3C3000
4BDB10
850940
2DBC20
005D10
861B20
2CE900
ENDCHAR
STARTCHAR dieresis
ENCODING 168
SWIDTH 417 0
DWIDTH 4 0
BBX 4 1 0 6
BITMAP
6483
ENDCHAR
STARTCHAR copyright
ENCODING 169
SWIDTH 785 0
DWIDTH 7 0
BBX 7 7 0 0
BITMAP
03CEC300
1C303B20
72AF9270
81B11080
72AFA270
1C303B10
03CEC300
ENDCHAR
STARTCHAR ordfeminine
ENCODING 170
SWIDTH 395 0
DWIDTH 4 0
BBX 3 4 0 3
BITMAP
1D90
24B0
3EE0
3ED0
ENDCHAR
STARTCHAR guillemotleft
ENCODING 171
SWIDTH 417 0
DWIDTH 4 0
BBX 4 3 0 1
BITMAP
0981
6790
0981
ENDCHAR
STARTCHAR logicalnot
ENCODING 172
SWIDTH 487 0
DWIDTH 4 0
BBX 4 2 0 2
BITMAP
7FFA
002A
ENDCHAR
STARTCHAR uni00AD
ENCODING 173
SWIDTH 248 0
DWIDTH 2 0
BBX 2 1 0 2
BITMAP
CF
ENDCHAR
STARTCHAR registered
ENCODING 174
SWIDTH 786 0
DWIDTH 7 0
BBX 7 7 0 0
BITMAP
03CEC300
1B303B10
72BF8270
8091A080
72BFA270
1C303B10
03CEC300
ENDCHAR
STARTCHAR macron
ENCODING 175
SWIDTH 414 0
DWIDTH 4 0
BBX 4 1 0 5
BITMAP
6FF3
ENDCHAR
STARTCHAR degree
ENCODING 176
SWIDTH 373 0
DWIDTH 3 0
BBX 3 3 0 4
BITMAP
2E60
65A0
2E70
ENDCHAR
STARTCHAR plusminus
ENCODING 177
SWIDTH 469 0
DWIDTH 4 0
BBX 4 6 0 0
BITMAP
0270
0280
8FFD
0280
0000
6FFA
ENDCHAR
STARTCHAR uni00B2
ENCODING 178
SWIDTH 329 0
DWIDTH 3 0
BBX 3 4 0 3
BITMAP
5E40
6560
2900
9F90
ENDCHAR
STARTCHAR uni00B3
ENCODING 179
SWIDTH 329 0
DWIDTH 3 0
BBX 3 4 0 3
BITMAP
7E50
0E40
5480
6E40
ENDCHAR
STARTCHAR acute
ENCODING 180
SWIDTH 313 0
DWIDTH 3 0
BBX 3 2 0 6
BITMAP
0C20
4700
ENDCHAR
STARTCHAR mu
ENCODING 181
SWIDTH 498 0
DWIDTH 4 0
BBX 4 7 0 -2
BITMAP
560C
560C
560C
592C
5EDC
5600
5600
ENDCHAR
STARTCHAR paragraph
ENCODING 182
SWIDTH 434 0
DWIDTH 4 0
BBX 4 7 0 0
BITMAP
0461
6FF3
AFF3
7FF3
18D3
0093
0093
ENDCHAR
STARTCHAR periodcentered
ENCODING 183
SWIDTH 243 0
DWIDTH 2 0
BBX 2 1 0 3
BITMAP
46
ENDCHAR
STARTCHAR cedilla
ENCODING 184
SWIDTH 229 0
DWIDTH 2 0
BBX 2 2 0 -2
BITMAP
32
68
ENDCHAR
STARTCHAR uni00B9
ENCODING 185
SWIDTH 329 0
DWIDTH 3 0
BBX 2 4 0 3
BITMAP
1A
6D
0A
0A
ENDCHAR
STARTCHAR ordmasculine
ENCODING 186
SWIDTH 402 0
DWIDTH 4 0
BBX 4 4 0 3
BITMAP
2DA0
75B1
75B1
2DA0
ENDCHAR
STARTCHAR guillemotright
ENCODING 187
SWIDTH 417 0
DWIDTH 4 0
BBX 4 3 0 1
BITMAP
4690
0B74
4690
ENDCHAR
STARTCHAR onequarter
ENCODING 188
SWIDTH 637 0
DWIDTH 6 0
BBX 6 7 0 0
BITMAP
290000
9B0530
0A0800
0A63D0
0187B0
061FF6
000090
ENDCHAR
STARTCHAR onehalf
ENCODING 189
SWIDTH 677 0
DWIDTH 6 0
BBX 6 7 0 0
BITMAP
290000
9B0710
0A1700
0A87E4
026365
070390
000AF9
ENDCHAR
STARTCHAR threequarters
ENCODING 190
SWIDTH 673 0
DWIDTH 6 0
BBX 6 7 0 0
BITMAP
3C7000
0B7070
11A630
4E78A5
0075A5
017AFA
000055
ENDCHAR
STARTCHAR questiondown
ENCODING 191
SWIDTH 421 0
DWIDTH 4 0
BBX 4 7 0 -2
BITMAP
0630
0000
0840
1B00
8300
A485
4EC1
ENDCHAR
STARTCHAR Agrave
ENCODING 192
SWIDTH 576 0
DWIDTH 5 0
BBX 5 10 0 0
BITMAP
078000
00A000
000000
00D100
03C600
073A00
0A0A00
1FFF40
660380
A200C0
ENDCHAR
STARTCHAR Aacute
ENCODING 193
SWIDTH 576 0
DWIDTH 5 0
BBX 5 10 0 0
BITMAP
004B00
009200
000000
00D100
03C600
073A00
0A0A00
1FFF40
660380
A200C0
ENDCHAR
STARTCHAR Acircumflex
ENCODING 194
SWIDTH 576 0
DWIDTH 5 0
BBX 5 10 0 0
BITMAP
01D300
056800
000000
00D100
03C600
073A00
0A0A00
1FFF40
660380
A200C0
ENDCHAR
STARTCHAR Atilde
ENCODING 195
SWIDTH 576 0
DWIDTH 5 0
BBX 5 10 0 0
BITMAP
069800
086900
000000
00D100
03C600
073A00
0A0A00
1FFF40
660380
A200C0
ENDCHAR
STARTCHAR Adieresis
ENCODING 196
SWIDTH 576 0
DWIDTH 5 0
BBX 5 9 0 0
BITMAP
0A1A00
000000
00D100
03C600
073A00
0A0A00
1FFF40
660380
A200C0
ENDCHAR
STARTCHAR Aring
ENCODING 197
SWIDTH 576 0
DWIDTH 5 0
BBX 5 8 0 0
BITMAP
028500
03F600
03C600
073A00
0A0A00
1FFF40
660380
A200C0
ENDCHAR
STARTCHAR AE
ENCODING 198
SWIDTH 812 0
DWIDTH 7 0
BBX 8 7 0 0
BITMAP
001EFFD0
007B5000
00A66000
0645FF90
0DFF7000
57047000
C204FFF2
ENDCHAR
STARTCHAR Ccedilla
ENCODING 199
SWIDTH 566 0
DWIDTH 5 0
BBX 5 9 0 -2
BITMAP
08EB10
3B1670
660140
750000
660140
3B1670
08EB10
006000
00A400
ENDCHAR
STARTCHAR Egrave
ENCODING 200
SWIDTH 496 0
DWIDTH 4 0
BBX 5 10 0 0
BITMAP
0B4000
029000
000000
5FFF10
580000
580000
5FFB00
580000
580000
5FFF20
ENDCHAR
STARTCHAR Eacute
ENCODING 201
SWIDTH 496 0
DWIDTH 4 0
BBX 5 10 0 0
BITMAP
008700
00A000
000000
5FFF10
580000
580000
5FFB00
580000
580000
5FFF20
ENDCHAR
STARTCHAR Ecircumflex
ENCODING 202
SWIDTH 496 0
DWIDTH 4 0
BBX 5 10 0 0
BITMAP
03D100
086500
000000
5FFF10
580000
580000
5FFB00
580000
580000
5FFF20
ENDCHAR
STARTCHAR Edieresis
ENCODING 203
SWIDTH 496 0
DWIDTH 4 0
BBX 5 9 0 0
BITMAP
0A1A00
000000
5FFF10
580000
580000
5FFB00
580000
580000
5FFF20
ENDCHAR
STARTCHAR Igrave
ENCODING 204
SWIDTH 250 0
DWIDTH 2 0
BBX 3 10 -1 0
BITMAP
1D10
0650
0000
0480
0480
0480
0480
0480
0480
0480
ENDCHAR
STARTCHAR Iacute
ENCODING 205
SWIDTH 250 0
DWIDTH 2 0
BBX 3 10 0 0
BITMAP
0B30
2900
0000
4800
4800
4800
4800
4800
4800
4800
ENDCHAR
STARTCHAR Icircumflex
ENCODING 206
SWIDTH 250 0
DWIDTH 2 0
BBX 3 10 0 0
BITMAP
6A00
9820
0000
4800
4800
4800
4800
4800
4800
4800
ENDCHAR
STARTCHAR Idieresis
ENCODING 207
SWIDTH 250 0
DWIDTH 2 0
BBX 4 9 -1 0
BITMAP
3846
0000
0480
0480
0480
0480
0480
0480
0480
ENDCHAR
STARTCHAR Eth
ENCODING 208
SWIDTH 585 0
DWIDTH 5 0
BBX 5 7 0 0
BITMAP
3FEA00
391860
3902A0
EF71B0
3902A0
391970
3FEA10
ENDCHAR
STARTCHAR Ntilde
ENCODING 209
SWIDTH 619 0
DWIDTH 6 0
BBX 5 10 0 0
BITMAP
04B810
085B00
000000
5B00C0
5E30C0
59A0C0
5892C0
5829C0
5809D0
5803D0
ENDCHAR
STARTCHAR Ograve
ENCODING 210
SWIDTH 600 0
DWIDTH 5 0
BBX 5 10 0 0
BITMAP
069000
00A100
000000
08EC20
3B1690
6600C0
7500C0
6600C0
3B1690
08EC20
ENDCHAR
STARTCHAR Oacute
ENCODING 211
SWIDTH 600 0
DWIDTH 5 0
BBX 5 10 0 0
BITMAP
003C00
007300
000000
08EC20
3B1690
6600C0
7500C0
6600C0
3B1690
08EC20
ENDCHAR
STARTCHAR Ocircumflex
ENCODING 212
SWIDTH 600 0
DWIDTH 5 0
BBX 5 10 0 0
BITMAP
00C400
047900
000000
08EC20
3B1690
6600C0
7500C0
6600C0
3B1690
08EC20
ENDCHAR
STARTCHAR Otilde
ENCODING 213
SWIDTH 600 0
DWIDTH 5 0
BBX 5 10 0 0
BITMAP
05A800
085B00
000000
08EC20
3B1690
6600C0
7500C0
6600C0
3B1690
08EC20
ENDCHAR
STARTCHAR Odieresis
ENCODING 214
SWIDTH 600 0
DWIDTH 5 0
BBX 5 9 0 0
BITMAP
082A10
000000
08EC20
3B1690
6600C0
7500C0
6600C0
3B1690
08EC20
ENDCHAR
STARTCHAR multiply
ENCODING 215
SWIDTH 470 0
DWIDTH 4 0
BBX 4 4 0 1
BITMAP
6538
0BC1
0BC1
5537
ENDCHAR
STARTCHAR Oslash
ENCODING 216
SWIDTH 600 0
DWIDTH 5 0
BBX 5 9 0 -1
BITMAP
000010
07EB80
3C1880
6608C0
7562C0
6680C0
2E3780
0CEB10
120000
ENDCHAR
STARTCHAR Ugrave
ENCODING 217
SWIDTH 561 0
DWIDTH 5 0
BBX 5 10 0 0
BITMAP
086000
01A000
000000
660480
660480
660480
660480
660570
591860
0BEB10
ENDCHAR
STARTCHAR Uacute
ENCODING 218
SWIDTH 561 0
DWIDTH 5 0
BBX 5 10 0 0
BITMAP
005900
009100
000000
660480
660480
660480
660480
660570
591860
0BEB10
ENDCHAR
STARTCHAR Ucircumflex
ENCODING 219
SWIDTH 561 0
DWIDTH 5 0
BBX 5 10 0 0
BITMAP
01D200
066700
000000
660480
660480
660480
660480
660570
591860
0BEB10
ENDCHAR
STARTCHAR Udieresis
ENCODING 220
SWIDTH 561 0
DWIDTH 5 0
BBX 5 9 0 0
BITMAP
0A0B00
000000
660480
660480
660480
660480
660570
591860
0BEB10
ENDCHAR
STARTCHAR Yacute
ENCODING 221
SWIDTH 524 0
DWIDTH 5 0
BBX 5 10 0 0
BITMAP
008700
00A000
000000
A30860
490C00
0C4800
06D200
01C000
01B000
01B000
ENDCHAR
STARTCHAR Thorn
ENCODING 222
SWIDTH 515 0
DWIDTH 5 0
BBX 5 7 0 0
BITMAP
570000
5FE800
571C10
570830
571C10
5FE700
570000
ENDCHAR
STARTCHAR germandbls
ENCODING 223
SWIDTH 521 0
DWIDTH 5 0
BBX 5 7 0 0
BITMAP
1CE300
585700
657400
65A200
653B10
661940
67DD10
ENDCHAR
STARTCHAR agrave
ENCODING 224
SWIDTH 479 0
DWIDTH 4 0
BBX 4 8 0 0
BITMAP
0C20
0470
0000
1CE5
243A
2CFA
773A
3EBC
ENDCHAR
STARTCHAR aacute
ENCODING 225
SWIDTH 479 0
DWIDTH 4 0
BBX 4 8 0 0
BITMAP
00A5
01A0
0000
1CE5
243A
2CFA
773A
3EBC
ENDCHAR
STARTCHAR acircumflex
ENCODING 226
SWIDTH 479 0
DWIDTH 4 0
BBX 4 8 0 0
BITMAP
05B0
0973
0000
1CE5
243A
2CFA
773A
3EBC
ENDCHAR
STARTCHAR atilde
ENCODING 227
SWIDTH 479 0
DWIDTH 4 0
BBX 4 8 0 0
BITMAP
0B48
18B4
0000
1CE5
243A
2CFA
773A
3EBC
ENDCHAR
STARTCHAR adieresis
ENCODING 228
SWIDTH 479 0
DWIDTH 4 0
BBX 4 7 0 0
BITMAP
1938
0000
1CE5
243A
2CFA
773A
3EBC
ENDCHAR
STARTCHAR aring
ENCODING 229
SWIDTH 479 0
DWIDTH 4 0
BBX 4 8 0 0
BITMAP
0681
0681
0000
1CE5
243A
2CFA
773A
3EBC
ENDCHAR
STARTCHAR ae
ENCODING 230
SWIDTH 728 0
DWIDTH 7 0
BBX 7 5 0 0
BITMAP
3DD9E900
335C1B10
4DFFFF30
955C1100
5EC8EC10
ENDCHAR
STARTCHAR ccedilla
ENCODING 231
SWIDTH 461 0
DWIDTH 4 0
BBX 4 7 0 -2
BITMAP
2CE5
7629
9300
7617
2CE5
0240
04A0
ENDCHAR
STARTCHAR egrave
ENCODING 232
SWIDTH 468 0
DWIDTH 4 0
BBX 4 8 0 0
BITMAP
1D20
0560
0000
1CE4
762B
8FFD
7601
2CE7
ENDCHAR
STARTCHAR eacute
ENCODING 233
SWIDTH 468 0
DWIDTH 4 0
BBX 4 8 0 0
BITMAP
00B4
0190
0000
1CE4
762B
8FFD
7601
2CE7
ENDCHAR
STARTCHAR ecircumflex
ENCODING 234
SWIDTH 468 0
DWIDTH 4 0
BBX 4 8 0 0
BITMAP
06B0
0972
0000
1CE4
762B
8FFD
7601
2CE7
ENDCHAR
STARTCHAR edieresis
ENCODING 235
SWIDTH 468 0
DWIDTH 4 0
BBX 4 7 0 0
BITMAP
2837
0000
1CE4
762B
8FFD
7601
2CE7
ENDCHAR
STARTCHAR igrave
ENCODING 236
SWIDTH 234 0
DWIDTH 2 0
BBX 3 8 -1 0
BITMAP
1D10
0740
0000
0560
0560
0560
0560
0560
ENDCHAR
STARTCHAR iacute
ENCODING 237
SWIDTH 234 0
DWIDTH 2 0
BBX 3 8 0 0
BITMAP
0C20
3800
0000
5600
5600
5600
5600
5600
ENDCHAR
STARTCHAR icircumflex
ENCODING 238
SWIDTH 234 0
DWIDTH 2 0
BBX 3 8 0 0
BITMAP
8900
9910
0000
5600
5600
5600
5600
5600
ENDCHAR
STARTCHAR idieresis
ENCODING 239
SWIDTH 234 0
DWIDTH 2 0
BBX 4 7 -1 0
BITMAP
3755
0000
0560
0560
0560
0560
0560
ENDCHAR
STARTCHAR eth
ENCODING 240
SWIDTH 513 0
DWIDTH 5 0
BBX 4 7 0 0
BITMAP
0B65
04D4
011B
1CFE
681C
681C
1BE5
ENDCHAR
STARTCHAR ntilde
ENCODING 241
SWIDTH 483 0
DWIDTH 4 0
BBX 4 8 0 0
BITMAP
0C47
17C3
0000
6CE6
682B
650C
650C
650C
ENDCHAR
STARTCHAR ograve
ENCODING 242
SWIDTH 501 0
DWIDTH 5 0
BBX 5 8 0 0
BITMAP
0C2000
046000
000000
1CE600
771D00
930A10
771C00
1CE600
ENDCHAR
STARTCHAR oacute
ENCODING 243
SWIDTH 501 0
DWIDTH 5 0
BBX 5 8 0 0
BITMAP
00A500
01A000
000000
1CE600
771D00
930A10
771C00
1CE600
ENDCHAR
STARTCHAR ocircumflex
ENCODING 244
SWIDTH 501 0
DWIDTH 5 0
BBX 5 8 0 0
BITMAP
05B000
097300
000000
1CE600
771D00
930A10
771C00
1CE600
ENDCHAR
STARTCHAR otilde
ENCODING 245
SWIDTH 501 0
DWIDTH 5 0
BBX 5 8 0 0
BITMAP
0C4800
17B400
000000
1CE600
771D00
930A10
771C00
1CE600
ENDCHAR
STARTCHAR odieresis
ENCODING 246
SWIDTH 501 0
DWIDTH 5 0
BBX 5 7 0 0
BITMAP
193800
000000
1CE600
771D00
930A10
771C00
1CE600
ENDCHAR
STARTCHAR divide
ENCODING 247
SWIDTH 500 0
DWIDTH 5 0
BBX 4 5 0 0
BITMAP
0280
0000
AFFF
0000
0280
ENDCHAR
STARTCHAR oslash
ENCODING 248
SWIDTH 498 0
DWIDTH 4 0
BBX 5 7 0 -1
BITMAP
000400
1BD800
687C00
847B10
6B3D00
1DE500
130000
ENDCHAR
STARTCHAR ugrave
ENCODING 249
SWIDTH 483 0
DWIDTH 4 0
BBX 4 8 0 0
BITMAP
1D20
0560
0000
750C
750C
750C
673C
2DCB
ENDCHAR
STARTCHAR uacute
ENCODING 250
SWIDTH 483 0
DWIDTH 4 0
BBX 4 8 0 0
BITMAP
00B4
0190
0000
750C
750C
750C
673C
2DCB
ENDCHAR
STARTCHAR ucircumflex
ENCODING 251
SWIDTH 483 0
DWIDTH 4 0
BBX 4 8 0 0
BITMAP
06B0
0972
0000
750C
750C
750C
673C
2DCB
ENDCHAR
STARTCHAR udieresis
ENCODING 252
SWIDTH 483 0
DWIDTH 4 0
BBX 4 7 0 0
BITMAP
2837
0000
750C
750C
750C
673C
2DCB
ENDCHAR
STARTCHAR yacute
ENCODING 253
SWIDTH 416 0
DWIDTH 4 0
BBX 4 10 0 -2
BITMAP
01D1
0470
0000
B267
6592
29B0
0B90
0850
0B10
9900
ENDCHAR
STARTCHAR thorn
ENCODING 254
SWIDTH 508 0
DWIDTH 5 0
BBX 5 9 0 -2
BITMAP
660000
660000
6DE600
682D00
660B10
682D00
6DE600
660000
660000
ENDCHAR
STARTCHAR ydieresis
ENCODING 255
SWIDTH 416 0
DWIDTH 4 0
BBX 4 9 0 -2
BITMAP
5574
0000
B267
6592
29B0
0B90
0850
0B10
9900
ENDCHAR
STARTCHAR Amacron
ENCODING 256
SWIDTH 576 0
DWIDTH 5 0
BBX 5 7 0 0
BITMAP
0AFF00
03C600
073A00
0A0A00
1FFF40
660380
A200C0
ENDCHAR
STARTCHAR amacron
ENCODING 257
SWIDTH 479 0
DWIDTH 4 0
BBX 4 7 0 0
BITMAP
0FF8
0000
1CE5
243A
2CFA
773A
3EBC
ENDCHAR
STARTCHAR Abreve
ENCODING 258
SWIDTH 576 0
DWIDTH 5 0
BBX 5 8 0 0
BITMAP
0A2B00
04F800
03C600
073A00
0A0A00
1FFF40
660380
A200C0
ENDCHAR
STARTCHAR abreve
ENCODING 259
SWIDTH 479 0
DWIDTH 4 0
BBX 4 8 0 0
BITMAP
0B47
09E2
0000
1CE5
243A
2CFA
773A
3EBC
ENDCHAR
STARTCHAR Aogonek
ENCODING 260
SWIDTH 576 0
DWIDTH 5 0
BBX 5 9 0 -2
BITMAP
00D100
03C600
073A00
0A0A00
1FFF40
660380
A200C0
000360
0004C0
ENDCHAR
STARTCHAR aogonek
ENCODING 261
SWIDTH 479 0
DWIDTH 4 0
BBX 4 7 0 -2
BITMAP
1CE5
243A
2CFA
773A
3EBC
0054
006A
ENDCHAR
STARTCHAR Cacute
ENCODING 262
SWIDTH 566 0
DWIDTH 5 0
BBX 5 10 0 0
BITMAP
004A00
009200
000000
08EB10
3B1670
660140
750000
660140
3B1670
08EB10
ENDCHAR
STARTCHAR cacute
ENCODING 263
SWIDTH 461 0
DWIDTH 4 0
BBX 4 8 0 0
BITMAP
00C2
0380
0000
2CE5
7629
9300
7617
2CE5
ENDCHAR
STARTCHAR Ccircumflex
ENCODING 264
SWIDTH 566 0
DWIDTH 5 0
BBX 5 10 0 0
BITMAP
01D200
056800
000000
08EB10
3B1670
660140
750000
660140
3B1670
08EB10
ENDCHAR
STARTCHAR ccircumflex
ENCODING 265
SWIDTH 461 0
DWIDTH 4 0
BBX 4 8 0 0
BITMAP
0890
0991
0000
2CE5
7629
9300
7617
2CE5
ENDCHAR
STARTCHAR Cdotaccent
ENCODING 266
SWIDTH 566 0
DWIDTH 5 0
BBX 5 9 0 0
BITMAP
00A000
000000
08EB10
3B1670
660140
750000
660140
3B1670
08EB10
ENDCHAR
STARTCHAR cdotaccent
ENCODING 267
SWIDTH 461 0
DWIDTH 4 0
BBX 4 7 0 0
BITMAP
0560
0000
2CE5
7629
9300
7617
2CE5
ENDCHAR
STARTCHAR Ccaron
ENCODING 268
SWIDTH 566 0
DWIDTH 5 0
BBX 5 10 0 0
BITMAP
066800
00C200
000000
08EB10
3B1670
660140
750000
660140
3B1670
08EB10
ENDCHAR
STARTCHAR ccaron
ENCODING 269
SWIDTH 461 0
DWIDTH 4 0
BBX 4 8 0 0
BITMAP
0991
0770
0000
2CE5
7629
9300
7617
2CE5
ENDCHAR
STARTCHAR Dcaron
ENCODING 270
SWIDTH 570 0
DWIDTH 5 0
BBX 5 10 0 0
BITMAP
096500
02C000
000000
5FE900
581A50
580480
580390
580480
581A50
5FE800
ENDCHAR
STARTCHAR dcaron
ENCODING 271
SWIDTH 569 0
DWIDTH 5 0
BBX 5 7 0 0
BITMAP
000CA0
000C80
2DDC00
762C00
930C00
762C00
2DCC00
ENDCHAR
STARTCHAR Dcroat
ENCODING 272
SWIDTH 585 0
DWIDTH 5 0
BBX 5 7 0 0
BITMAP
3FEA00
391860
3902A0
EF71B0
3902A0
391970
3FEA10
ENDCHAR
STARTCHAR dcroat
ENCODING 273
SWIDTH 529 0
DWIDTH 5 0
BBX 5 7 0 0
BITMAP
000C00
00CF80
1CDC00
772C00
830C00
672C00
1CDC00
ENDCHAR
STARTCHAR Emacron
ENCODING 274
SWIDTH 496 0
DWIDTH 4 0
BBX 5 7 0 0
BITMAP
5FFF10
580000
580000
5FFB00
580000
580000
5FFF20
ENDCHAR
STARTCHAR emacron
ENCODING 275
SWIDTH 468 0
DWIDTH 4 0
BBX 4 7 0 0
BITMAP
1FF7
0000
1CE4
762B
8FFD
7601
2CE7
ENDCHAR
STARTCHAR Ebreve
ENCODING 276
SWIDTH 496 0
DWIDTH 4 0
BBX 5 8 0 0
BITMAP
0B2A00
5FFF10
580000
580000
5FFB00
580000
580000
5FFF20
ENDCHAR
STARTCHAR ebreve
ENCODING 277
SWIDTH 468 0
DWIDTH 4 0
BBX 4 8 0 0
BITMAP
1A57
0AD2
0000
1CE4
762B
8FFD
7601
2CE7
ENDCHAR
STARTCHAR Edotaccent
ENCODING 278
SWIDTH 496 0
DWIDTH 4 0
BBX 5 9 0 0
BITMAP
00A000
000000
5FFF10
580000
580000
5FFB00
580000
580000
5FFF20
ENDCHAR
STARTCHAR edotaccent
ENCODING 279
SWIDTH 468 0
DWIDTH 4 0
BBX 4 7 0 0
BITMAP
0380
0000
1CE4
762B
8FFD
7601
2CE7
ENDCHAR
STARTCHAR Eogonek
ENCODING 280
SWIDTH 496 0
DWIDTH 4 0
BBX 5 9 0 -2
BITMAP
5FFF10
580000
580000
5FFB00
580000
580000
5FFF20
003700
004C00
ENDCHAR
STARTCHAR eogonek
ENCODING 281
SWIDTH 468 0
DWIDTH 4 0
BBX 4 7 0 -2
BITMAP
1CE4
762B
8FFD
7601
1CF7
0280
01E1
ENDCHAR
STARTCHAR Ecaron
ENCODING 282
SWIDTH 496 0
DWIDTH 4 0
BBX 5 10 0 0
BITMAP
086500
02C000
000000
5FFF10
580000
580000
5FFB00
580000
580000
5FFF20
ENDCHAR
STARTCHAR ecaron
ENCODING 283
SWIDTH 468 0
DWIDTH 4 0
BBX 4 8 0 0
BITMAP
0A82
05A0
0000
1CE4
762B
8FFD
7601
2CE7
ENDCHAR
STARTCHAR Gcircumflex
ENCODING 284
SWIDTH 590 0
DWIDTH 5 0
BBX 5 10 0 0
BITMAP
01D200
066700
000000
09EB10
4B1680
660130
750000
664FA0
3C13A0
08ED50
ENDCHAR
STARTCHAR gcircumflex
ENCODING 285
SWIDTH 492 0
DWIDTH 4 0
BBX 4 10 0 -2
BITMAP
06A0
0982
0000
2DDC
762C
930C
762C
2DDC
023C
2CE5
ENDCHAR
STARTCHAR Gbreve
ENCODING 286
SWIDTH 590 0
DWIDTH 5 0
BBX 5 10 0 0
BITMAP
0A1B00
05E600
000000
09EB10
4B1680
660130
750000
664FA0
3C13A0
08ED50
ENDCHAR
STARTCHAR gbreve
ENCODING 287
SWIDTH 492 0
DWIDTH 4 0
BBX 4 10 0 -2
BITMAP
2956
0AD1
0000
2DDC
762C
930C
762C
2DDC
023C
2CE5
ENDCHAR
STARTCHAR Gdotaccent
ENCODING 288
SWIDTH 590 0
DWIDTH 5 0
BBX 5 9 0 0
BITMAP
00A000
000000
09EB10
4B1680
660130
750000
664FA0
3C13A0
08ED50
ENDCHAR
STARTCHAR gdotaccent
ENCODING 289
SWIDTH 492 0
DWIDTH 4 0
BBX 4 9 0 -2
BITMAP
0370
0000
2DDC
762C
930C
762C
2DDC
023C
2CE5
ENDCHAR
STARTCHAR uni0122
ENCODING 290
SWIDTH 590 0
DWIDTH 5 0
BBX 5 10 0 -3
BITMAP
09EB10
4B1680
660130
750000
664FA0
3C13A0
08ED50
000000
009200
008000
ENDCHAR
STARTCHAR uni0123
ENCODING 291
SWIDTH 492 0
DWIDTH 4 0
BBX 4 10 0 -2
BITMAP
0180
0480
0000
2DDC
762C
930C
762C
2DDC
023C
2CE5
ENDCHAR
STARTCHAR Hcircumflex
ENCODING 292
SWIDTH 620 0
DWIDTH 6 0
BBX 5 10 0 0
BITMAP
00C400
046900
000000
5800C0
5800C0
5800C0
5FFFD0
5800C0
5800C0
5800C0
ENDCHAR
STARTCHAR hcircumflex
ENCODING 293
SWIDTH 482 0
DWIDTH 4 0
BBX 4 10 0 0
BITMAP
0980
1990
0000
6500
6500
6CE6
682B
650C
650C
650C
ENDCHAR
STARTCHAR Hbar
ENCODING 294
SWIDTH 611 0
DWIDTH 6 0
BBX 6 7 0 0
BITMAP
5800C0
CFFFF5
5800C0
5FFFD0
5800C0
5800C0
5800C0
ENDCHAR
STARTCHAR hbar
ENCODING 295
SWIDTH 497 0
DWIDTH 4 0
BBX 5 8 -1 0
BITMAP
047000
1FF500
047000
04CE80
04A2C0
0470C0
0470C0
0470C0
ENDCHAR
STARTCHAR Itilde
ENCODING 296
SWIDTH 250 0
DWIDTH 2 0
BBX 4 10 -1 0
BITMAP
0C56
26C2
0000
0480
0480
0480
0480
0480
0480
0480
ENDCHAR
STARTCHAR itilde
ENCODING 297
SWIDTH 234 0
DWIDTH 2 0
BBX 4 8 -1 0
BITMAP
1C55
36D2
0000
0560
0560
0560
0560
0560
ENDCHAR
STARTCHAR Imacron
ENCODING 298
SWIDTH 250 0
DWIDTH 2 0
BBX 4 7 -1 0
BITMAP
2FF6
0480
0480
0480
0480
0480
0480
ENDCHAR
STARTCHAR imacron
ENCODING 299
SWIDTH 234 0
DWIDTH 2 0
BBX 4 7 -1 0
BITMAP
3FF5
0000
0560
0560
0560
0560
0560
ENDCHAR
STARTCHAR Ibreve
ENCODING 300
SWIDTH 250 0
DWIDTH 2 0
BBX 4 8 -1 0
BITMAP
2956
0FF1
0480
0480
0480
0480
0480
0480
ENDCHAR
STARTCHAR ibreve
ENCODING 301
SWIDTH 234 0
DWIDTH 2 0
BBX 4 8 -1 0
BITMAP
3875
0BC1
0000
0560
0560
0560
0560
0560
ENDCHAR
STARTCHAR Iogonek
ENCODING 302
SWIDTH 250 0
DWIDTH 2 0
BBX 2 9 0 -2
BITMAP
48
48
48
48
48
48
49
81
A7
ENDCHAR
STARTCHAR iogonek
ENCODING 303
SWIDTH 229 0
DWIDTH 2 0
BBX 2 9 0 -2
BITMAP
45
00
56
56
56
56
67
81
B5
ENDCHAR
STARTCHAR Idotaccent
ENCODING 304
SWIDTH 250 0
DWIDTH 2 0
BBX 2 9 0 0
BITMAP
47
00
48
48
48
48
48
48
48
ENDCHAR
STARTCHAR dotlessi
ENCODING 305
SWIDTH 234 0
DWIDTH 2 0
BBX 2 5 0 0
BITMAP
56
56
56
56
56
ENDCHAR
STARTCHAR IJ
ENCODING 306
SWIDTH 733 0
DWIDTH 7 0
BBX 6 7 0 0
BITMAP
48000C
48000C
48000C
48000C
48000C
48572C
481CE5
ENDCHAR
STARTCHAR ij
ENCODING 307
SWIDTH 452 0
DWIDTH 4 0
BBX 4 9 0 -2
BITMAP
4545
0000
5657
5657
5657
5657
5657
0066
00E3
ENDCHAR
STARTCHAR Jcircumflex
ENCODING 308
SWIDTH 483 0
DWIDTH 4 0
BBX 5 10 0 0
BITMAP
006B00
009720
000000
002B00
002B00
002B00
002B00
002B00
945900
4ED300
ENDCHAR
STARTCHAR jcircumflex
ENCODING 309
SWIDTH 237 0
DWIDTH 2 0
BBX 4 10 -1 -2
BITMAP
07A0
0981
0000
0470
0470
0470
0470
0470
0670
1E30
ENDCHAR
STARTCHAR uni0136
ENCODING 310
SWIDTH 544 0
DWIDTH 5 0
BBX 5 9 0 -2
BITMAP
580960
584A00
58C100
5EC000
5A7700
581C10
580690
00B000
008000
ENDCHAR
STARTCHAR uni0137
ENCODING 311
SWIDTH 450 0
DWIDTH 4 0
BBX 4 9 0 -2
BITMAP
6500
6500
6576
68A0
6E80
66B2
653A
0560
0720
ENDCHAR
STARTCHAR kgreenlandic
ENCODING 312
SWIDTH 491 0
DWIDTH 4 0
BBX 4 5 0 0
BITMAP
564A
57C1
5F80
57C2
563B
ENDCHAR
STARTCHAR Lacute
ENCODING 313
SWIDTH 475 0
DWIDTH 4 0
BBX 4 10 0 0
BITMAP
0C30
2800
0000
5800
5800
5800
5800
5800
5800
5FFF
ENDCHAR
STARTCHAR lacute
ENCODING 314
SWIDTH 229 0
DWIDTH 2 0
BBX 3 10 0 0
BITMAP
0C20
3800
0000
5600
5600
5600
5600
5600
5600
5600
ENDCHAR
STARTCHAR uni013B
ENCODING 315
SWIDTH 475 0
DWIDTH 4 0
BBX 4 9 0 -2
BITMAP
5800
5800
5800
5800
5800
5800
5FFF
00A0
0260
ENDCHAR
STARTCHAR uni013C
ENCODING 316
SWIDTH 229 0
DWIDTH 2 0
BBX 2 9 0 -2
BITMAP
56
56
56
56
56
56
56
56
72
ENDCHAR
STARTCHAR Lcaron
ENCODING 317
SWIDTH 475 0
DWIDTH 4 0
BBX 4 7 0 0
BITMAP
5892
5880
5800
5800
5800
5800
5FFF
ENDCHAR
STARTCHAR lcaron
ENCODING 318
SWIDTH 302 0
DWIDTH 3 0
BBX 3 7 0 0
BITMAP
57B0
5860
5600
5600
5600
5600
5600
ENDCHAR
STARTCHAR Ldot
ENCODING 319
SWIDTH 475 0
DWIDTH 4 0
BBX 4 7 0 0
BITMAP
5800
5800
5800
5891
5800
5800
5FFF
ENDCHAR
STARTCHAR ldot
ENCODING 320
SWIDTH 336 0
DWIDTH 3 0
BBX 3 7 0 0
BITMAP
5600
5600
5600
5890
5600
5600
5600
ENDCHAR
STARTCHAR Lslash
ENCODING 321
SWIDTH 475 0
DWIDTH 4 0
BBX 4 7 0 0
BITMAP
5800
5800
5800
6D60
A900
5800
5FFF
ENDCHAR
STARTCHAR lslash
ENCODING 322
SWIDTH 250 0
DWIDTH 2 0
BBX 3 7 0 0
BITMAP
4700
4700
4700
6E10
A800
4700
4700
ENDCHAR
STARTCHAR Nacute
ENCODING 323
SWIDTH 619 0
DWIDTH 6 0
BBX 5 10 0 0
BITMAP
002C00
007400
000000
5B00C0
5E30C0
59A0C0
5892C0
5829C0
5809D0
5803D0
ENDCHAR
STARTCHAR nacute
ENCODING 324
SWIDTH 483 0
DWIDTH 4 0
BBX 4 8 0 0
BITMAP
00A4
01A0
0000
6CE6
682B
650C
650C
650C
ENDCHAR
STARTCHAR uni0145
ENCODING 325
SWIDTH 619 0
DWIDTH 6 0
BBX 5 9 0 -2
BITMAP
5B00C0
5E30C0
59A0C0
5892C0
5829C0
5809D0
5803D0
00A100
008000
ENDCHAR
STARTCHAR uni0146
ENCODING 326
SWIDTH 483 0
DWIDTH 4 0
BBX 4 7 0 -2
BITMAP
6CE6
682B
650C
650C
650C
0470
0530
ENDCHAR
STARTCHAR Ncaron
ENCODING 327
SWIDTH 619 0
DWIDTH 6 0
BBX 5 10 0 0
BITMAP
037A00
00A400
000000
5B00C0
5E30C0
59A0C0
5892C0
5829C0
5809D0
5803D0
ENDCHAR
STARTCHAR ncaron
ENCODING 328
SWIDTH 483 0
DWIDTH 4 0
BBX 4 8 0 0
BITMAP
0A83
04A0
0000
6CE6
682B
650C
650C
650C
ENDCHAR
STARTCHAR napostrophe
ENCODING 329
SWIDTH 483 0
DWIDTH 4 0
BBX 5 7 -1 0
BITMAP
0B0000
170000
06CE60
0682B0
0650C0
0650C0
0650C0
ENDCHAR
STARTCHAR Eng
ENCODING 330
SWIDTH 599 0
DWIDTH 5 0
BBX 5 9 0 -2
BITMAP
5B01C0
5F31C0
59A1C0
57A3C0
5729C0
570AC0
5703C0
0002B0
000C60
ENDCHAR
STARTCHAR eng
ENCODING 331
SWIDTH 498 0
DWIDTH 4 0
BBX 4 7 0 -2
BITMAP
6BE6
682C
660C
660C
660C
001C
00B7
ENDCHAR
STARTCHAR Omacron
ENCODING 332
SWIDTH 600 0
DWIDTH 5 0
BBX 5 7 0 0
BITMAP
0FFF20
3B1690
6600C0
7500C0
6600C0
3B1690
08EC20
ENDCHAR
STARTCHAR omacron
ENCODING 333
SWIDTH 501 0
DWIDTH 5 0
BBX 5 7 0 0
BITMAP
0FF800
000000
1CE600
771D00
930A10
771C00
1CE600
ENDCHAR
STARTCHAR Obreve
ENCODING 334
SWIDTH 600 0
DWIDTH 5 0
BBX 5 8 0 0
BITMAP
083B00
0BFF20
3B1690
6600C0
7500C0
6600C0
3B1690
08EC20
ENDCHAR
STARTCHAR obreve
ENCODING 335
SWIDTH 501 0
DWIDTH 5 0
BBX 5 8 0 0
BITMAP
1A4700
09D200
000000
1CE600
771D00
930A10
771C00
1CE600
ENDCHAR
STARTCHAR Ohungarumlaut
ENCODING 336
SWIDTH 600 0
DWIDTH 5 0
BBX 5 10 0 0
BITMAP
00CA40
018A00
000000
08EC20
3B1690
6600C0
7500C0
6600C0
3B1690
08EC20
ENDCHAR
STARTCHAR ohungarumlaut
ENCODING 337
SWIDTH 501 0
DWIDTH 5 0
BBX 5 8 0 0
BITMAP
059B00
088400
000000
1CE600
771D00
930A10
771C00
1CE600
ENDCHAR
STARTCHAR OE
ENCODING 338
SWIDTH 826 0
DWIDTH 7 0
BBX 7 7 0 0
BITMAP
09FFFFA0
4A1B1000
740B1000
840BFF50
740B1000
4A1B1000
09FFFFB0
ENDCHAR
STARTCHAR oe
ENCODING 339
SWIDTH 777 0
DWIDTH 7 0
BBX 7 5 0 0
BITMAP
1BE6CD20
682E5580
840CFFA0
682E5110
1BE7CE40
ENDCHAR
STARTCHAR Racute
ENCODING 340
SWIDTH 530 0
DWIDTH 5 0
BBX 5 10 0 0
BITMAP
008600
00A000
000000
5FFB00
580950
580950
5FFB00
583A00
580C10
580670
ENDCHAR
STARTCHAR racute
ENCODING 341
SWIDTH 304 0
DWIDTH 3 0
BBX 3 8 0 0
BITMAP
04A0
0920
0000
6C80
6800
6500
6500
6500
ENDCHAR
STARTCHAR uni0156
ENCODING 342
SWIDTH 530 0
DWIDTH 5 0
BBX 5 9 0 -2
BITMAP
5FFB00
580950
580950
5FFB00
583A00
580C10
580670
01A000
026000
ENDCHAR
STARTCHAR uni0157
ENCODING 343
SWIDTH 304 0
DWIDTH 3 0
BBX 3 7 0 -2
BITMAP
6C80
6800
6500
6500
6500
6500
7200
ENDCHAR
STARTCHAR Rcaron
ENCODING 344
SWIDTH 530 0
DWIDTH 5 0
BBX 5 10 0 0
BITMAP
096500
02C000
000000
5FFB00
580950
580950
5FFB00
583A00
580C10
580670
ENDCHAR
STARTCHAR rcaron
ENCODING 345
SWIDTH 304 0
DWIDTH 3 0
BBX 3 8 0 0
BITMAP
6680
0C20
0000
6C80
6800
6500
6500
6500
ENDCHAR
STARTCHAR Sacute
ENCODING 346
SWIDTH 518 0
DWIDTH 5 0
BBX 5 10 0 0
BITMAP
008700
00A000
000000
1BE600
681B20
490210
07C600
210B20
771A30
0AEA00
ENDCHAR
STARTCHAR sacute
ENCODING 347
SWIDTH 455 0
DWIDTH 4 0
BBX 4 8 0 0
BITMAP
00A4
01A0
0000
2DE4
5A44
09E4
4449
3DE4
ENDCHAR
STARTCHAR Scircumflex
ENCODING 348
SWIDTH 518 0
DWIDTH 5 0
BBX 5 10 0 0
BITMAP
03D100
086500
000000
1BE600
681B20
490210
07C600
210B20
771A30
0AEA00
ENDCHAR
STARTCHAR scircumflex
ENCODING 349
SWIDTH 455 0
DWIDTH 4 0
BBX 4 8 0 0
BITMAP
05B0
0972
0000
2DE4
5A44
09E4
4449
3DE4
ENDCHAR
STARTCHAR Scedilla
ENCODING 350
SWIDTH 518 0
DWIDTH 5 0
BBX 5 9 0 -2
BITMAP
1BE600
681B20
490210
07C600
210B20
771A30
0AEA00
006000
00D100
ENDCHAR
STARTCHAR scedilla
ENCODING 351
SWIDTH 455 0
DWIDTH 4 0
BBX 4 7 0 -2
BITMAP
2DE4
5A44
09E4
4449
3DE4
0150
02C0
ENDCHAR
STARTCHAR Scaron
ENCODING 352
SWIDTH 518 0
DWIDTH 5 0
BBX 5 10 0 0
BITMAP
086500
02C000
000000
1BE600
681B20
490210
07C600
210B20
771A30
0AEA00
ENDCHAR
STARTCHAR scaron
ENCODING 353
SWIDTH 455 0
DWIDTH 4 0
BBX 4 8 0 0
BITMAP
0A83
04A0
0000
2DE4
5A44
09E4
4449
3DE4
ENDCHAR
STARTCHAR uni0162
ENCODING 354
SWIDTH 520 0
DWIDTH 5 0
BBX 5 9 0 -2
BITMAP
BFFF70
01B000
01B000
01B000
01B000
01B000
01B000
006000
00D100
ENDCHAR
STARTCHAR uni0163
ENCODING 355
SWIDTH 295 0
DWIDTH 3 0
BBX 3 8 0 -2
BITMAP
3900
EF50
3900
3900
3A00
1D40
0510
0860
ENDCHAR
STARTCHAR Tcaron
ENCODING 356
SWIDTH 520 0
DWIDTH 5 0
BBX 5 10 0 0
BITMAP
096500
02C000
000000
BFFF70
01B000
01B000
01B000
01B000
01B000
01B000
ENDCHAR
STARTCHAR tcaron
ENCODING 357
SWIDTH 314 0
DWIDTH 3 0
BBX 3 7 0 0
BITMAP
00B0
3980
EF50
3900
3900
3A00
1D40
ENDCHAR
STARTCHAR Tbar
ENCODING 358
SWIDTH 520 0
DWIDTH 5 0
BBX 5 7 0 0
BITMAP
BFFF70
01B000
0CF900
01B000
01B000
01B000
01B000
ENDCHAR
STARTCHAR tbar
ENCODING 359
SWIDTH 295 0
DWIDTH 3 0
BBX 3 6 0 0
BITMAP
3900
EF50
3900
FF60
3900
1D40
ENDCHAR
STARTCHAR Utilde
ENCODING 360
SWIDTH 561 0
DWIDTH 5 0
BBX 5 10 0 0
BITMAP
078800
087800
000000
660480
660480
660480
660480
660570
591860
0BEB10
ENDCHAR
STARTCHAR utilde
ENCODING 361
SWIDTH 483 0
DWIDTH 4 0
BBX 4 8 0 0
BITMAP
0C47
27C3
0000
750C
750C
750C
673C
2DCB
ENDCHAR
STARTCHAR Umacron
ENCODING 362
SWIDTH 561 0
DWIDTH 5 0
BBX 5 7 0 0
BITMAP
6FFF80
660480
660480
660480
660570
591860
0BEB10
ENDCHAR
STARTCHAR umacron
ENCODING 363
SWIDTH 483 0
DWIDTH 4 0
BBX 4 7 0 0
BITMAP
1FF7
0000
750C
750C
750C
673C
2DCB
ENDCHAR
STARTCHAR Ubreve
ENCODING 364
SWIDTH 561 0
DWIDTH 5 0
BBX 5 8 0 0
BITMAP
0A1B00
6BEA80
660480
660480
660480
660570
591860
0BEB10
ENDCHAR
STARTCHAR ubreve
ENCODING 365
SWIDTH 483 0
DWIDTH 4 0
BBX 4 8 0 0
BITMAP
1A57
0AD2
0000
750C
750C
750C
673C
2DCB
ENDCHAR
STARTCHAR Uring
ENCODING 366
SWIDTH 561 0
DWIDTH 5 0
BBX 5 8 0 0
BITMAP
048400
698980
660480
660480
660480
660570
591860
0BEB10
ENDCHAR
STARTCHAR uring
ENCODING 367
SWIDTH 483 0
DWIDTH 4 0
BBX 4 8 0 0
BITMAP
0780
0780
0000
750C
750C
750C
673C
2DCB
ENDCHAR
STARTCHAR Uhungarumlaut
ENCODING 368
SWIDTH 561 0
DWIDTH 5 0
BBX 5 10 0 0
BITMAP
01BC10
048800
000000
660480
660480
660480
660480
660570
591860
0BEB10
ENDCHAR
STARTCHAR uhungarumlaut
ENCODING 369
SWIDTH 483 0
DWIDTH 4 0
BBX 4 8 0 0
BITMAP
069A
0883
0000
750C
750C
750C
673C
2DCB
ENDCHAR
STARTCHAR Uogonek
ENCODING 370
SWIDTH 561 0
DWIDTH 5 0
BBX 5 9 0 -2
BITMAP
660480
660480
660480
660480
660570
591860
0BFB10
009100
008800
ENDCHAR
STARTCHAR uogonek
ENCODING 371
SWIDTH 483 0
DWIDTH 4 0
BBX 4 7 0 -2
BITMAP
750C
750C
750C
673C
2DCB
0055
006A
ENDCHAR
STARTCHAR Wcircumflex
ENCODING 372
SWIDTH 761 0
DWIDTH 7 0
BBX 7 10 0 0
BITMAP
002D2000
00766000
00000000
930D0480
653E2750
48695920
1A938B00
0BA0AB00
0A90A900
08607700
ENDCHAR
STARTCHAR wcircumflex
ENCODING 373
SWIDTH 649 0
DWIDTH 6 0
BBX 6 8 0 0
BITMAP
009700
018900
000000
A18547
75A974
389AA1
0E68B0
0B2590
ENDCHAR
STARTCHAR Ycircumflex
ENCODING 374
SWIDTH 524 0
DWIDTH 5 0
BBX 5 10 0 0
BITMAP
03D100
086500
000000
A30860
490C00
0C4800
06D200
01C000
01B000
01B000
ENDCHAR
STARTCHAR ycircumflex
ENCODING 375
SWIDTH 416 0
DWIDTH 4 0
BBX 4 10 0 -2
BITMAP
0980
1990
0000
B267
6592
29B0
0B90
0850
0B10
9900
ENDCHAR
STARTCHAR Ydieresis
ENCODING 376
SWIDTH 524 0
DWIDTH 5 0
BBX 5 9 0 0
BITMAP
0A1A00
000000
A30860
490C00
0C4800
06D200
01C000
01B000
01B000
ENDCHAR
STARTCHAR Zacute
ENCODING 377
SWIDTH 522 0
DWIDTH 5 0
BBX 5 10 0 0
BITMAP
008700
00A000
000000
8FFF30
001B00
008400
02A000
0A2000
490000
9FFF50
ENDCHAR
STARTCHAR zacute
ENCODING 378
SWIDTH 438 0
DWIDTH 4 0
BBX 4 8 0 0
BITMAP
00C2
0470
0000
8FF7
00A2
0750
3900
9FF9
ENDCHAR
STARTCHAR Zdotaccent
ENCODING 379
SWIDTH 522 0
DWIDTH 5 0
BBX 5 9 0 0
BITMAP
01A000
000000
8FFF30
001B00
008400
02A000
0A2000
490000
9FFF50
ENDCHAR
STARTCHAR zdotaccent
ENCODING 380
SWIDTH 438 0
DWIDTH 4 0
BBX 4 7 0 0
BITMAP
0550
0000
8FF7
00A2
0750
3900
9FF9
ENDCHAR
STARTCHAR Zcaron
ENCODING 381
SWIDTH 522 0
DWIDTH 5 0
BBX 5 10 0 0
BITMAP
096500
02C000
000000
8FFF30
001B00
008400
02A000
0A2000
490000
9FFF50
ENDCHAR
STARTCHAR zcaron
ENCODING 382
SWIDTH 438 0
DWIDTH 4 0
BBX 4 8 0 0
BITMAP
1991
0770
0000
8FF7
00A2
0750
3900
9FF9
ENDCHAR
STARTCHAR longs
ENCODING 383
SWIDTH 234 0
DWIDTH 2 0
BBX 3 7 0 0
BITMAP
1D60
5900
5700
5700
5700
5700
5700
ENDCHAR
STARTCHAR uni018F
ENCODING 399
SWIDTH 597 0
DWIDTH 5 0
BBX 5 7 0 0
BITMAP
0BEA10
031870
0000B0
9FFFD0
8401C0
491870
09EB10
ENDCHAR
STARTCHAR florin
ENCODING 402
SWIDTH 309 0
DWIDTH 3 0
BBX 3 9 0 -2
BITMAP
0B90
2B00
BF50
2A00
2A00
2A00
2A00
3A00
E500
ENDCHAR
STARTCHAR Ohorn
ENCODING 416
SWIDTH 592 0
DWIDTH 5 0
BBX 6 8 0 0
BITMAP
000011
08E984
4B18D0
850190
9300C0
8501B0
4B1880
08EB10
ENDCHAR
STARTCHAR ohorn
ENCODING 417
SWIDTH 502 0
DWIDTH 5 0
BBX 5 5 0 0
BITMAP
1BD580
682D30
830A00
671D10
1BE700
ENDCHAR
STARTCHAR Uhorn
ENCODING 431
SWIDTH 608 0
DWIDTH 5 0
BBX 6 8 0 0
BITMAP
000003
66049A
6604E5
660480
660480
660570
4A1960
0AEA00
ENDCHAR
STARTCHAR uhorn
ENCODING 432
SWIDTH 549 0
DWIDTH 5 0
BBX 5 5 0 0
BITMAP
750C90
750F80
750C00
673C00
2DCB00
ENDCHAR
STARTCHAR uni01F0
ENCODING 496
SWIDTH 237 0
DWIDTH 2 0
BBX 4 10 -1 -2
BITMAP
0A82
0690
0000
0470
0470
0470
0470
0470
0670
1E30
ENDCHAR
STARTCHAR Aringacute
ENCODING 506
SWIDTH 576 0
DWIDTH 5 0
BBX 5 9 0 0
BITMAP
003800
006200
00F300
03C600
073A00
0A0A00
1FFF40
660380
A200C0
ENDCHAR
STARTCHAR aringacute
ENCODING 507
SWIDTH 479 0
DWIDTH 4 0
BBX 4 8 0 0
BITMAP
0083
0080
04F0
1CE5
243A
2CFA
773A
3EBC
ENDCHAR
STARTCHAR AEacute
ENCODING 508
SWIDTH 812 0
DWIDTH 7 0
BBX 8 10 0 0
BITMAP
00059000
00091000
00000000
001EFFD0
007B5000
00A66000
0645FF90
0DFF7000
57047000
C204FFF2
ENDCHAR
STARTCHAR aeacute
ENCODING 509
SWIDTH 728 0
DWIDTH 7 0
BBX 7 8 0 0
BITMAP
00095000
001A0000
00000000
3DD9E900
335C1B10
4DFFFF30
955C1100
5EC8EC10
ENDCHAR
STARTCHAR Oslashacute
ENCODING 510
SWIDTH 600 0
DWIDTH 5 0
BBX 5 11 0 -1
BITMAP
003C00
007300
000010
07EB80
3C1880
6608C0
7562C0
6680C0
2E3780
0CEB10
120000
ENDCHAR
STARTCHAR oslashacute
ENCODING 511
SWIDTH 498 0
DWIDTH 4 0
BBX 5 9 0 -1
BITMAP
00C300
028000
000400
1BD800
687C00
847B10
6B3D00
1DE500
130000
ENDCHAR
STARTCHAR uni0218
ENCODING 536
SWIDTH 518 0
DWIDTH 5 0
BBX 5 10 0 -3
BITMAP
1BE600
681B20
490210
07C600
210B20
771A30
0AEA00
000000
00B000
027000
ENDCHAR
STARTCHAR uni0219
ENCODING 537
SWIDTH 455 0
DWIDTH 4 0
BBX 4 8 0 -3
BITMAP
2DE4
5A44
09E4
4449
3DE4
0000
0380
0540
ENDCHAR
STARTCHAR uni021A
ENCODING 538
SWIDTH 520 0
DWIDTH 5 0
BBX 5 10 0 -3
BITMAP
BFFF70
01B000
01B000
01B000
01B000
01B000
01B000
000000
01A000
026000
ENDCHAR
STARTCHAR uni021B
ENCODING 539
SWIDTH 295 0
DWIDTH 3 0
BBX 3 9 0 -3
BITMAP
3900
EF50
3900
3900
3A00
1D40
0000
0920
0800
ENDCHAR
STARTCHAR uni0237
ENCODING 567
SWIDTH 237 0
DWIDTH 2 0
BBX 3 7 -1 -2
BITMAP
0470
0470
0470
0470
0470
0670
1E30
ENDCHAR
STARTCHAR uni0259
ENCODING 601
SWIDTH 465 0
DWIDTH 4 0
BBX 4 5 0 0
BITMAP
3DD3
113A
8FFC
674A
1CD2
ENDCHAR
STARTCHAR uni02BC
ENCODING 700
SWIDTH 194 0
DWIDTH 2 0
BBX 2 2 0 5
BITMAP
65
81
ENDCHAR
STARTCHAR circumflex
ENCODING 710
SWIDTH 428 0
DWIDTH 4 0
BBX 3 2 0 6
BITMAP
0A60
2890
ENDCHAR
STARTCHAR caron
ENCODING 711
SWIDTH 403 0
DWIDTH 4 0
BBX 3 2 0 6
BITMAP
37A0
0A40
ENDCHAR
STARTCHAR uni02C9
ENCODING 713
SWIDTH 414 0
DWIDTH 4 0
BBX 4 1 0 5
BITMAP
6FF3
ENDCHAR
STARTCHAR breve
ENCODING 728
SWIDTH 426 0
DWIDTH 4 0
BBX 4 2 0 5
BITMAP
6692
1DA0
ENDCHAR
STARTCHAR dotaccent
ENCODING 729
SWIDTH 242 0
DWIDTH 2 0
BBX 2 1 0 6
BITMAP
47
ENDCHAR
STARTCHAR ring
ENCODING 730
SWIDTH 334 0
DWIDTH 3 0
BBX 3 2 0 5
BITMAP
4830
4840
ENDCHAR
STARTCHAR ogonek
ENCODING 731
SWIDTH 253 0
DWIDTH 2 0
BBX 2 3 0 -2
BITMAP
01
72
88
ENDCHAR
STARTCHAR tilde
ENCODING 732
SWIDTH 427 0
DWIDTH 4 0
BBX 4 2 0 6
BITMAP
2C63
65D0
ENDCHAR
STARTCHAR hungarumlaut
ENCODING 733
SWIDTH 331 0
DWIDTH 3 0
BBX 3 2 0 6
BITMAP
3AC0
6860
ENDCHAR
STARTCHAR uni02F3
ENCODING 755
SWIDTH 263 0
DWIDTH 2 0
BBX 2 2 0 -3
BITMAP
5A
5A
ENDCHAR
STARTCHAR gravecomb
ENCODING 768
SWIDTH 0 0
DWIDTH 0 0
BBX 2 2 -3 5
BITMAP
C1
64
ENDCHAR
STARTCHAR acutecomb
ENCODING 769
SWIDTH 0 0
DWIDTH 0 0
BBX 3 2 -3 5
BITMAP
0C10
3700
ENDCHAR
STARTCHAR tildecomb
ENCODING 771
SWIDTH 0 0
DWIDTH 0 0
BBX 4 2 -4 6
BITMAP
0C56
36C2
ENDCHAR
STARTCHAR hookabovecomb
ENCODING 777
SWIDTH 0 0
DWIDTH 0 0
BBX 2 3 -3 5
BITMAP
67
1A
55
ENDCHAR
STARTCHAR uni030F
ENCODING 783
SWIDTH 0 0
DWIDTH 0 0
BBX 4 2 -4 6
BITMAP
4BC0
0A91
ENDCHAR
STARTCHAR dotbelowcomb
ENCODING 803
SWIDTH 0 0
DWIDTH 0 0
BBX 2 1 -4 -2
BITMAP
1A
ENDCHAR
STARTCHAR tonos
ENCODING 900
SWIDTH 256 0
DWIDTH 2 0
BBX 2 2 0 6
BITMAP
1A
26
ENDCHAR
STARTCHAR dieresistonos
ENCODING 901
SWIDTH 452 0
DWIDTH 4 0
BBX 4 2 0 6
BITMAP
0260
6346
ENDCHAR
STARTCHAR Alphatonos
ENCODING 902
SWIDTH 576 0
DWIDTH 5 0
BBX 5 8 0 0
BITMAP
290000
35D100
03C600
073A00
0A0A00
1FFF40
660380
A200C0
ENDCHAR
STARTCHAR anoteleia
ENCODING 903
SWIDTH 243 0
DWIDTH 2 0
BBX 2 1 0 3
BITMAP
46
ENDCHAR
STARTCHAR Epsilontonos
ENCODING 904
SWIDTH 496 0
DWIDTH 4 0
BBX 6 8 -1 0
BITMAP
A10000
75FFF1
058000
058000
05FFB0
058000
058000
05FFF2
ENDCHAR
STARTCHAR Etatonos
ENCODING 905
SWIDTH 620 0
DWIDTH 6 0
BBX 6 8 -1 0
BITMAP
920000
75800C
05800C
05800C
05FFFD
05800C
05800C
05800C
ENDCHAR
STARTCHAR Iotatonos
ENCODING 906
SWIDTH 250 0
DWIDTH 2 0
BBX 3 8 -1 0
BITMAP
9200
7480
0480
0480
0480
0480
0480
0480
ENDCHAR
STARTCHAR Omicrontonos
ENCODING 908
SWIDTH 610 0
DWIDTH 6 0
BBX 6 8 -1 0
BITMAP
0B0000
177EC2
02C14B
05700C
05700C
05700C
02C14B
007EC3
ENDCHAR
STARTCHAR Upsilontonos
ENCODING 910
SWIDTH 573 0
DWIDTH 5 0
BBX 6 8 -1 0
BITMAP
A00000
73A01C
00C176
0066B1
001D80
000A30
000930
000930
ENDCHAR
STARTCHAR Omegatonos
ENCODING 911
SWIDTH 591 0
DWIDTH 5 0
BBX 6 8 -1 0
BITMAP
0B0000
178EB1
02C187
05702B
06601B
047029
009063
06F7FB
ENDCHAR
STARTCHAR iotadieresistonos
ENCODING 912
SWIDTH 299 0
DWIDTH 3 0
BBX 4 8 -1 0
BITMAP
0080
3719
0000
0390
0390
0390
02A0
01D4
ENDCHAR
STARTCHAR Alpha
ENCODING 913
SWIDTH 576 0
DWIDTH 5 0
BBX 5 7 0 0
BITMAP
00D100
03C600
073A00
0A0A00
1FFF40
660380
A200C0
ENDCHAR
STARTCHAR Beta
ENCODING 914
SWIDTH 545 0
DWIDTH 5 0
BBX 5 7 0 0
BITMAP
5FFA00
580A30
580B20
5FFB00
580940
580950
5FFB00
ENDCHAR
STARTCHAR Gamma
ENCODING 915
SWIDTH 487 0
DWIDTH 4 0
BBX 5 7 0 0
BITMAP
4FFF10
480000
480000
480000
480000
480000
480000
ENDCHAR
STARTCHAR Delta.dup1
ENCODING 916
SWIDTH 614 0
DWIDTH 6 0
BBX 6 7 0 0
BITMAP
00B500
01C900
056B00
0A1830
1B0480
5600B0
AFFFF2
ENDCHAR
STARTCHAR Epsilon
ENCODING 917
SWIDTH 496 0
DWIDTH 4 0
BBX 5 7 0 0
BITMAP
5FFF10
580000
580000
5FFB00
580000
580000
5FFF20
ENDCHAR
STARTCHAR Zeta
ENCODING 918
SWIDTH 522 0
DWIDTH 5 0
BBX 5 7 0 0
BITMAP
8FFF30
001B00
008400
02A000
0A2000
490000
9FFF50
ENDCHAR
STARTCHAR Eta
ENCODING 919
SWIDTH 620 0
DWIDTH 6 0
BBX 5 7 0 0
BITMAP
5800C0
5800C0
5800C0
5FFFD0
5800C0
5800C0
5800C0
ENDCHAR
STARTCHAR Theta
ENCODING 920
SWIDTH 593 0
DWIDTH 5 0
BBX 5 7 0 0
BITMAP
08EB10
3B1870
7501B0
87F9C0
7501B0
3B1880
08EB10
ENDCHAR
STARTCHAR Iota
ENCODING 921
SWIDTH 250 0
DWIDTH 2 0
BBX 2 7 0 0
BITMAP
48
48
48
48
48
48
48
ENDCHAR
STARTCHAR Kappa
ENCODING 922
SWIDTH 544 0
DWIDTH 5 0
BBX 5 7 0 0
BITMAP
580960
584A00
58C100
5EC000
5A7700
581C10
580690
ENDCHAR
STARTCHAR Lambda
ENCODING 923
SWIDTH 572 0
DWIDTH 5 0
BBX 5 7 0 0
BITMAP
00E100
03E500
077900
0B1C00
1B0A30
580670
9402B0
ENDCHAR
STARTCHAR Mu
ENCODING 924
SWIDTH 755 0
DWIDTH 7 0
BBX 7 7 0 0
BITMAP
5D001F20
5F306F20
5B70AB20
58B0BA20
57A57B20
586D2B20
581D0B20
ENDCHAR
STARTCHAR Nu
ENCODING 925
SWIDTH 619 0
DWIDTH 6 0
BBX 5 7 0 0
BITMAP
5B00C0
5E30C0
59A0C0
5892C0
5829C0
5809D0
5803D0
ENDCHAR
STARTCHAR Xi
ENCODING 926
SWIDTH 502 0
DWIDTH 5 0
BBX 4 7 0 0
BITMAP
7FFF
0000
0000
2FFA
0000
0000
7FFF
ENDCHAR
STARTCHAR Omicron
ENCODING 927
SWIDTH 600 0
DWIDTH 5 0
BBX 5 7 0 0
BITMAP
08EC20
3B1690
6600C0
7500C0
6600C0
3B1690
08EC20
ENDCHAR
STARTCHAR Pi
ENCODING 928
SWIDTH 620 0
DWIDTH 6 0
BBX 5 7 0 0
BITMAP
4FFFD0
4800C0
4800C0
4800C0
4800C0
4800C0
4800C0
ENDCHAR
STARTCHAR Rho
ENCODING 929
SWIDTH 554 0
DWIDTH 5 0
BBX 5 7 0 0
BITMAP
5FFC20
580680
580680
5FFC20
580000
580000
580000
ENDCHAR
STARTCHAR Sigma
ENCODING 931
SWIDTH 502 0
DWIDTH 5 0
BBX 5 7 0 0
BITMAP
AFFF00
490000
095000
01C000
094000
490000
AFFF20
ENDCHAR
STARTCHAR Tau
ENCODING 932
SWIDTH 520 0
DWIDTH 5 0
BBX 5 7 0 0
BITMAP
BFFF70
01B000
01B000
01B000
01B000
01B000
01B000
ENDCHAR
STARTCHAR Upsilon
ENCODING 933
SWIDTH 524 0
DWIDTH 5 0
BBX 5 7 0 0
BITMAP
A30860
490C00
0C4800
06D200
01C000
01B000
01B000
ENDCHAR
STARTCHAR Phi
ENCODING 934
SWIDTH 621 0
DWIDTH 6 0
BBX 6 7 0 0
BITMAP
009300
0BFE60
6794C1
939384
7794C1
1BFE60
009300
ENDCHAR
STARTCHAR Chi
ENCODING 935
SWIDTH 550 0
DWIDTH 5 0
BBX 5 7 0 0
BITMAP
680860
1C1C00
07C700
02F100
07B700
1C1D10
770860
ENDCHAR
STARTCHAR Psi
ENCODING 936
SWIDTH 600 0
DWIDTH 5 0
BBX 5 7 0 0
BITMAP
93C0C0
93C0C0
93C0C0
69C4B0
1AFC20
00C000
00C000
ENDCHAR
STARTCHAR Omega.dup2
ENCODING 937
SWIDTH 581 0
DWIDTH 5 0
BBX 5 7 0 0
BITMAP
09EA00
4B1960
760390
750290
560370
180720
7F7F90
ENDCHAR
STARTCHAR Iotadieresis
ENCODING 938
SWIDTH 250 0
DWIDTH 2 0
BBX 4 9 -1 0
BITMAP
3846
0000
0480
0480
0480
0480
0480
0480
0480
ENDCHAR
STARTCHAR Upsilondieresis
ENCODING 939
SWIDTH 524 0
DWIDTH 5 0
BBX 5 9 0 0
BITMAP
0A1A00
000000
A30860
490C00
0C4800
06D200
01C000
01B000
01B000
ENDCHAR
STARTCHAR alphatonos
ENCODING 940
SWIDTH 494 0
DWIDTH 4 0
BBX 5 8 0 0
BITMAP
00B000
007000
000000
1CCB00
682C00
840C00
772D00
1DCC30
ENDCHAR
STARTCHAR epsilontonos
ENCODING 941
SWIDTH 470 0
DWIDTH 4 0
BBX 4 8 0 0
BITMAP
00A0
0160
0000
3DE5
6724
2FD0
7726
3DE5
ENDCHAR
STARTCHAR etatonos
ENCODING 942
SWIDTH 498 0
DWIDTH 4 0
BBX 4 10 0 -2
BITMAP
00B0
0070
0000
6BE7
682C
660C
660C
660C
000C
000C
ENDCHAR
STARTCHAR iotatonos
ENCODING 943
SWIDTH 299 0
DWIDTH 3 0
BBX 3 8 0 0
BITMAP
0B00
0700
0000
3900
3900
3900
2A00
1D40
ENDCHAR
STARTCHAR upsilondieresistonos
ENCODING 944
SWIDTH 480 0
DWIDTH 4 0
BBX 4 8 0 0
BITMAP
0170
5527
0000
6639
660C
660C
584B
1CD3
ENDCHAR
STARTCHAR alpha
ENCODING 945
SWIDTH 494 0
DWIDTH 4 0
BBX 5 5 0 0
BITMAP
1CCB00
682C00
840C00
772D00
1DCC30
ENDCHAR
STARTCHAR beta
ENCODING 946
SWIDTH 517 0
DWIDTH 5 0
BBX 5 9 0 -2
BITMAP
0AE600
4A1C00
571B00
57F700
570C10
581C10
5DE900
570000
570000
ENDCHAR
STARTCHAR gamma
ENCODING 947
SWIDTH 444 0
DWIDTH 4 0
BBX 4 7 0 -2
BITMAP
932A
4765
1BA1
0AA0
0670
0560
0560
ENDCHAR
STARTCHAR delta
ENCODING 948
SWIDTH 498 0
DWIDTH 4 0
BBX 4 7 0 0
BITMAP
0CE3
0C31
1CF7
683D
840C
682C
1BE5
ENDCHAR
STARTCHAR epsilon
ENCODING 949
SWIDTH 470 0
DWIDTH 4 0
BBX 4 5 0 0
BITMAP
3DE5
6724
2FD0
7726
3DE5
ENDCHAR
STARTCHAR zeta
ENCODING 950
SWIDTH 462 0
DWIDTH 4 0
BBX 4 9 0 -2
BITMAP
7FFA
0074
0290
0910
1A00
3A00
0CC2
0067
0052
ENDCHAR
STARTCHAR eta
ENCODING 951
SWIDTH 498 0
DWIDTH 4 0
BBX 4 7 0 -2
BITMAP
6BE7
682C
660C
660C
660C
000C
000C
ENDCHAR
STARTCHAR theta
ENCODING 952
SWIDTH 496 0
DWIDTH 4 0
BBX 4 7 0 0
BITMAP
0BE4
492B
750B
7FFE
750B
492B
0AE4
ENDCHAR
STARTCHAR iota
ENCODING 953
SWIDTH 299 0
DWIDTH 3 0
BBX 3 5 0 0
BITMAP
3900
3900
3900
2A00
1D40
ENDCHAR
STARTCHAR kappa
ENCODING 954
SWIDTH 491 0
DWIDTH 4 0
BBX 4 5 0 0
BITMAP
564A
57C1
5F80
57C2
563B
ENDCHAR
STARTCHAR lambda
ENCODING 955
SWIDTH 485 0
DWIDTH 4 0
BBX 5 7 0 0
BITMAP
4C0000
0B3000
078000
0AD000
1BA400
575900
A31D10
ENDCHAR
STARTCHAR uni03BC
ENCODING 956
SWIDTH 498 0
DWIDTH 4 0
BBX 4 7 0 -2
BITMAP
560C
560C
560C
592C
5EDC
5600
5600
ENDCHAR
STARTCHAR nu
ENCODING 957
SWIDTH 427 0
DWIDTH 4 0
BBX 4 5 0 0
BITMAP
A247
6583
19A0
0A90
0850
ENDCHAR
STARTCHAR xi
ENCODING 958
SWIDTH 431 0
DWIDTH 4 0
BBX 4 9 0 -2
BITMAP
0AE5
4911
3A00
0AF2
6700
7600
2DA2
0078
0053
ENDCHAR
STARTCHAR omicron
ENCODING 959
SWIDTH 501 0
DWIDTH 5 0
BBX 5 5 0 0
BITMAP
1CE600
771D00
930A10
771C00
1CE600
ENDCHAR
STARTCHAR pi
ENCODING 960
SWIDTH 520 0
DWIDTH 5 0
BBX 5 5 0 0
BITMAP
CFFF40
390B00
390B00
390C00
390C70
ENDCHAR
STARTCHAR rho
ENCODING 961
SWIDTH 498 0
DWIDTH 4 0
BBX 4 7 0 -2
BITMAP
0AE5
4A2C
660B
681C
6DE6
6600
6600
ENDCHAR
STARTCHAR sigma1
ENCODING 962
SWIDTH 472 0
DWIDTH 4 0
BBX 4 7 0 -2
BITMAP
1CE3
683A
8401
6900
0AD3
0057
0052
ENDCHAR
STARTCHAR sigma
ENCODING 963
SWIDTH 498 0
DWIDTH 4 0
BBX 5 5 0 0
BITMAP
1BFF50
682900
840B00
682C00
1BE500
ENDCHAR
STARTCHAR tau
ENCODING 964
SWIDTH 460 0
DWIDTH 4 0
BBX 4 5 0 0
BITMAP
9FFB
0560
0560
0570
03E2
ENDCHAR
STARTCHAR upsilon
ENCODING 965
SWIDTH 480 0
DWIDTH 4 0
BBX 4 5 0 0
BITMAP
6639
660C
660C
584B
1CD3
ENDCHAR
STARTCHAR phi
ENCODING 966
SWIDTH 617 0
DWIDTH 6 0
BBX 6 7 0 -2
BITMAP
277E60
74A3C0
93A2A2
69A4D1
1AFD50
00A200
00A200
ENDCHAR
STARTCHAR chi
ENCODING 967
SWIDTH 438 0
DWIDTH 4 0
BBX 5 7 0 -2
BITMAP
B63900
1C9300
09C000
069000
0BC000
2A8500
752D10
ENDCHAR
STARTCHAR psi
ENCODING 968
SWIDTH 612 0
DWIDTH 6 0
BBX 6 7 0 -2
BITMAP
93A2C0
93A1B1
83A1A2
69B4D0
1AFD40
00A100
00A100
ENDCHAR
STARTCHAR omega
ENCODING 969
SWIDTH 711 0
DWIDTH 6 0
BBX 6 5 0 0
BITMAP
2A0048
66250B
75390B
58691B
1CB6C4
ENDCHAR
STARTCHAR iotadieresis
ENCODING 970
SWIDTH 299 0
DWIDTH 3 0
BBX 4 7 -1 0
BITMAP
1928
0000
0390
0390
0390
02A0
01D4
ENDCHAR
STARTCHAR upsilondieresis
ENCODING 971
SWIDTH 480 0
DWIDTH 4 0
BBX 4 7 0 0
BITMAP
3846
0000
6639
660C
660C
584B
1CD3
ENDCHAR
STARTCHAR omicrontonos
ENCODING 972
SWIDTH 501 0
DWIDTH 5 0
BBX 5 8 0 0
BITMAP
00B000
007000
000000
1CE600
771D00
930A10
771C00
1CE600
ENDCHAR
STARTCHAR upsilontonos
ENCODING 973
SWIDTH 480 0
DWIDTH 4 0
BBX 4 8 0 0
BITMAP
01A0
0260
0000
6639
660C
660C
584B
1CD3
ENDCHAR
STARTCHAR omegatonos
ENCODING 974
SWIDTH 711 0
DWIDTH 6 0
BBX 6 8 0 0
BITMAP
000B00
001700
000000
2A0048
66250B
75390B
58691B
1CB6C4
ENDCHAR
STARTCHAR theta1
ENCODING 977
SWIDTH 507 0
DWIDTH 5 0
BBX 5 7 0 0
BITMAP
05E700
0A3C00
087C00
54BF40
740C00
682B00
1CE400
ENDCHAR
STARTCHAR Upsilon1
ENCODING 978
SWIDTH 465 0
DWIDTH 4 0
BBX 5 7 0 0
BITMAP
D20C20
685900
1CA300
09C000
058000
048000
048000
ENDCHAR
STARTCHAR omega1
ENCODING 982
SWIDTH 678 0
DWIDTH 6 0
BBX 6 5 0 0
BITMAP
9FFFFD
480066
665738
587967
1DB9E2
ENDCHAR
STARTCHAR uni0400
ENCODING 1024
SWIDTH 496 0
DWIDTH 4 0
BBX 5 10 0 0
BITMAP
0B4000
029000
000000
5FFF10
580000
580000
5FFB00
580000
580000
5FFF20
ENDCHAR
STARTCHAR uni0401
ENCODING 1025
SWIDTH 496 0
DWIDTH 4 0
BBX 5 9 0 0
BITMAP
0A1A00
000000
5FFF10
580000
580000
5FFB00
580000
580000
5FFF20
ENDCHAR
STARTCHAR uni0402
ENCODING 1026
SWIDTH 650 0
DWIDTH 6 0
BBX 6 7 0 0
BITMAP
CFFF60
048000
048000
04EEB1
049186
048076
0485C1
ENDCHAR
STARTCHAR uni0403
ENCODING 1027
SWIDTH 487 0
DWIDTH 4 0
BBX 5 10 0 0
BITMAP
007800
00A100
000000
4FFF10
480000
480000
480000
480000
480000
480000
ENDCHAR
STARTCHAR uni0404
ENCODING 1028
SWIDTH 589 0
DWIDTH 5 0
BBX 5 7 0 0
BITMAP
07EC10
3C1780
660150
7FF600
660150
3B1780
07EB10
ENDCHAR
STARTCHAR uni0405
ENCODING 1029
SWIDTH 518 0
DWIDTH 5 0
BBX 5 7 0 0
BITMAP
1BE600
681B20
490210
07C600
210B20
771A30
0AEA00
ENDCHAR
STARTCHAR uni0406
ENCODING 1030
SWIDTH 250 0
DWIDTH 2 0
BBX 2 7 0 0
BITMAP
48
48
48
48
48
48
48
ENDCHAR
STARTCHAR uni0407
ENCODING 1031
SWIDTH 250 0
DWIDTH 2 0
BBX 4 9 -1 0
BITMAP
3846
0000
0480
0480
0480
0480
0480
0480
0480
ENDCHAR
STARTCHAR uni0408
ENCODING 1032
SWIDTH 483 0
DWIDTH 4 0
BBX 4 7 0 0
BITMAP
002B
002B
002B
002B
002B
9459
4ED3
ENDCHAR
STARTCHAR uni0409
ENCODING 1033
SWIDTH 923 0
DWIDTH 8 0
BBX 8 7 0 0
BITMAP
09FFC000
0930C000
0A20C000
0A20FFD5
0B10C02C
1D00C02C
B700FFE5
ENDCHAR
STARTCHAR uni040A
ENCODING 1034
SWIDTH 927 0
DWIDTH 8 0
BBX 8 7 0 0
BITMAP
4800C000
4800C000
4800C000
4FFFFFE5
4800C02D
4800C02C
4800FFE5
ENDCHAR
STARTCHAR uni040B
ENCODING 1035
SWIDTH 705 0
DWIDTH 6 0
BBX 6 7 0 0
BITMAP
AFFF80
039000
039000
03EED2
03A168
039039
039039
ENDCHAR
STARTCHAR uni040C
ENCODING 1036
SWIDTH 544 0
DWIDTH 5 0
BBX 5 10 0 0
BITMAP
008600
00A000
000000
580960
584A00
58C100
5EC000
5A7700
581C10
580690
ENDCHAR
STARTCHAR uni040D
ENCODING 1037
SWIDTH 619 0
DWIDTH 6 0
BBX 5 10 0 0
BITMAP
04A000
00A100
000000
4803C0
480AC0
4829C0
4892C0
49A0C0
4F30C0
4B00C0
ENDCHAR
STARTCHAR uni040E
ENCODING 1038
SWIDTH 547 0
DWIDTH 5 0
BBX 5 8 0 0
BITMAP
0B1A00
6CEC70
1B0B20
0B3C00
05B700
01E200
01C000
0D5000
ENDCHAR
STARTCHAR uni040F
ENCODING 1039
SWIDTH 621 0
DWIDTH 6 0
BBX 5 9 0 -2
BITMAP
4800C0
4800C0
4800C0
4800C0
4800C0
4800C0
4FFFD0
009300
009300
ENDCHAR
STARTCHAR uni0410
ENCODING 1040
SWIDTH 576 0
DWIDTH 5 0
BBX 5 7 0 0
BITMAP
00D100
03C600
073A00
0A0A00
1FFF40
660380
A200C0
ENDCHAR
STARTCHAR uni0411
ENCODING 1041
SWIDTH 549 0
DWIDTH 5 0
BBX 5 7 0 0
BITMAP
5FFF00
570000
570000
5FFC20
570680
570680
5FFC20
ENDCHAR
STARTCHAR uni0412
ENCODING 1042
SWIDTH 545 0
DWIDTH 5 0
BBX 5 7 0 0
BITMAP
5FFA00
580A30
580B20
5FFB00
580940
580950
5FFB00
ENDCHAR
STARTCHAR uni0413
ENCODING 1043
SWIDTH 487 0
DWIDTH 4 0
BBX 5 7 0 0
BITMAP
4FFF10
480000
480000
480000
480000
480000
480000
ENDCHAR
STARTCHAR uni0414
ENCODING 1044
SWIDTH 660 0
DWIDTH 6 0
BBX 6 9 0 -2
BITMAP
06FFD0
0750C0
0850C0
0940C0
0B10C0
1B00C0
BFFFFA
B1003A
B1003A
ENDCHAR
STARTCHAR uni0415
ENCODING 1045
SWIDTH 496 0
DWIDTH 4 0
BBX 5 7 0 0
BITMAP
5FFF10
580000
580000
5FFB00
580000
580000
5FFF20
ENDCHAR
STARTCHAR uni0416
ENCODING 1046
SWIDTH 791 0
DWIDTH 7 0
BBX 7 7 0 0
BITMAP
680C0590
0C0C0B20
076C3900
03FFF500
096C3C00
2D0C0B40
970C04B0
ENDCHAR
STARTCHAR uni0417
ENCODING 1047
SWIDTH 517 0
DWIDTH 5 0
BBX 5 7 0 0
BITMAP
1CE800
661C20
001B10
04F900
000B20
861B30
2CE900
ENDCHAR
STARTCHAR uni0418
ENCODING 1048
SWIDTH 619 0
DWIDTH 6 0
BBX 5 7 0 0
BITMAP
4803C0
480AC0
4829C0
4892C0
49A0C0
4F30C0
4B00C0
ENDCHAR
STARTCHAR uni0419
ENCODING 1049
SWIDTH 619 0
DWIDTH 6 0
BBX 5 8 0 0
BITMAP
074A10
4ADCC0
480AC0
4829C0
4892C0
49A0C0
4F30C0
4B00C0
ENDCHAR
STARTCHAR uni041A
ENCODING 1050
SWIDTH 560 0
DWIDTH 5 0
BBX 5 7 0 0
BITMAP
480780
482D10
48A500
4FE000
488700
481D20
4805A0
ENDCHAR
STARTCHAR uni041B
ENCODING 1051
SWIDTH 615 0
DWIDTH 6 0
BBX 5 7 0 0
BITMAP
09FFC0
0930C0
0A20C0
0A20C0
0B10C0
1D00C0
B700C0
ENDCHAR
STARTCHAR uni041C
ENCODING 1052
SWIDTH 755 0
DWIDTH 7 0
BBX 7 7 0 0
BITMAP
5D001F20
5F306F20
5B70AB20
58B0BA20
57A57B20
586D2B20
581D0B20
ENDCHAR
STARTCHAR uni041D
ENCODING 1053
SWIDTH 620 0
DWIDTH 6 0
BBX 5 7 0 0
BITMAP
5800C0
5800C0
5800C0
5FFFD0
5800C0
5800C0
5800C0
ENDCHAR
STARTCHAR uni041E
ENCODING 1054
SWIDTH 600 0
DWIDTH 5 0
BBX 5 7 0 0
BITMAP
08EC20
3B1690
6600C0
7500C0
6600C0
3B1690
08EC20
ENDCHAR
STARTCHAR uni041F
ENCODING 1055
SWIDTH 620 0
DWIDTH 6 0
BBX 5 7 0 0
BITMAP
4FFFD0
4800C0
4800C0
4800C0
4800C0
4800C0
4800C0
ENDCHAR
STARTCHAR uni0420
ENCODING 1056
SWIDTH 554 0
DWIDTH 5 0
BBX 5 7 0 0
BITMAP
5FFC20
580680
580680
5FFC20
580000
580000
580000
ENDCHAR
STARTCHAR uni0421
ENCODING 1057
SWIDTH 566 0
DWIDTH 5 0
BBX 5 7 0 0
BITMAP
08EB10
3B1670
660140
750000
660140
3B1670
08EB10
ENDCHAR
STARTCHAR uni0422
ENCODING 1058
SWIDTH 520 0
DWIDTH 5 0
BBX 5 7 0 0
BITMAP
BFFF70
01B000
01B000
01B000
01B000
01B000
01B000
ENDCHAR
STARTCHAR uni0423
ENCODING 1059
SWIDTH 547 0
DWIDTH 5 0
BBX 5 7 0 0
BITMAP
670770
1B0B20
0B3C00
05B700
01E200
01C000
0D5000
ENDCHAR
STARTCHAR uni0424
ENCODING 1060
SWIDTH 676 0
DWIDTH 6 0
BBX 6 7 0 0
BITMAP
005700
0AFFB1
685778
93571B
685778
09FFB1
005700
ENDCHAR
STARTCHAR uni0425
ENCODING 1061
SWIDTH 550 0
DWIDTH 5 0
BBX 5 7 0 0
BITMAP
680860
1C1C00
07C700
02F100
07B700
1C1D10
770860
ENDCHAR
STARTCHAR uni0426
ENCODING 1062
SWIDTH 639 0
DWIDTH 6 0
BBX 6 9 0 -2
BITMAP
4800C0
4800C0
4800C0
4800C0
4800C0
4800C0
4FFFF6
000066
000065
ENDCHAR
STARTCHAR uni0427
ENCODING 1063
SWIDTH 600 0
DWIDTH 5 0
BBX 5 7 0 0
BITMAP
6602A0
6602A0
6602A0
4A04A0
0AEDA0
0002A0
0002A0
ENDCHAR
STARTCHAR uni0428
ENCODING 1064
SWIDTH 814 0
DWIDTH 7 0
BBX 7 7 0 0
BITMAP
480B1390
480B1390
480B1390
480B1390
480B1390
480B1390
4FFFFF90
ENDCHAR
STARTCHAR uni0429
ENCODING 1065
SWIDTH 841 0
DWIDTH 8 0
BBX 8 9 0 -2
BITMAP
480B1390
480B1390
480B1390
480B1390
480B1390
480B1390
4FFFFFF2
00000092
00000091
ENDCHAR
STARTCHAR uni042A
ENCODING 1066
SWIDTH 651 0
DWIDTH 6 0
BBX 6 7 0 0
BITMAP
CF6000
066000
066000
06FFC1
066077
066076
06FFC1
ENDCHAR
STARTCHAR uni042B
ENCODING 1067
SWIDTH 755 0
DWIDTH 7 0
BBX 6 7 0 0
BITMAP
48000C
48000C
48000C
4FFD2C
48059C
48059C
4FFC2C
ENDCHAR
STARTCHAR uni042C
ENCODING 1068
SWIDTH 551 0
DWIDTH 5 0
BBX 5 7 0 0
BITMAP
570000
570000
570000
5FFC20
570680
570680
5FFC20
ENDCHAR
STARTCHAR uni042D
ENCODING 1069
SWIDTH 589 0
DWIDTH 5 0
BBX 5 7 0 0
BITMAP
08EB10
3B1780
1201B0
01FFC0
1201C0
3B1780
08EB10
ENDCHAR
STARTCHAR uni042E
ENCODING 1070
SWIDTH 765 0
DWIDTH 7 0
BBX 7 7 0 0
BITMAP
481CE900
48871A50
48B10480
4FF10480
48B10480
48871A50
481BE900
ENDCHAR
STARTCHAR uni042F
ENCODING 1071
SWIDTH 562 0
DWIDTH 5 0
BBX 5 7 0 0
BITMAP
09FF40
3B0840
570840
3B0840
09FF40
0B2840
580840
ENDCHAR
STARTCHAR uni0430
ENCODING 1072
SWIDTH 479 0
DWIDTH 4 0
BBX 4 5 0 0
BITMAP
1CE5
243A
2CFA
773A
3EBC
ENDCHAR
STARTCHAR uni0431
ENCODING 1073
SWIDTH 484 0
DWIDTH 4 0
BBX 4 7 0 0
BITMAP
0178
1930
5CE6
872C
840C
682C
1BE5
ENDCHAR
STARTCHAR uni0432
ENCODING 1074
SWIDTH 503 0
DWIDTH 5 0
BBX 4 5 0 0
BITMAP
5FE8
562C
5FF9
561D
5FFA
ENDCHAR
STARTCHAR uni0433
ENCODING 1075
SWIDTH 371 0
DWIDTH 3 0
BBX 4 5 0 0
BITMAP
5FF3
5600
5600
5600
5600
ENDCHAR
STARTCHAR uni0434
ENCODING 1076
SWIDTH 536 0
DWIDTH 5 0
BBX 5 6 0 -1
BITMAP
0BFE00
0B1C00
0C0C00
2A0C00
BFFF80
B00480
ENDCHAR
STARTCHAR uni0435
ENCODING 1077
SWIDTH 468 0
DWIDTH 4 0
BBX 4 5 0 0
BITMAP
1CE4
762B
8FFD
7601
2CE7
ENDCHAR
STARTCHAR uni0436
ENCODING 1078
SWIDTH 662 0
DWIDTH 6 0
BBX 6 5 0 0
BITMAP
776586
1C76C0
09FF80
1C76C1
966578
ENDCHAR
STARTCHAR uni0437
ENCODING 1079
SWIDTH 446 0
DWIDTH 4 0
BBX 4 5 0 0
BITMAP
3DD3
3377
0AF3
4368
3DE3
ENDCHAR
STARTCHAR uni0438
ENCODING 1080
SWIDTH 509 0
DWIDTH 5 0
BBX 4 5 0 0
BITMAP
562D
568D
578C
5D2C
5A0C
ENDCHAR
STARTCHAR uni0439
ENCODING 1081
SWIDTH 509 0
DWIDTH 5 0
BBX 4 8 0 0
BITMAP
0B38
08E3
0000
562D
568D
578C
5D2C
5A0C
ENDCHAR
STARTCHAR uni043A
ENCODING 1082
SWIDTH 479 0
DWIDTH 4 0
BBX 4 5 0 0
BITMAP
573A
57B1
5F90
57C3
572C
ENDCHAR
STARTCHAR uni043B
ENCODING 1083
SWIDTH 509 0
DWIDTH 5 0
BBX 4 5 0 0
BITMAP
0DFE
0C0C
0C0C
2B0C
B50C
ENDCHAR
STARTCHAR uni043C
ENCODING 1084
SWIDTH 645 0
DWIDTH 6 0
BBX 6 5 0 0
BITMAP
5C00E2
5E25E2
5A79A2
56AA92
568592
ENDCHAR
STARTCHAR uni043D
ENCODING 1085
SWIDTH 508 0
DWIDTH 5 0
BBX 4 5 0 0
BITMAP
570C
570C
5FFE
570C
570C
ENDCHAR
STARTCHAR uni043E
ENCODING 1086
SWIDTH 501 0
DWIDTH 5 0
BBX 5 5 0 0
BITMAP
1CE600
771D00
930A10
771C00
1CE600
ENDCHAR
STARTCHAR uni043F
ENCODING 1087
SWIDTH 509 0
DWIDTH 5 0
BBX 4 5 0 0
BITMAP
5FFE
570C
570C
570C
570C
ENDCHAR
STARTCHAR uni0440
ENCODING 1088
SWIDTH 493 0
DWIDTH 4 0
BBX 4 7 0 -2
BITMAP
6CE7
671D
650B
671D
6CE7
6500
6500
ENDCHAR
STARTCHAR uni0441
ENCODING 1089
SWIDTH 461 0
DWIDTH 4 0
BBX 4 5 0 0
BITMAP
2CE4
762B
9300
762A
2CE3
ENDCHAR
STARTCHAR uni0442
ENCODING 1090
SWIDTH 424 0
DWIDTH 4 0
BBX 4 5 0 0
BITMAP
CFF9
0740
0740
0740
0740
ENDCHAR
STARTCHAR uni0443
ENCODING 1091
SWIDTH 416 0
DWIDTH 4 0
BBX 4 7 0 -2
BITMAP
B267
6592
29B0
0B90
0850
0B10
9900
ENDCHAR
STARTCHAR uni0444
ENCODING 1092
SWIDTH 628 0
DWIDTH 6 0
BBX 6 9 0 -2
BITMAP
009300
009300
1DFE90
6793C1
849393
7793C2
2DFEA0
009300
009300
ENDCHAR
STARTCHAR uni0445
ENCODING 1093
SWIDTH 438 0
DWIDTH 4 0
BBX 4 5 0 0
BITMAP
7676
1BB0
0980
1BB0
8567
ENDCHAR
STARTCHAR uni0446
ENCODING 1094
SWIDTH 524 0
DWIDTH 5 0
BBX 5 6 0 -1
BITMAP
570C00
570C00
570C00
570C00
5FFF60
000550
ENDCHAR
STARTCHAR uni0447
ENCODING 1095
SWIDTH 479 0
DWIDTH 4 0
BBX 4 5 0 0
BITMAP
842A
842A
763A
2DEA
002A
ENDCHAR
STARTCHAR uni0448
ENCODING 1096
SWIDTH 703 0
DWIDTH 6 0
BBX 6 5 0 0
BITMAP
57482A
57482A
57482A
57482A
5FFFFA
ENDCHAR
STARTCHAR uni0449
ENCODING 1097
SWIDTH 722 0
DWIDTH 7 0
BBX 7 6 0 -1
BITMAP
66482900
66482900
66482900
66482900
6FFFFF30
00000820
ENDCHAR
STARTCHAR uni044A
ENCODING 1098
SWIDTH 538 0
DWIDTH 5 0
BBX 5 5 0 0
BITMAP
CF2000
0A2000
0AFE30
0A2680
0AFE30
ENDCHAR
STARTCHAR uni044B
ENCODING 1099
SWIDTH 679 0
DWIDTH 6 0
BBX 6 5 0 0
BITMAP
560075
560075
5FF775
562C75
5FF775
ENDCHAR
STARTCHAR uni044C
ENCODING 1100
SWIDTH 478 0
DWIDTH 4 0
BBX 4 5 0 0
BITMAP
5600
5600
5FF7
562C
5FF7
ENDCHAR
STARTCHAR uni044D
ENCODING 1101
SWIDTH 472 0
DWIDTH 4 0
BBX 4 5 0 0
BITMAP
2DD2
4349
06FB
6549
2DD2
ENDCHAR
STARTCHAR uni044E
ENCODING 1102
SWIDTH 706 0
DWIDTH 6 0
BBX 6 5 0 0
BITMAP
562CE4
56962C
5FF20C
56962C
562CE4
ENDCHAR
STARTCHAR uni044F
ENCODING 1103
SWIDTH 482 0
DWIDTH 4 0
BBX 4 5 0 0
BITMAP
3DFA
861A
3EFA
2B1A
841A
ENDCHAR
STARTCHAR uni0450
ENCODING 1104
SWIDTH 468 0
DWIDTH 4 0
BBX 4 8 0 0
BITMAP
1D20
0560
0000
1CE4
762B
8FFD
7601
2CE7
ENDCHAR
STARTCHAR uni0451
ENCODING 1105
SWIDTH 468 0
DWIDTH 4 0
BBX 4 7 0 0
BITMAP
2837
0000
1CE4
762B
8FFD
7601
2CE7
ENDCHAR
STARTCHAR uni0452
ENCODING 1106
SWIDTH 482 0
DWIDTH 4 0
BBX 4 10 0 -2
BITMAP
6500
FF60
6500
6CE6
682B
650C
650C
650C
001B
00C6
ENDCHAR
STARTCHAR uni0453
ENCODING 1107
SWIDTH 371 0
DWIDTH 3 0
BBX 4 8 0 0
BITMAP
03B0
0830
0000
5FF3
5600
5600
5600
5600
ENDCHAR
STARTCHAR uni0454
ENCODING 1108
SWIDTH 472 0
DWIDTH 4 0
BBX 4 5 0 0
BITMAP
1BE5
6729
8F90
6727
1BE5
ENDCHAR
STARTCHAR uni0455
ENCODING 1109
SWIDTH 455 0
DWIDTH 4 0
BBX 4 5 0 0
BITMAP
2DE4
5A44
09E4
4449
3DE4
ENDCHAR
STARTCHAR uni0456
ENCODING 1110
SWIDTH 229 0
DWIDTH 2 0
BBX 2 7 0 0
BITMAP
45
00
56
56
56
56
56
ENDCHAR
STARTCHAR uni0457
ENCODING 1111
SWIDTH 234 0
DWIDTH 2 0
BBX 4 7 -1 0
BITMAP
3755
0000
0560
0560
0560
0560
0560
ENDCHAR
STARTCHAR uni0458
ENCODING 1112
SWIDTH 223 0
DWIDTH 2 0
BBX 3 9 -1 -2
BITMAP
0540
0000
0660
0660
0660
0660
0660
0750
1E20
ENDCHAR
STARTCHAR uni0459
ENCODING 1113
SWIDTH 729 0
DWIDTH 7 0
BBX 7 5 0 0
BITMAP
0DFC0000
0C0C0000
0B0FFC10
2B0C0B30
B50FFB00
ENDCHAR
STARTCHAR uni045A
ENCODING 1114
SWIDTH 743 0
DWIDTH 7 0
BBX 7 5 0 0
BITMAP
570C0000
570C0000
5FFFFC10
570C0950
570DFD10
ENDCHAR
STARTCHAR uni045B
ENCODING 1115
SWIDTH 499 0
DWIDTH 4 0
BBX 4 8 0 0
BITMAP
6500
EF70
6500
6CE6
682B
650C
650C
650C
ENDCHAR
STARTCHAR uni045C
ENCODING 1116
SWIDTH 479 0
DWIDTH 4 0
BBX 4 8 0 0
BITMAP
00C3
0280
0000
573A
57B1
5F90
57C3
572C
ENDCHAR
STARTCHAR uni045D
ENCODING 1117
SWIDTH 509 0
DWIDTH 5 0
BBX 4 8 0 0
BITMAP
0C30
0380
0000
562D
568D
578C
5D2C
5A0C
ENDCHAR
STARTCHAR uni045E
ENCODING 1118
SWIDTH 416 0
DWIDTH 4 0
BBX 4 10 0 -2
BITMAP
4783
1CB0
0000
B267
6592
29B0
0B90
0850
0B10
9900
ENDCHAR
STARTCHAR uni045F
ENCODING 1119
SWIDTH 509 0
DWIDTH 5 0
BBX 4 7 0 -2
BITMAP
570C
570C
570C
570C
5FFE
01A0
01A0
ENDCHAR
STARTCHAR uni0460
ENCODING 1120
SWIDTH 754 0
DWIDTH 7 0
BBX 7 7 0 0
BITMAP
570D0930
570D0930
570D0930
570D0930
570D0930
494F1C20
1CD6EA00
ENDCHAR
STARTCHAR uni0461
ENCODING 1121
SWIDTH 650 0
DWIDTH 6 0
BBX 6 5 0 0
BITMAP
747566
747566
747566
779785
2EBCD1
ENDCHAR
STARTCHAR uni0462
ENCODING 1122
SWIDTH 551 0
DWIDTH 5 0
BBX 6 7 -1 0
BITMAP
057000
2FF400
057000
05FFC2
057068
057068
05FFC2
ENDCHAR
STARTCHAR uni0463
ENCODING 1123
SWIDTH 477 0
DWIDTH 4 0
BBX 5 7 -1 0
BITMAP
056000
1FF900
056000
05FE60
0561C0
0561C0
05FE50
ENDCHAR
STARTCHAR uni0464
ENCODING 1124
SWIDTH 772 0
DWIDTH 7 0
BBX 7 7 0 0
BITMAP
481BE800
48871B30
48B10210
4FFFF000
48C10210
48871B30
481BE800
ENDCHAR
STARTCHAR uni0465
ENCODING 1125
SWIDTH 646 0
DWIDTH 6 0
BBX 6 5 0 0
BITMAP
565EC1
56C264
5FFF60
56C253
565EB1
ENDCHAR
STARTCHAR uni0466
ENCODING 1126
SWIDTH 526 0
DWIDTH 5 0
BBX 5 7 0 0
BITMAP
00E100
04E400
087800
0B0B00
1FFF10
57C750
93C390
ENDCHAR
STARTCHAR uni0467
ENCODING 1127
SWIDTH 470 0
DWIDTH 4 0
BBX 4 5 0 0
BITMAP
0690
0BB0
1A83
6FF8
B78C
ENDCHAR
STARTCHAR uni0468
ENCODING 1128
SWIDTH 759 0
DWIDTH 7 0
BBX 7 7 0 0
BITMAP
3901E000
3905E300
39097700
390C1B00
3FFFFF10
3966C840
39A2C490
ENDCHAR
STARTCHAR uni0469
ENCODING 1129
SWIDTH 654 0
DWIDTH 6 0
BBX 6 5 0 0
BITMAP
480C30
481C80
4865C0
4FFFF3
49BA78
ENDCHAR
STARTCHAR uni046A
ENCODING 1130
SWIDTH 747 0
DWIDTH 7 0
BBX 7 7 0 0
BITMAP
0AFFF600
02A0B100
00A87000
0BFFF800
591C1D10
660C0B20
660C0B20
ENDCHAR
STARTCHAR uni046B
ENCODING 1131
SWIDTH 645 0
DWIDTH 6 0
BBX 6 5 0 0
BITMAP
09FF70
029A10
0CFF90
4975B2
667593
ENDCHAR
STARTCHAR uni046C
ENCODING 1132
SWIDTH 980 0
DWIDTH 9 0
BBX 9 7 0 0
BITMAP
4808FFF800
4801B0B100
4800988000
4FFFFFF900
482B1C1C20
48480C0930
48480C0930
ENDCHAR
STARTCHAR uni046D
ENCODING 1133
SWIDTH 856 0
DWIDTH 8 0
BBX 8 5 0 0
BITMAP
560BFF50
56039A00
5FFFFF80
565794C0
567593B1
ENDCHAR
STARTCHAR uni046E
ENCODING 1134
SWIDTH 454 0
DWIDTH 4 0
BBX 4 12 0 -2
BITMAP
0A91
0680
0000
7FB0
0095
0084
0EC0
0075
0076
6EC1
9200
3600
ENDCHAR
STARTCHAR uni046F
ENCODING 1135
SWIDTH 423 0
DWIDTH 4 0
BBX 4 10 0 -2
BITMAP
28A0
0A40
0000
7FC1
00A3
0ED1
0095
5EC1
9300
3600
ENDCHAR
STARTCHAR uni0470
ENCODING 1136
SWIDTH 600 0
DWIDTH 5 0
BBX 5 7 0 0
BITMAP
93C0C0
93C0C0
93C0C0
69C4B0
1AFC20
00C000
00C000
ENDCHAR
STARTCHAR uni0471
ENCODING 1137
SWIDTH 612 0
DWIDTH 6 0
BBX 6 7 0 -2
BITMAP
93A2C0
93A1B1
83A1A2
69B4D0
1AFD40
00A100
00A100
ENDCHAR
STARTCHAR uni0472
ENCODING 1138
SWIDTH 593 0
DWIDTH 5 0
BBX 5 7 0 0
BITMAP
08EB10
3B1770
7501B0
8FFFC0
7501B0
3B1780
08EB10
ENDCHAR
STARTCHAR uni0473
ENCODING 1139
SWIDTH 497 0
DWIDTH 4 0
BBX 5 5 0 0
BITMAP
1BE500
671D00
8FFF10
671C00
1BE500
ENDCHAR
STARTCHAR uni0474
ENCODING 1140
SWIDTH 553 0
DWIDTH 5 0
BBX 5 7 0 0
BITMAP
B203A0
760940
390C00
0B1A00
096600
05D200
01D000
ENDCHAR
STARTCHAR uni0475
ENCODING 1141
SWIDTH 443 0
DWIDTH 4 0
BBX 4 5 0 0
BITMAP
923C
5685
19B1
0AA0
0760
ENDCHAR
STARTCHAR uni0476
ENCODING 1142
SWIDTH 553 0
DWIDTH 5 0
BBX 5 10 0 0
BITMAP
4BB000
0A9100
000000
B203A0
760940
390C00
0B1A00
096600
05D200
01D000
ENDCHAR
STARTCHAR uni0477
ENCODING 1143
SWIDTH 443 0
DWIDTH 4 0
BBX 4 8 0 0
BITMAP
AB60
2A90
0000
923C
5685
19B1
0AA0
0760
ENDCHAR
STARTCHAR uni0478
ENCODING 1144
SWIDTH 1017 0
DWIDTH 9 0
BBX 9 9 0 -2
BITMAP
08EC200000
3B16900000
6600C480C0
7500C1B390
6600C0A740
3B16906D10
08EC202B00
0000006700
000003D100
ENDCHAR
STARTCHAR uni0479
ENCODING 1145
SWIDTH 918 0
DWIDTH 8 0
BBX 8 7 0 -2
BITMAP
1CE63A0C
771D0B1A
930A1976
771C05E2
1CE601D0
00000490
00001E20
ENDCHAR
STARTCHAR uni047A
ENCODING 1146
SWIDTH 593 0
DWIDTH 5 0
BBX 5 9 0 -1
BITMAP
006000
08FB10
3B5780
7501B0
8400C0
7501B0
4B5780
08FC10
006100
ENDCHAR
STARTCHAR uni047B
ENCODING 1147
SWIDTH 498 0
DWIDTH 4 0
BBX 5 7 0 -1
BITMAP
015000
1CF600
684D00
830B10
685D00
1CF600
014000
ENDCHAR
STARTCHAR uni047C
ENCODING 1148
SWIDTH 752 0
DWIDTH 7 0
BBX 7 10 0 0
BITMAP
008C2000
0094D000
00090000
0B205900
49000C10
57000A30
570C0A30
570C0A30
493E1C10
0BE8E900
ENDCHAR
STARTCHAR uni047D
ENCODING 1149
SWIDTH 654 0
DWIDTH 6 0
BBX 6 8 0 0
BITMAP
00D910
0277A0
003600
2B00C1
660085
755466
679785
2DBCD1
ENDCHAR
STARTCHAR uni047E
ENCODING 1150
SWIDTH 754 0
DWIDTH 7 0
BBX 7 9 0 0
BITMAP
01FFF000
000B0000
570D0930
570D0930
570D0930
570D0930
570D0930
494F1C20
1CE8EA00
ENDCHAR
STARTCHAR uni047F
ENCODING 1151
SWIDTH 650 0
DWIDTH 6 0
BBX 6 8 0 0
BITMAP
08FF80
006400
000000
747566
747566
747566
779785
2EBCD1
ENDCHAR
STARTCHAR uni0480
ENCODING 1152
SWIDTH 570 0
DWIDTH 5 0
BBX 5 9 0 -2
BITMAP
08EB10
4B1770
760010
850000
760000
4B1000
09F100
00B100
00B100
ENDCHAR
STARTCHAR uni0481
ENCODING 1153
SWIDTH 472 0
DWIDTH 4 0
BBX 4 7 0 -2
BITMAP
1CE4
6728
8400
6800
1C90
0290
0290
ENDCHAR
STARTCHAR uni0482
ENCODING 1154
SWIDTH 547 0
DWIDTH 5 0
BBX 5 6 0 0
BITMAP
010910
03A800
009930
498000
09A200
191100
ENDCHAR
STARTCHAR uni0483
ENCODING 1155
SWIDTH 0 0
DWIDTH 0 0
BBX 4 3 -4 5
BITMAP
0032
6FF5
3200
ENDCHAR
STARTCHAR uni0484
ENCODING 1156
SWIDTH 0 0
DWIDTH 0 0
BBX 4 2 -4 6
BITMAP
04D4
4C38
ENDCHAR
STARTCHAR uni0485
ENCODING 1157
SWIDTH 0 0
DWIDTH 0 0
BBX 2 1 -3 6
BITMAP
35
ENDCHAR
STARTCHAR uni0486
ENCODING 1158
SWIDTH 0 0
DWIDTH 0 0
BBX 1 1 -2 6
BITMAP
80
ENDCHAR
STARTCHAR uni0488
ENCODING 1160
SWIDTH 0 0
DWIDTH 0 0
BBX 9 10 -7 -3
BITMAP
0001D30000
0002230000
08A0006B00
0440004400
4D00000990
3310000440
0890007B00
0440003400
0001D30000
0002230000
ENDCHAR
STARTCHAR uni0489
ENCODING 1161
SWIDTH 0 0
DWIDTH 0 0
BBX 9 9 -7 -2
BITMAP
0000800000
0340500000
0060007500
0000001000
4900000840
0000000000
0010006000
0480504300
0000800000
ENDCHAR
STARTCHAR uni048A
ENCODING 1162
SWIDTH 666 0
DWIDTH 6 0
BBX 6 9 0 -1
BITMAP
048740
48CFD0
480AC0
4829C0
4892C0
49A0C0
4F30C0
4B00EA
000055
ENDCHAR
STARTCHAR uni048B
ENCODING 1163
SWIDTH 550 0
DWIDTH 5 0
BBX 5 9 0 -1
BITMAP
0B1B00
05E500
000000
562D00
568D00
578C00
5D2C00
5A0CB0
000460
ENDCHAR
STARTCHAR uni048C
ENCODING 1164
SWIDTH 551 0
DWIDTH 5 0
BBX 6 7 -1 0
BITMAP
057000
2FF400
057000
05FFC2
057068
057068
05FFC2
ENDCHAR
STARTCHAR uni048D
ENCODING 1165
SWIDTH 477 0
DWIDTH 4 0
BBX 5 8 -1 0
BITMAP
055000
1FF900
056000
056000
05FE60
0561C0
0561C0
05FE50
ENDCHAR
STARTCHAR uni048E
ENCODING 1166
SWIDTH 557 0
DWIDTH 5 0
BBX 5 7 0 0
BITMAP
5FFC20
580680
580B90
5FFD70
580020
580000
580000
ENDCHAR
STARTCHAR uni048F
ENCODING 1167
SWIDTH 496 0
DWIDTH 4 0
BBX 4 7 0 -2
BITMAP
6CE6
682C
650C
676D
6DEB
6501
6500
ENDCHAR
STARTCHAR uni0490
ENCODING 1168
SWIDTH 479 0
DWIDTH 4 0
BBX 4 9 0 0
BITMAP
0005
000C
5FFF
5700
5700
5700
5700
5700
5700
ENDCHAR
STARTCHAR uni0491
ENCODING 1169
SWIDTH 395 0
DWIDTH 4 0
BBX 4 7 0 0
BITMAP
0031
0093
6FF3
6600
6600
6600
6600
ENDCHAR
STARTCHAR uni0492
ENCODING 1170
SWIDTH 487 0
DWIDTH 4 0
BBX 5 7 0 0
BITMAP
4FFF10
480000
480000
EF6000
480000
480000
480000
ENDCHAR
STARTCHAR uni0493
ENCODING 1171
SWIDTH 371 0
DWIDTH 3 0
BBX 4 5 0 0
BITMAP
5FF3
5600
EF70
5600
5600
ENDCHAR
STARTCHAR uni0494
ENCODING 1172
SWIDTH 539 0
DWIDTH 5 0
BBX 5 8 0 -1
BITMAP
4FFF10
480000
480000
4FE800
481B30
480650
480940
005A00
ENDCHAR
STARTCHAR uni0495
ENCODING 1173
SWIDTH 443 0
DWIDTH 4 0
BBX 4 6 0 -1
BITMAP
6FF2
6600
6FC2
6658
6668
00B2
ENDCHAR
STARTCHAR uni0496
ENCODING 1174
SWIDTH 833 0
DWIDTH 8 0
BBX 8 8 0 -1
BITMAP
680C0590
0C0C0B20
076C3900
03FFF500
096C3C00
2D0C0B40
970C04F5
00000075
ENDCHAR
STARTCHAR uni0497
ENCODING 1175
SWIDTH 696 0
DWIDTH 6 0
BBX 6 6 0 -1
BITMAP
776586
1C76C0
09FF80
1C76C1
96657F
00000B
ENDCHAR
STARTCHAR uni0498
ENCODING 1176
SWIDTH 517 0
DWIDTH 5 0
BBX 5 8 0 -1
BITMAP
1CE800
661C20
001B10
04F900
000B20
861B30
2DF900
01B000
ENDCHAR
STARTCHAR uni0499
ENCODING 1177
SWIDTH 446 0
DWIDTH 4 0
BBX 4 6 0 -1
BITMAP
3DD3
3377
0AF3
4368
3FF3
0660
ENDCHAR
STARTCHAR uni049A
ENCODING 1178
SWIDTH 617 0
DWIDTH 6 0
BBX 6 8 0 -1
BITMAP
480780
482D10
48A500
4FE000
488700
481D20
4805F2
0000A2
ENDCHAR
STARTCHAR uni049B
ENCODING 1179
SWIDTH 524 0
DWIDTH 5 0
BBX 5 6 0 -1
BITMAP
573A00
57B100
5F9000
57C300
572F70
000570
ENDCHAR
STARTCHAR uni049C
ENCODING 1180
SWIDTH 553 0
DWIDTH 5 0
BBX 5 7 0 0
BITMAP
570670
581B10
5A9900
5FF600
5A8C00
580B30
5705A0
ENDCHAR
STARTCHAR uni049D
ENCODING 1181
SWIDTH 498 0
DWIDTH 4 0
BBX 5 5 0 0
BITMAP
560C10
5AA700
5FF300
5A9A00
560C30
ENDCHAR
STARTCHAR uni049E
ENCODING 1182
SWIDTH 570 0
DWIDTH 5 0
BBX 5 7 0 0
BITMAP
390690
EF8D10
399600
3FF100
397800
390C30
3904B0
ENDCHAR
STARTCHAR uni049F
ENCODING 1183
SWIDTH 462 0
DWIDTH 4 0
BBX 5 7 -1 0
BITMAP
057000
4FF200
057490
057B10
05FA00
057B30
0572B0
ENDCHAR
STARTCHAR uni04A0
ENCODING 1184
SWIDTH 710 0
DWIDTH 6 0
BBX 7 7 0 0
BITMAP
AFD02C00
00C0B400
00C5A000
00EF4000
00C3C000
00C09600
00C01D10
ENDCHAR
STARTCHAR uni04A1
ENCODING 1185
SWIDTH 607 0
DWIDTH 5 0
BBX 6 5 0 0
BITMAP
AFA1C1
02AA40
02FD00
02A960
02A1C2
ENDCHAR
STARTCHAR uni04A2
ENCODING 1186
SWIDTH 662 0
DWIDTH 6 0
BBX 6 8 0 -1
BITMAP
5800C0
5800C0
5800C0
5FFFD0
5800C0
5800C0
5800F8
000048
ENDCHAR
STARTCHAR uni04A3
ENCODING 1187
SWIDTH 541 0
DWIDTH 5 0
BBX 5 6 0 -1
BITMAP
570C00
570C00
5FFE00
570C00
570F90
000390
ENDCHAR
STARTCHAR uni04A4
ENCODING 1188
SWIDTH 829 0
DWIDTH 7 0
BBX 8 7 0 0
BITMAP
5800EFF2
5800C000
5800C000
5FFFD000
5800C000
5800C000
5800C000
ENDCHAR
STARTCHAR uni04A5
ENCODING 1189
SWIDTH 614 0
DWIDTH 6 0
BBX 6 5 0 0
BITMAP
660EF2
660C00
6FFD00
660C00
660C00
ENDCHAR
STARTCHAR uni04A6
ENCODING 1190
SWIDTH 880 0
DWIDTH 8 0
BBX 8 8 0 -1
BITMAP
4FFFD000
4800C000
4800C000
4800EE90
4800C1A4
4800C057
4800C085
000004B0
ENDCHAR
STARTCHAR uni04A7
ENCODING 1191
SWIDTH 755 0
DWIDTH 7 0
BBX 7 6 0 -1
BITMAP
6FFD0000
660C0000
660DFA00
660C0860
660C0850
00001B00
ENDCHAR
STARTCHAR uni04A8
ENCODING 1192
SWIDTH 641 0
DWIDTH 6 0
BBX 6 7 0 0
BITMAP
0B5DA0
4986A3
75A275
75A265
668373
2C3790
07EFF6
ENDCHAR
STARTCHAR uni04A9
ENCODING 1193
SWIDTH 528 0
DWIDTH 5 0
BBX 5 5 0 0
BITMAP
2AAC00
77C940
75A740
598910
0BFF70
ENDCHAR
STARTCHAR uni04AA
ENCODING 1194
SWIDTH 566 0
DWIDTH 5 0
BBX 5 8 0 -1
BITMAP
08EB10
3B1670
660140
750000
660140
3B1670
08FB10
00C000
ENDCHAR
STARTCHAR uni04AB
ENCODING 1195
SWIDTH 461 0
DWIDTH 4 0
BBX 4 6 0 -1
BITMAP
2CE5
7629
9300
7617
2FF5
0570
ENDCHAR
STARTCHAR uni04AC
ENCODING 1196
SWIDTH 520 0
DWIDTH 5 0
BBX 5 8 0 -1
BITMAP
BFFF70
01B000
01B000
01B000
01B000
01B000
01F600
006600
ENDCHAR
STARTCHAR uni04AD
ENCODING 1197
SWIDTH 424 0
DWIDTH 4 0
BBX 4 6 0 -1
BITMAP
CFF9
0740
0740
0740
07F0
00C0
ENDCHAR
STARTCHAR uni04AE
ENCODING 1198
SWIDTH 524 0
DWIDTH 5 0
BBX 5 7 0 0
BITMAP
A30860
490C00
0C4800
06D200
01C000
01B000
01B000
ENDCHAR
STARTCHAR uni04AF
ENCODING 1199
SWIDTH 444 0
DWIDTH 4 0
BBX 4 7 0 -2
BITMAP
932A
4765
1BA1
0AA0
0670
0560
0560
ENDCHAR
STARTCHAR uni04B0
ENCODING 1200
SWIDTH 524 0
DWIDTH 5 0
BBX 5 7 0 0
BITMAP
A30860
490C10
0C4900
08E300
0CF800
01B000
01B000
ENDCHAR
STARTCHAR uni04B1
ENCODING 1201
SWIDTH 444 0
DWIDTH 4 0
BBX 4 7 0 -2
BITMAP
9329
4765
0AA0
0990
2FF4
0560
0560
ENDCHAR
STARTCHAR uni04B2
ENCODING 1202
SWIDTH 559 0
DWIDTH 5 0
BBX 5 8 0 -1
BITMAP
680860
1C1C00
07C700
02F100
07B700
1C1D10
7708F0
0000C0
ENDCHAR
STARTCHAR uni04B3
ENCODING 1203
SWIDTH 465 0
DWIDTH 4 0
BBX 4 6 0 -1
BITMAP
7676
1BB0
0980
1BB0
856F
000C
ENDCHAR
STARTCHAR uni04B4
ENCODING 1204
SWIDTH 781 0
DWIDTH 7 0
BBX 7 9 0 -2
BITMAP
BFFC0C00
05700C00
05700C00
05700C00
05700C00
05700C00
05FFFF50
00000750
00000740
ENDCHAR
STARTCHAR uni04B5
ENCODING 1205
SWIDTH 587 0
DWIDTH 5 0
BBX 5 6 0 -1
BITMAP
CFC570
0C0570
0C0570
0C0570
0CFFE0
0000B0
ENDCHAR
STARTCHAR uni04B6
ENCODING 1206
SWIDTH 638 0
DWIDTH 6 0
BBX 6 8 0 -1
BITMAP
6602A0
6602A0
6602A0
4A04A0
0AEDA0
0002A0
0002F5
000075
ENDCHAR
STARTCHAR uni04B7
ENCODING 1207
SWIDTH 512 0
DWIDTH 5 0
BBX 5 6 0 -1
BITMAP
842A00
842A00
763A00
2DEA00
002F50
000750
ENDCHAR
STARTCHAR uni04B8
ENCODING 1208
SWIDTH 595 0
DWIDTH 5 0
BBX 5 7 0 0
BITMAP
6602A0
6602A0
6632A0
4984A0
0BFEA0
0083A0
0012A0
ENDCHAR
STARTCHAR uni04B9
ENCODING 1209
SWIDTH 483 0
DWIDTH 4 0
BBX 4 5 0 0
BITMAP
750B
752B
6A8B
1CFB
015B
ENDCHAR
STARTCHAR uni04BA
ENCODING 1210
SWIDTH 595 0
DWIDTH 5 0
BBX 5 7 0 0
BITMAP
750000
750000
750000
7EFD20
771680
750390
750390
ENDCHAR
STARTCHAR uni04BB
ENCODING 1211
SWIDTH 482 0
DWIDTH 4 0
BBX 4 7 0 0
BITMAP
6500
6500
6CE6
682B
650C
650C
650C
ENDCHAR
STARTCHAR uni04BC
ENCODING 1212
SWIDTH 674 0
DWIDTH 6 0
BBX 6 7 0 0
BITMAP
008E90
13B194
896047
2EFFF9
066000
03B121
008ED2
ENDCHAR
STARTCHAR uni04BD
ENCODING 1213
SWIDTH 518 0
DWIDTH 5 0
BBX 5 5 0 0
BITMAP
07E900
AC1B20
9FFF30
1C1200
08EB10
ENDCHAR
STARTCHAR uni04BE
ENCODING 1214
SWIDTH 674 0
DWIDTH 6 0
BBX 6 8 0 -1
BITMAP
008E90
13B194
896047
2EFFF9
066000
03B121
008FE2
000A20
ENDCHAR
STARTCHAR uni04BF
ENCODING 1215
SWIDTH 518 0
DWIDTH 5 0
BBX 5 6 0 -1
BITMAP
07E900
AC1B20
9FFF30
1C1200
08FC10
00A200
ENDCHAR
STARTCHAR uni04C0
ENCODING 1216
SWIDTH 250 0
DWIDTH 2 0
BBX 2 7 0 0
BITMAP
48
48
48
48
48
48
48
ENDCHAR
STARTCHAR uni04C1
ENCODING 1217
SWIDTH 791 0
DWIDTH 7 0
BBX 7 8 0 0
BITMAP
00A2B000
684F6590
0C0C0B20
076C3900
03FFF500
096C3C00
2D0C0B40
970C04B0
ENDCHAR
STARTCHAR uni04C2
ENCODING 1218
SWIDTH 662 0
DWIDTH 6 0
BBX 6 8 0 0
BITMAP
047830
01CB00
000000
776586
1C76C0
09FF80
1C76C1
966578
ENDCHAR
STARTCHAR uni04C3
ENCODING 1219
SWIDTH 553 0
DWIDTH 5 0
BBX 5 8 0 -1
BITMAP
570860
573B00
57B200
5FFA10
570870
570390
570680
002C20
ENDCHAR
STARTCHAR uni04C4
ENCODING 1220
SWIDTH 481 0
DWIDTH 4 0
BBX 4 6 0 -1
BITMAP
564A
57B1
5FE5
562C
562C
0085
ENDCHAR
STARTCHAR uni04C5
ENCODING 1221
SWIDTH 662 0
DWIDTH 6 0
BBX 6 8 0 -1
BITMAP
09FFC0
0930C0
0A20C0
0A20C0
0B10C0
1D00C0
B700F9
000064
ENDCHAR
STARTCHAR uni04C6
ENCODING 1222
SWIDTH 551 0
DWIDTH 5 0
BBX 5 6 0 -1
BITMAP
0DFE00
0C0C00
0C0C00
2B0C00
B50CB0
000460
ENDCHAR
STARTCHAR uni04C7
ENCODING 1223
SWIDTH 620 0
DWIDTH 6 0
BBX 5 9 0 -2
BITMAP
4800C0
4800C0
4800C0
4FFFD0
4800C0
4800C0
4800C0
0001C0
000B70
ENDCHAR
STARTCHAR uni04C8
ENCODING 1224
SWIDTH 498 0
DWIDTH 4 0
BBX 4 7 0 -2
BITMAP
660C
660C
6FFD
660C
660C
001C
00B8
ENDCHAR
STARTCHAR uni04C9
ENCODING 1225
SWIDTH 671 0
DWIDTH 6 0
BBX 6 8 0 -1
BITMAP
5800C0
5800C0
5800C0
5FFFD0
5800C0
5800C0
5800EA
000055
ENDCHAR
STARTCHAR uni04CA
ENCODING 1226
SWIDTH 550 0
DWIDTH 5 0
BBX 5 6 0 -1
BITMAP
570C00
570C00
5FFE00
570C00
570DB0
000460
ENDCHAR
STARTCHAR uni04CB
ENCODING 1227
SWIDTH 600 0
DWIDTH 5 0
BBX 5 8 0 -1
BITMAP
6602A0
6602A0
6602A0
4A04A0
0AEDA0
0002A0
000EA0
000C00
ENDCHAR
STARTCHAR uni04CC
ENCODING 1228
SWIDTH 479 0
DWIDTH 4 0
BBX 4 6 0 -1
BITMAP
842A
842A
763A
2DEA
00DA
00C0
ENDCHAR
STARTCHAR uni04CD
ENCODING 1229
SWIDTH 801 0
DWIDTH 7 0
BBX 7 8 0 -1
BITMAP
5D001F20
5F306F20
5B70AB20
58B0BA20
57A57B20
586D2B20
581D0BD0
00000280
ENDCHAR
STARTCHAR uni04CE
ENCODING 1230
SWIDTH 687 0
DWIDTH 6 0
BBX 6 6 0 -1
BITMAP
5C00E2
5E25E2
5A79A2
56AA92
56859E
000019
ENDCHAR
STARTCHAR uni04CF
ENCODING 1231
SWIDTH 250 0
DWIDTH 2 0
BBX 2 7 0 0
BITMAP
48
48
48
48
48
48
48
ENDCHAR
STARTCHAR uni04D0
ENCODING 1232
SWIDTH 576 0
DWIDTH 5 0
BBX 5 8 0 0
BITMAP
0A2B00
04F800
03C600
073A00
0A0A00
1FFF40
660380
A200C0
ENDCHAR
STARTCHAR uni04D1
ENCODING 1233
SWIDTH 479 0
DWIDTH 4 0
BBX 4 8 0 0
BITMAP
0B47
09E2
0000
1CE5
243A
2CFA
773A
3EBC
ENDCHAR
STARTCHAR uni04D2
ENCODING 1234
SWIDTH 576 0
DWIDTH 5 0
BBX 5 9 0 0
BITMAP
0A1A00
000000
00D100
03C600
073A00
0A0A00
1FFF40
660380
A200C0
ENDCHAR
STARTCHAR uni04D3
ENCODING 1235
SWIDTH 479 0
DWIDTH 4 0
BBX 4 7 0 0
BITMAP
1938
0000
1CE5
243A
2CFA
773A
3EBC
ENDCHAR
STARTCHAR uni04D4
ENCODING 1236
SWIDTH 812 0
DWIDTH 7 0
BBX 8 7 0 0
BITMAP
001EFFD0
007B5000
00A66000
0645FF90
0DFF7000
57047000
C204FFF2
ENDCHAR
STARTCHAR uni04D5
ENCODING 1237
SWIDTH 728 0
DWIDTH 7 0
BBX 7 5 0 0
BITMAP
3DD9E900
335C1B10
4DFFFF30
955C1100
5EC8EC10
ENDCHAR
STARTCHAR uni04D6
ENCODING 1238
SWIDTH 496 0
DWIDTH 4 0
BBX 5 8 0 0
BITMAP
0B2A00
5FFF10
580000
580000
5FFB00
580000
580000
5FFF20
ENDCHAR
STARTCHAR uni04D7
ENCODING 1239
SWIDTH 468 0
DWIDTH 4 0
BBX 4 8 0 0
BITMAP
1A57
0AD2
0000
1CE4
762B
8FFD
7601
2CE7
ENDCHAR
STARTCHAR uni04D8
ENCODING 1240
SWIDTH 597 0
DWIDTH 5 0
BBX 5 7 0 0
BITMAP
0BEA10
031870
0000B0
9FFFD0
8401C0
491870
09EB10
ENDCHAR
STARTCHAR uni04D9
ENCODING 1241
SWIDTH 465 0
DWIDTH 4 0
BBX 4 5 0 0
BITMAP
3DD3
113A
8FFC
674A
1CD2
ENDCHAR
STARTCHAR uni04DA
ENCODING 1242
SWIDTH 597 0
DWIDTH 5 0
BBX 5 9 0 0
BITMAP
0A1A00
000000
0BEA10
031870
0000B0
9FFFD0
8401C0
491870
09EB10
ENDCHAR
STARTCHAR uni04DB
ENCODING 1243
SWIDTH 465 0
DWIDTH 4 0
BBX 4 7 0 0
BITMAP
2847
0000
3DD3
113A
8FFC
674A
1CD2
ENDCHAR
STARTCHAR uni04DC
ENCODING 1244
SWIDTH 791 0
DWIDTH 7 0
BBX 7 9 0 0
BITMAP
00A1A000
00000000
680C0590
0C0C0B20
076C3900
03FFF500
096C3C00
2D0C0B40
970C04B0
ENDCHAR
STARTCHAR uni04DD
ENCODING 1245
SWIDTH 662 0
DWIDTH 6 0
BBX 6 7 0 0
BITMAP
056640
000000
776586
1C76C0
09FF80
1C76C1
966578
ENDCHAR
STARTCHAR uni04DE
ENCODING 1246
SWIDTH 517 0
DWIDTH 5 0
BBX 5 9 0 0
BITMAP
0A2900
000000
1CE800
661C20
001B10
04F900
000B20
861B30
2CE900
ENDCHAR
STARTCHAR uni04DF
ENCODING 1247
SWIDTH 446 0
DWIDTH 4 0
BBX 4 7 0 0
BITMAP
4665
0000
3DD3
3377
0AF3
4368
3DE3
ENDCHAR
STARTCHAR uni04E0
ENCODING 1248
SWIDTH 510 0
DWIDTH 5 0
BBX 4 7 0 0
BITMAP
5FFD
0066
02A0
07E7
001D
772D
1CE7
ENDCHAR
STARTCHAR uni04E1
ENCODING 1249
SWIDTH 510 0
DWIDTH 5 0
BBX 4 7 0 -2
BITMAP
5FFC
0076
02A0
07E6
001C
671D
1CE6
ENDCHAR
STARTCHAR uni04E2
ENCODING 1250
SWIDTH 619 0
DWIDTH 6 0
BBX 5 7 0 0
BITMAP
4FFFE0
480AC0
4829C0
4892C0
49A0C0
4F30C0
4B00C0
ENDCHAR
STARTCHAR uni04E3
ENCODING 1251
SWIDTH 509 0
DWIDTH 5 0
BBX 4 7 0 0
BITMAP
0FF9
0000
562D
568D
578C
5D2C
5A0C
ENDCHAR
STARTCHAR uni04E4
ENCODING 1252
SWIDTH 619 0
DWIDTH 6 0
BBX 5 9 0 0
BITMAP
073920
000000
4803C0
480AC0
4829C0
4892C0
49A0C0
4F30C0
4B00C0
ENDCHAR
STARTCHAR uni04E5
ENCODING 1253
SWIDTH 509 0
DWIDTH 5 0
BBX 4 7 0 0
BITMAP
1A29
0000
562D
568D
578C
5D2C
5A0C
ENDCHAR
STARTCHAR uni04E6
ENCODING 1254
SWIDTH 600 0
DWIDTH 5 0
BBX 5 9 0 0
BITMAP
082A10
000000
08EC20
3B1690
6600C0
7500C0
6600C0
3B1690
08EC20
ENDCHAR
STARTCHAR uni04E7
ENCODING 1255
SWIDTH 501 0
DWIDTH 5 0
BBX 5 7 0 0
BITMAP
193800
000000
1CE600
771D00
930A10
771C00
1CE600
ENDCHAR
STARTCHAR uni04E8
ENCODING 1256
SWIDTH 593 0
DWIDTH 5 0
BBX 5 7 0 0
BITMAP
08EB10
3B1770
7501B0
8FFFC0
7501B0
3B1780
08EB10
ENDCHAR
STARTCHAR uni04E9
ENCODING 1257
SWIDTH 497 0
DWIDTH 4 0
BBX 5 5 0 0
BITMAP
1BE500
671D00
8FFF10
671C00
1BE500
ENDCHAR
STARTCHAR uni04EA
ENCODING 1258
SWIDTH 593 0
DWIDTH 5 0
BBX 5 9 0 0
BITMAP
083910
000000
08EB10
3B1770
7501B0
8FFFC0
7501B0
3B1780
08EB10
ENDCHAR
STARTCHAR uni04EB
ENCODING 1259
SWIDTH 497 0
DWIDTH 4 0
BBX 5 7 0 0
BITMAP
284700
000000
1BE500
671D00
8FFF10
671C00
1BE500
ENDCHAR
STARTCHAR uni04EC
ENCODING 1260
SWIDTH 589 0
DWIDTH 5 0
BBX 5 9 0 0
BITMAP
091A00
000000
08EB10
3B1780
1201B0
01FFC0
1201C0
3B1780
08EB10
ENDCHAR
STARTCHAR uni04ED
ENCODING 1261
SWIDTH 472 0
DWIDTH 4 0
BBX 4 7 0 0
BITMAP
3846
0000
2DD2
4349
06FB
6549
2DD2
ENDCHAR
STARTCHAR uni04EE
ENCODING 1262
SWIDTH 547 0
DWIDTH 5 0
BBX 5 7 0 0
BITMAP
6FFF70
1B0B20
0B3C00
05B700
01E200
01C000
0D5000
ENDCHAR
STARTCHAR uni04EF
ENCODING 1263
SWIDTH 416 0
DWIDTH 4 0
BBX 4 9 0 -2
BITMAP
4FF4
0000
B267
6592
29B0
0B90
0850
0B10
9900
ENDCHAR
STARTCHAR uni04F0
ENCODING 1264
SWIDTH 547 0
DWIDTH 5 0
BBX 5 9 0 0
BITMAP
0A0A00
000000
670770
1B0B20
0B3C00
05B700
01E200
01C000
0D5000
ENDCHAR
STARTCHAR uni04F1
ENCODING 1265
SWIDTH 416 0
DWIDTH 4 0
BBX 4 9 0 -2
BITMAP
5574
0000
B267
6592
29B0
0B90
0850
0B10
9900
ENDCHAR
STARTCHAR uni04F2
ENCODING 1266
SWIDTH 547 0
DWIDTH 5 0
BBX 5 10 0 0
BITMAP
02BC10
048700
000000
670770
1B0B20
0B3C00
05B700
01E200
01C000
0D5000
ENDCHAR
STARTCHAR uni04F3
ENCODING 1267
SWIDTH 416 0
DWIDTH 4 0
BBX 4 10 0 -2
BITMAP
0997
09A1
0000
B267
6592
29B0
0B90
0850
0B10
9900
ENDCHAR
STARTCHAR uni04F4
ENCODING 1268
SWIDTH 600 0
DWIDTH 5 0
BBX 5 9 0 0
BITMAP
091A00
000000
6602A0
6602A0
6602A0
4A04A0
0AEDA0
0002A0
0002A0
ENDCHAR
STARTCHAR uni04F5
ENCODING 1269
SWIDTH 479 0
DWIDTH 4 0
BBX 4 7 0 0
BITMAP
4755
0000
842A
842A
763A
2DEA
002A
ENDCHAR
STARTCHAR uni04F6
ENCODING 1270
SWIDTH 487 0
DWIDTH 4 0
BBX 5 8 0 -1
BITMAP
4FFF10
480000
480000
480000
480000
480000
4F3000
093000
ENDCHAR
STARTCHAR uni04F7
ENCODING 1271
SWIDTH 371 0
DWIDTH 3 0
BBX 4 6 0 -1
BITMAP
5FF3
5600
5600
5600
5F10
0A10
ENDCHAR
STARTCHAR uni04F8
ENCODING 1272
SWIDTH 755 0
DWIDTH 7 0
BBX 6 9 0 0
BITMAP
00A1A0
000000
48000C
48000C
48000C
4FFD2C
48059C
48059C
4FFC2C
ENDCHAR
STARTCHAR uni04F9
ENCODING 1273
SWIDTH 679 0
DWIDTH 6 0
BBX 6 7 0 0
BITMAP
056640
000000
560075
560075
5FF775
562C75
5FF775
ENDCHAR
STARTCHAR uni04FA
ENCODING 1274
SWIDTH 520 0
DWIDTH 5 0
BBX 5 9 0 -2
BITMAP
0FFF50
0C0000
0C0000
AFB000
0C0000
0C0000
0F8000
067000
1E3000
ENDCHAR
STARTCHAR uni04FB
ENCODING 1275
SWIDTH 410 0
DWIDTH 4 0
BBX 4 7 0 -2
BITMAP
0FF8
AFB0
0C00
0C00
0F70
0670
2E20
ENDCHAR
STARTCHAR uni04FC
ENCODING 1276
SWIDTH 570 0
DWIDTH 5 0
BBX 5 9 0 -2
BITMAP
680860
1C1C00
07C700
02F100
07B700
1C1D10
7708F0
0000C0
000990
ENDCHAR
STARTCHAR uni04FD
ENCODING 1277
SWIDTH 476 0
DWIDTH 4 0
BBX 5 7 0 -2
BITMAP
767600
1BB000
098000
1BB000
856F10
000C00
008A00
ENDCHAR
STARTCHAR uni04FE
ENCODING 1278
SWIDTH 550 0
DWIDTH 5 0
BBX 5 7 0 0
BITMAP
680860
0C1C00
07C600
0AFA00
06B600
0C1C00
770860
ENDCHAR
STARTCHAR uni04FF
ENCODING 1279
SWIDTH 438 0
DWIDTH 4 0
BBX 4 5 0 0
BITMAP
7676
1BB0
3FF3
0AA0
7566
ENDCHAR
STARTCHAR uni0500
ENCODING 1280
SWIDTH 555 0
DWIDTH 5 0
BBX 5 7 0 0
BITMAP
000750
000750
000750
2CFF50
870750
770750
1CFF50
ENDCHAR
STARTCHAR uni0501
ENCODING 1281
SWIDTH 496 0
DWIDTH 4 0
BBX 4 7 0 0
BITMAP
000C
000C
2DDC
762C
930C
762C
2DCC
ENDCHAR
STARTCHAR uni0502
ENCODING 1282
SWIDTH 723 0
DWIDTH 7 0
BBX 7 7 0 0
BITMAP
00076000
00076000
00076000
1CFF6710
77076930
77076B20
1CFFF900
ENDCHAR
STARTCHAR uni0503
ENCODING 1283
SWIDTH 743 0
DWIDTH 7 0
BBX 7 7 0 0
BITMAP
000C0000
000C0000
1CDC0600
682C0A20
840C0920
772D2C00
1DC9E500
ENDCHAR
STARTCHAR uni0504
ENCODING 1284
SWIDTH 685 0
DWIDTH 6 0
BBX 6 7 0 0
BITMAP
BFC100
008600
008533
0FD058
009539
005876
002DB1
ENDCHAR
STARTCHAR uni0505
ENCODING 1285
SWIDTH 562 0
DWIDTH 5 0
BBX 5 5 0 0
BITMAP
BE7000
02C260
6F81B0
01D490
00AD20
ENDCHAR
STARTCHAR uni0506
ENCODING 1286
SWIDTH 470 0
DWIDTH 4 0
BBX 4 8 0 -1
BITMAP
9F90
00B2
01B1
4F90
01C1
0093
008D
0018
ENDCHAR
STARTCHAR uni0507
ENCODING 1287
SWIDTH 443 0
DWIDTH 4 0
BBX 4 6 0 -1
BITMAP
7FB0
01C2
3FB0
00B2
008C
0027
ENDCHAR
STARTCHAR uni0508
ENCODING 1288
SWIDTH 834 0
DWIDTH 8 0
BBX 8 7 0 0
BITMAP
08FFC000
0841C000
0931C060
0931C0B1
0A21C0A1
1D00D2C0
A800AE40
ENDCHAR
STARTCHAR uni0509
ENCODING 1289
SWIDTH 698 0
DWIDTH 6 0
BBX 6 5 0 0
BITMAP
0CFD02
0C0C0B
0C0C0B
1C0D2C
A708E5
ENDCHAR
STARTCHAR uni050A
ENCODING 1290
SWIDTH 864 0
DWIDTH 8 0
BBX 8 7 0 0
BITMAP
5800C000
5800C000
5800C060
5FFFC0A2
5800C092
5800D2C0
58009E50
ENDCHAR
STARTCHAR uni050B
ENCODING 1291
SWIDTH 716 0
DWIDTH 6 0
BBX 7 5 0 0
BITMAP
660C0200
660C0C00
6FFE0B10
660C2C00
6607E500
ENDCHAR
STARTCHAR uni050C
ENCODING 1292
SWIDTH 541 0
DWIDTH 5 0
BBX 5 7 0 0
BITMAP
08EB00
3C1200
760000
850640
760670
3B1950
08EA00
ENDCHAR
STARTCHAR uni050D
ENCODING 1293
SWIDTH 452 0
DWIDTH 4 0
BBX 4 5 0 0
BITMAP
1BE2
6810
8427
6839
1BE3
ENDCHAR
STARTCHAR uni050E
ENCODING 1294
SWIDTH 616 0
DWIDTH 6 0
BBX 6 7 0 0
BITMAP
CFFF70
01B000
01B060
01B0B1
01B0B1
01D2C0
00AE40
ENDCHAR
STARTCHAR uni050F
ENCODING 1295
SWIDTH 558 0
DWIDTH 5 0
BBX 5 5 0 0
BITMAP
AFFB00
066450
066480
058670
01DC10
ENDCHAR
STARTCHAR uni0510
ENCODING 1296
SWIDTH 589 0
DWIDTH 5 0
BBX 5 7 0 0
BITMAP
09EC20
3B1490
2B1000
0AF600
4A1000
4A14B0
09ED30
ENDCHAR
STARTCHAR uni0511
ENCODING 1297
SWIDTH 470 0
DWIDTH 4 0
BBX 4 5 0 0
BITMAP
3DE5
6724
2FD0
7726
3DE5
ENDCHAR
STARTCHAR uni0512
ENCODING 1298
SWIDTH 664 0
DWIDTH 6 0
BBX 6 9 0 -2
BITMAP
09FFC0
0930C0
0A20C0
0A20C0
0B10C0
1D00C0
B700F8
000058
0001E3
ENDCHAR
STARTCHAR uni0513
ENCODING 1299
SWIDTH 553 0
DWIDTH 5 0
BBX 5 7 0 -2
BITMAP
0DFE00
0C0C00
0C0C00
2B0C00
B50DB0
0003A0
000D50
ENDCHAR
STARTCHAR uni1E00
ENCODING 7680
SWIDTH 576 0
DWIDTH 5 0
BBX 5 10 0 -3
BITMAP
00D100
03C600
073A00
0A0A00
1FFF40
660380
A200C0
000000
00C200
00C200
ENDCHAR
STARTCHAR uni1E01
ENCODING 7681
SWIDTH 479 0
DWIDTH 4 0
BBX 4 8 0 -3
BITMAP
1CE5
243A
2CFA
773A
3EBC
0000
0860
0960
ENDCHAR
STARTCHAR uni1E3E
ENCODING 7742
SWIDTH 755 0
DWIDTH 7 0
BBX 7 10 0 0
BITMAP
00087000
000A0000
00000000
5D001F20
5F306F20
5B70AB20
58B0BA20
57A57B20
586D2B20
581D0B20
ENDCHAR
STARTCHAR uni1E3F
ENCODING 7743
SWIDTH 752 0
DWIDTH 7 0
BBX 7 8 0 0
BITMAP
00078000
000A1000
00000000
6CE9EB00
683E1B20
650C0930
650C0930
650C0930
ENDCHAR
STARTCHAR Wgrave
ENCODING 7808
SWIDTH 761 0
DWIDTH 7 0
BBX 7 10 0 0
BITMAP
00960000
001A0000
00000000
930D0480
653E2750
48695920
1A938B00
0BA0AB00
0A90A900
08607700
ENDCHAR
STARTCHAR wgrave
ENCODING 7809
SWIDTH 649 0
DWIDTH 6 0
BBX 6 8 0 0
BITMAP
03C000
009200
000000
A18547
75A974
389AA1
0E68B0
0B2590
ENDCHAR
STARTCHAR Wacute
ENCODING 7810
SWIDTH 761 0
DWIDTH 7 0
BBX 7 10 0 0
BITMAP
00069000
000A1000
00000000
930D0480
653E2750
48695920
1A938B00
0BA0AB00
0A90A900
08607700
ENDCHAR
STARTCHAR wacute
ENCODING 7811
SWIDTH 649 0
DWIDTH 6 0
BBX 6 8 0 0
BITMAP
001D10
005600
000000
A18547
75A974
389AA1
0E68B0
0B2590
ENDCHAR
STARTCHAR Wdieresis
ENCODING 7812
SWIDTH 761 0
DWIDTH 7 0
BBX 7 9 0 0
BITMAP
00A0A000
00000000
930D0480
653E2750
48695920
1A938B00
0BA0AB00
0A90A900
08607700
ENDCHAR
STARTCHAR wdieresis
ENCODING 7813
SWIDTH 649 0
DWIDTH 6 0
BBX 6 7 0 0
BITMAP
065730
000000
A18547
75A974
389AA1
0E68B0
0B2590
ENDCHAR
STARTCHAR uni1EA0
ENCODING 7840
SWIDTH 576 0
DWIDTH 5 0
BBX 5 9 0 -2
BITMAP
00D100
03C600
073A00
0A0A00
1FFF40
660380
A200C0
000000
00A000
ENDCHAR
STARTCHAR uni1EA1
ENCODING 7841
SWIDTH 479 0
DWIDTH 4 0
BBX 4 7 0 -2
BITMAP
1CE5
243A
2CFA
773A
3EBC
0000
0740
ENDCHAR
STARTCHAR uni1EA2
ENCODING 7842
SWIDTH 576 0
DWIDTH 5 0
BBX 5 9 0 0
BITMAP
009300
004600
00F300
03C600
073A00
0A0A00
1FFF40
660380
A200C0
ENDCHAR
STARTCHAR uni1EA3
ENCODING 7843
SWIDTH 479 0
DWIDTH 4 0
BBX 4 9 0 0
BITMAP
01C0
00A1
00A0
0000
1CE5
243A
2CFA
773A
3EBC
ENDCHAR
STARTCHAR uni1EA4
ENCODING 7844
SWIDTH 576 0
DWIDTH 5 0
BBX 5 11 0 0
BITMAP
0000C0
02E670
085A00
000000
00D100
03C600
073A00
0A0A00
1FFF40
660380
A200C0
ENDCHAR
STARTCHAR uni1EA5
ENCODING 7845
SWIDTH 479 0
DWIDTH 4 0
BBX 5 9 0 0
BITMAP
000480
07D820
0B6600
000000
1CE500
243A00
2CFA00
773A00
3EBC00
ENDCHAR
STARTCHAR uni1EA6
ENCODING 7846
SWIDTH 576 0
DWIDTH 5 0
BBX 5 11 0 0
BITMAP
A20000
46E400
085A00
000000
00D100
03C600
073A00
0A0A00
1FFF40
660380
A200C0
ENDCHAR
STARTCHAR uni1EA7
ENCODING 7847
SWIDTH 479 0
DWIDTH 4 0
BBX 5 9 -1 0
BITMAP
1B0000
087D10
00B650
000000
01CE50
0243A0
02CFA0
0773A0
03EBC0
ENDCHAR
STARTCHAR uni1EA8
ENCODING 7848
SWIDTH 576 0
DWIDTH 5 0
BBX 5 12 0 0
BITMAP
000350
000280
02DA40
083A00
000000
00D100
03C600
073A00
0A0A00
1FFF40
660380
A200C0
ENDCHAR
STARTCHAR uni1EA9
ENCODING 7849
SWIDTH 479 0
DWIDTH 4 0
BBX 5 10 0 0
BITMAP
000710
000730
07C900
0A4600
000000
1CE500
243A00
2CFA00
773A00
3EBC00
ENDCHAR
STARTCHAR uni1EAA
ENCODING 7850
SWIDTH 576 0
DWIDTH 5 0
BBX 5 12 0 0
BITMAP
029500
047500
02D400
083A00
000000
00D100
03C600
073A00
0A0A00
1FFF40
660380
A200C0
ENDCHAR
STARTCHAR uni1EAB
ENCODING 7851
SWIDTH 479 0
DWIDTH 4 0
BBX 4 10 0 0
BITMAP
0862
05B0
06C1
0A56
0000
1CE5
243A
2CFA
773A
3EBC
ENDCHAR
STARTCHAR uni1EAC
ENCODING 7852
SWIDTH 576 0
DWIDTH 5 0
BBX 5 12 0 -2
BITMAP
01D300
056800
000000
00D100
03C600
073A00
0A0A00
1FFF40
660380
A200C0
000000
00A000
ENDCHAR
STARTCHAR uni1EAD
ENCODING 7853
SWIDTH 479 0
DWIDTH 4 0
BBX 4 10 0 -2
BITMAP
05B0
0973
0000
1CE5
243A
2CFA
773A
3EBC
0000
0740
ENDCHAR
STARTCHAR uni1EAE
ENCODING 7854
SWIDTH 576 0
DWIDTH 5 0
BBX 5 10 0 0
BITMAP
005400
006000
074A00
03F600
03C600
073A00
0A0A00
1FFF40
660380
A200C0
ENDCHAR
STARTCHAR uni1EAF
ENCODING 7855
SWIDTH 479 0
DWIDTH 4 0
BBX 4 10 0 0
BITMAP
0090
0060
0A65
07D1
0000
1CE5
243A
2CFA
773A
3EBC
ENDCHAR
STARTCHAR uni1EB0
ENCODING 7856
SWIDTH 576 0
DWIDTH 5 0
BBX 5 10 0 0
BITMAP
009000
006000
074A00
03F600
03C600
073A00
0A0A00
1FFF40
660380
A200C0
ENDCHAR
STARTCHAR uni1EB1
ENCODING 7857
SWIDTH 479 0
DWIDTH 4 0
BBX 4 10 0 0
BITMAP
0640
0150
0A65
07D1
0000
1CE5
243A
2CFA
773A
3EBC
ENDCHAR
STARTCHAR uni1EB2
ENCODING 7858
SWIDTH 576 0
DWIDTH 5 0
BBX 5 10 0 0
BITMAP
006300
009200
074900
03F500
03C600
073A00
0A0A00
1FFF40
660380
A200C0
ENDCHAR
STARTCHAR uni1EB3
ENCODING 7859
SWIDTH 479 0
DWIDTH 4 0
BBX 4 10 0 0
BITMAP
0090
00A0
0A73
07C0
0000
1CE5
243A
2CFA
773A
3EBC
ENDCHAR
STARTCHAR uni1EB4
ENCODING 7860
SWIDTH 576 0
DWIDTH 5 0
BBX 5 11 0 0
BITMAP
039500
056600
000000
074900
03F600
03C600
073A00
0A0A00
1FFF40
660380
A200C0
ENDCHAR
STARTCHAR uni1EB5
ENCODING 7861
SWIDTH 479 0
DWIDTH 4 0
BBX 4 11 0 0
BITMAP
0863
05B1
0000
0A64
07D1
0000
1CE5
243A
2CFA
773A
3EBC
ENDCHAR
STARTCHAR uni1EB6
ENCODING 7862
SWIDTH 576 0
DWIDTH 5 0
BBX 5 10 0 -2
BITMAP
0A2B00
04F800
03C600
073A00
0A0A00
1FFF40
660380
A200C0
000000
00A000
ENDCHAR
STARTCHAR uni1EB7
ENCODING 7863
SWIDTH 479 0
DWIDTH 4 0
BBX 4 10 0 -2
BITMAP
0B47
09E2
0000
1CE5
243A
2CFA
773A
3EBC
0000
0740
ENDCHAR
STARTCHAR uni1EB8
ENCODING 7864
SWIDTH 496 0
DWIDTH 4 0
BBX 5 9 0 -2
BITMAP
5FFF10
580000
580000
5FFB00
580000
580000
5FFF20
000000
01A000
ENDCHAR
STARTCHAR uni1EB9
ENCODING 7865
SWIDTH 468 0
DWIDTH 4 0
BBX 4 7 0 -2
BITMAP
1CE4
762B
8FFD
7601
2CE7
0000
0370
ENDCHAR
STARTCHAR uni1EBA
ENCODING 7866
SWIDTH 496 0
DWIDTH 4 0
BBX 5 9 0 0
BITMAP
00C100
008200
5FFF10
580000
580000
5FFB00
580000
580000
5FFF20
ENDCHAR
STARTCHAR uni1EBB
ENCODING 7867
SWIDTH 468 0
DWIDTH 4 0
BBX 4 9 0 0
BITMAP
02A0
00A0
0190
0000
1CE4
762B
8FFD
7601
2CE7
ENDCHAR
STARTCHAR uni1EBC
ENCODING 7868
SWIDTH 496 0
DWIDTH 4 0
BBX 5 10 0 0
BITMAP
095800
089600
000000
5FFF10
580000
580000
5FFB00
580000
580000
5FFF20
ENDCHAR
STARTCHAR uni1EBD
ENCODING 7869
SWIDTH 468 0
DWIDTH 4 0
BBX 4 8 0 0
BITMAP
0C47
27C3
0000
1CE4
762B
8FFD
7601
2CE7
ENDCHAR
STARTCHAR uni1EBE
ENCODING 7870
SWIDTH 496 0
DWIDTH 4 0
BBX 5 11 0 0
BITMAP
0002A0
04E740
0A5800
000000
5FFF10
580000
580000
5FFB00
580000
580000
5FFF20
ENDCHAR
STARTCHAR uni1EBF
ENCODING 7871
SWIDTH 468 0
DWIDTH 4 0
BBX 5 9 0 0
BITMAP
000570
07C810
1B7500
000000
1CE400
762B00
8FFD00
760100
2CE700
ENDCHAR
STARTCHAR uni1EC0
ENCODING 7872
SWIDTH 496 0
DWIDTH 4 0
BBX 5 11 0 0
BITMAP
C00000
76E200
0A5700
000000
5FFF10
580000
580000
5FFB00
580000
580000
5FFF20
ENDCHAR
STARTCHAR uni1EC1
ENCODING 7873
SWIDTH 468 0
DWIDTH 4 0
BBX 5 9 -1 0
BITMAP
2A0000
088C00
01B750
000000
01CE40
0762B0
08FFD0
076010
02CE70
ENDCHAR
STARTCHAR uni1EC2
ENCODING 7874
SWIDTH 496 0
DWIDTH 4 0
BBX 5 12 0 0
BITMAP
000520
000550
05DA10
0A3800
000000
5FFF10
580000
580000
5FFB00
580000
580000
5FFF20
ENDCHAR
STARTCHAR uni1EC3
ENCODING 7875
SWIDTH 468 0
DWIDTH 4 0
BBX 5 10 0 0
BITMAP
000700
000820
08C900
195500
000000
1CE400
762B00
8FFD00
760100
2CE700
ENDCHAR
STARTCHAR uni1EC4
ENCODING 7876
SWIDTH 496 0
DWIDTH 4 0
BBX 5 12 0 0
BITMAP
066400
05A200
04D200
0A3800
000000
5FFF10
580000
580000
5FFB00
580000
580000
5FFF20
ENDCHAR
STARTCHAR uni1EC5
ENCODING 7877
SWIDTH 468 0
DWIDTH 4 0
BBX 4 10 0 0
BITMAP
0961
05B0
07B0
1A65
0000
1CE4
762B
8FFD
7601
2CE7
ENDCHAR
STARTCHAR uni1EC6
ENCODING 7878
SWIDTH 496 0
DWIDTH 4 0
BBX 5 12 0 -2
BITMAP
03D100
086500
000000
5FFF10
580000
580000
5FFB00
580000
580000
5FFF20
000000
01A000
ENDCHAR
STARTCHAR uni1EC7
ENCODING 7879
SWIDTH 468 0
DWIDTH 4 0
BBX 4 10 0 -2
BITMAP
06B0
0972
0000
1CE4
762B
8FFD
7601
2CE7
0000
0370
ENDCHAR
STARTCHAR uni1EC8
ENCODING 7880
SWIDTH 250 0
DWIDTH 2 0
BBX 2 9 0 0
BITMAP
3A
0A
6F
48
48
48
48
48
48
ENDCHAR
STARTCHAR uni1EC9
ENCODING 7881
SWIDTH 234 0
DWIDTH 2 0
BBX 2 9 0 0
BITMAP
49
0A
37
00
56
56
56
56
56
ENDCHAR
STARTCHAR uni1ECA
ENCODING 7882
SWIDTH 250 0
DWIDTH 2 0
BBX 2 9 0 -2
BITMAP
48
48
48
48
48
48
48
00
47
ENDCHAR
STARTCHAR uni1ECB
ENCODING 7883
SWIDTH 229 0
DWIDTH 2 0
BBX 2 9 0 -2
BITMAP
45
00
56
56
56
56
56
00
55
ENDCHAR
STARTCHAR uni1ECC
ENCODING 7884
SWIDTH 600 0
DWIDTH 5 0
BBX 5 9 0 -2
BITMAP
08EC20
3B1690
6600C0
7500C0
6600C0
3B1690
08EC20
000000
009100
ENDCHAR
STARTCHAR uni1ECD
ENCODING 7885
SWIDTH 501 0
DWIDTH 5 0
BBX 5 7 0 -2
BITMAP
1CE600
771D00
930A10
771C00
1CE600
000000
028000
ENDCHAR
STARTCHAR uni1ECE
ENCODING 7886
SWIDTH 600 0
DWIDTH 5 0
BBX 5 9 0 0
BITMAP
008400
003800
08FE20
3B1690
6600C0
7500C0
6600C0
3B1690
08EC20
ENDCHAR
STARTCHAR uni1ECF
ENCODING 7887
SWIDTH 501 0
DWIDTH 5 0
BBX 5 9 0 0
BITMAP
01B000
00A000
01A000
000000
1CE600
771D00
930A10
771C00
1CE600
ENDCHAR
STARTCHAR uni1ED0
ENCODING 7888
SWIDTH 600 0
DWIDTH 5 0
BBX 6 11 0 0
BITMAP
0000B1
01D780
066B00
000000
08EC20
3B1690
6600C0
7500C0
6600C0
3B1690
08EC20
ENDCHAR
STARTCHAR uni1ED1
ENCODING 7889
SWIDTH 501 0
DWIDTH 5 0
BBX 5 9 0 0
BITMAP
000570
07C820
0B6500
000000
1CE600
771D00
930A10
771C00
1CE600
ENDCHAR
STARTCHAR uni1ED2
ENCODING 7890
SWIDTH 600 0
DWIDTH 5 0
BBX 5 11 0 0
BITMAP
840000
37D600
066B00
000000
08EC20
3B1690
6600C0
7500C0
6600C0
3B1690
08EC20
ENDCHAR
STARTCHAR uni1ED3
ENCODING 7891
SWIDTH 501 0
DWIDTH 5 0
BBX 6 9 -1 0
BITMAP
1B0000
087C10
01B750
000000
01CE60
0771D0
0930A1
0771C0
01CE60
ENDCHAR
STARTCHAR uni1ED4
ENCODING 7892
SWIDTH 600 0
DWIDTH 5 0
BBX 5 12 0 0
BITMAP
000260
000190
01DA50
074A00
000000
08EC20
3B1690
6600C0
7500C0
6600C0
3B1690
08EC20
ENDCHAR
STARTCHAR uni1ED5
ENCODING 7893
SWIDTH 501 0
DWIDTH 5 0
BBX 5 10 0 0
BITMAP
000700
000820
08C900
1A5500
000000
1CE600
771D00
930A10
771C00
1CE600
ENDCHAR
STARTCHAR uni1ED6
ENCODING 7894
SWIDTH 600 0
DWIDTH 5 0
BBX 5 12 0 0
BITMAP
01A500
036600
01C500
074A00
000000
08EC20
3B1690
6600C0
7500C0
6600C0
3B1690
08EC20
ENDCHAR
STARTCHAR uni1ED7
ENCODING 7895
SWIDTH 501 0
DWIDTH 5 0
BBX 5 10 0 0
BITMAP
086100
05B000
07B000
1A5500
000000
1CE600
771D00
930A10
771C00
1CE600
ENDCHAR
STARTCHAR uni1ED8
ENCODING 7896
SWIDTH 600 0
DWIDTH 5 0
BBX 5 12 0 -2
BITMAP
00C400
047900
000000
08EC20
3B1690
6600C0
7500C0
6600C0
3B1690
08EC20
000000
009100
ENDCHAR
STARTCHAR uni1ED9
ENCODING 7897
SWIDTH 501 0
DWIDTH 5 0
BBX 5 10 0 -2
BITMAP
05B000
097300
000000
1CE600
771D00
930A10
771C00
1CE600
000000
028000
ENDCHAR
STARTCHAR uni1EDA
ENCODING 7898
SWIDTH 592 0
DWIDTH 5 0
BBX 6 10 0 0
BITMAP
003B00
008300
000011
08E984
4B18D0
850190
9300C0
8501B0
4B1880
08EB10
ENDCHAR
STARTCHAR uni1EDB
ENCODING 7899
SWIDTH 502 0
DWIDTH 5 0
BBX 5 8 0 0
BITMAP
00A500
01A000
000000
1BD580
682D30
830A00
671D10
1BE700
ENDCHAR
STARTCHAR uni1EDC
ENCODING 7900
SWIDTH 592 0
DWIDTH 5 0
BBX 6 10 0 0
BITMAP
068000
00A000
000011
08E984
4B18D0
850190
9300C0
8501B0
4B1880
08EB10
ENDCHAR
STARTCHAR uni1EDD
ENCODING 7901
SWIDTH 502 0
DWIDTH 5 0
BBX 5 8 0 0
BITMAP
0C2000
047000
000000
1BD580
682D30
830A00
671D10
1BE700
ENDCHAR
STARTCHAR uni1EDE
ENCODING 7902
SWIDTH 592 0
DWIDTH 5 0
BBX 6 9 0 0
BITMAP
009400
003711
08FB84
4B18D0
850190
9300C0
8501B0
4B1880
08EB10
ENDCHAR
STARTCHAR uni1EDF
ENCODING 7903
SWIDTH 502 0
DWIDTH 5 0
BBX 5 9 0 0
BITMAP
01C000
00A100
00A000
000000
1BD580
682D30
830A00
671D10
1BE700
ENDCHAR
STARTCHAR uni1EE0
ENCODING 7904
SWIDTH 592 0
DWIDTH 5 0
BBX 6 10 0 0
BITMAP
059800
086A00
000011
08E984
4B18D0
850190
9300C0
8501B0
4B1880
08EB10
ENDCHAR
STARTCHAR uni1EE1
ENCODING 7905
SWIDTH 502 0
DWIDTH 5 0
BBX 5 8 0 0
BITMAP
0B4800
18B400
000000
1BD580
682D30
830A00
671D10
1BE700
ENDCHAR
STARTCHAR uni1EE2
ENCODING 7906
SWIDTH 592 0
DWIDTH 5 0
BBX 6 10 0 -2
BITMAP
000011
08E984
4B18D0
850190
9300C0
8501B0
4B1880
08EB10
000000
00A000
ENDCHAR
STARTCHAR uni1EE3
ENCODING 7907
SWIDTH 502 0
DWIDTH 5 0
BBX 5 7 0 -2
BITMAP
1BD580
682D30
830A00
671D10
1BE700
000000
028000
ENDCHAR
STARTCHAR uni1EE4
ENCODING 7908
SWIDTH 561 0
DWIDTH 5 0
BBX 5 9 0 -2
BITMAP
660480
660480
660480
660480
660570
591860
0BEB10
000000
00A000
ENDCHAR
STARTCHAR uni1EE5
ENCODING 7909
SWIDTH 483 0
DWIDTH 4 0
BBX 4 7 0 -2
BITMAP
750C
750C
750C
673C
2DCB
0000
0640
ENDCHAR
STARTCHAR uni1EE6
ENCODING 7910
SWIDTH 561 0
DWIDTH 5 0
BBX 5 9 0 0
BITMAP
00A200
006500
669580
660480
660480
660480
660570
591860
0BEB10
ENDCHAR
STARTCHAR uni1EE7
ENCODING 7911
SWIDTH 483 0
DWIDTH 4 0
BBX 4 9 0 0
BITMAP
02A0
00A0
0190
0000
750C
750C
750C
673C
2DCB
ENDCHAR
STARTCHAR uni1EE8
ENCODING 7912
SWIDTH 608 0
DWIDTH 5 0
BBX 6 10 0 0
BITMAP
003B00
008300
000003
66049A
6604E5
660480
660480
660570
4A1960
0AEA00
ENDCHAR
STARTCHAR uni1EE9
ENCODING 7913
SWIDTH 549 0
DWIDTH 5 0
BBX 5 8 0 0
BITMAP
00A500
01A000
000000
750C90
750F80
750C00
673C00
2DCB00
ENDCHAR
STARTCHAR uni1EEA
ENCODING 7914
SWIDTH 608 0
DWIDTH 5 0
BBX 6 10 0 0
BITMAP
068000
00A000
000003
66049A
6604E5
660480
660480
660570
4A1960
0AEA00
ENDCHAR
STARTCHAR uni1EEB
ENCODING 7915
SWIDTH 549 0
DWIDTH 5 0
BBX 5 8 0 0
BITMAP
0C2000
047000
000000
750C90
750F80
750C00
673C00
2DCB00
ENDCHAR
STARTCHAR uni1EEC
ENCODING 7916
SWIDTH 608 0
DWIDTH 5 0
BBX 6 9 0 0
BITMAP
009400
003703
66969A
6604E5
660480
660480
660570
4A1960
0AEA00
ENDCHAR
STARTCHAR uni1EED
ENCODING 7917
SWIDTH 549 0
DWIDTH 5 0
BBX 5 9 0 0
BITMAP
01B000
00A000
00A000
000000
750C90
750F80
750C00
673C00
2DCB00
ENDCHAR
STARTCHAR uni1EEE
ENCODING 7918
SWIDTH 608 0
DWIDTH 5 0
BBX 6 10 0 0
BITMAP
05A900
085A00
000003
66049A
6604E5
660480
660480
660570
4A1960
0AEA00
ENDCHAR
STARTCHAR uni1EEF
ENCODING 7919
SWIDTH 549 0
DWIDTH 5 0
BBX 5 8 0 0
BITMAP
0C4800
17B400
000000
750C90
750F80
750C00
673C00
2DCB00
ENDCHAR
STARTCHAR uni1EF0
ENCODING 7920
SWIDTH 608 0
DWIDTH 5 0
BBX 6 10 0 -2
BITMAP
000003
66049A
6604E5
660480
660480
660570
4A1960
0AEA00
000000
00A100
ENDCHAR
STARTCHAR uni1EF1
ENCODING 7921
SWIDTH 549 0
DWIDTH 5 0
BBX 5 7 0 -2
BITMAP
750C90
750F80
750C00
673C00
2DCB00
000000
037000
ENDCHAR
STARTCHAR Ygrave
ENCODING 7922
SWIDTH 524 0
DWIDTH 5 0
BBX 5 10 0 0
BITMAP
0B4000
029000
000000
A30860
490C00
0C4800
06D200
01C000
01B000
01B000
ENDCHAR
STARTCHAR ygrave
ENCODING 7923
SWIDTH 416 0
DWIDTH 4 0
BBX 4 10 0 -2
BITMAP
2C00
0830
0000
B267
6592
29B0
0B90
0850
0B10
9900
ENDCHAR
STARTCHAR uni1EF4
ENCODING 7924
SWIDTH 524 0
DWIDTH 5 0
BBX 5 9 0 -2
BITMAP
A30860
490C00
0C4800
06D200
01C000
01B000
01B000
000000
01A000
ENDCHAR
STARTCHAR uni1EF5
ENCODING 7925
SWIDTH 416 0
DWIDTH 4 0
BBX 4 8 0 -3
BITMAP
B267
6592
29B0
0B90
0850
0B10
9900
0091
ENDCHAR
STARTCHAR uni1EF6
ENCODING 7926
SWIDTH 524 0
DWIDTH 5 0
BBX 5 9 0 0
BITMAP
00C100
008200
A3A860
490C00
0C4800
06D200
01C000
01B000
01B000
ENDCHAR
STARTCHAR uni1EF7
ENCODING 7927
SWIDTH 416 0
DWIDTH 4 0
BBX 4 11 0 -2
BITMAP
0570
00A0
0460
0000
B267
6592
29B0
0B90
0850
0B10
9900
ENDCHAR
STARTCHAR uni1EF8
ENCODING 7928
SWIDTH 524 0
DWIDTH 5 0
BBX 5 10 0 0
BITMAP
095800
089600
000000
A30860
490C00
0C4800
06D200
01C000
01B000
01B000
ENDCHAR
STARTCHAR uni1EF9
ENCODING 7929
SWIDTH 416 0
DWIDTH 4 0
BBX 4 10 0 -2
BITMAP
2C64
55D1
0000
B267
6592
29B0
0B90
0850
0B10
9900
ENDCHAR
STARTCHAR uni1F4D
ENCODING 8013
SWIDTH 634 0
DWIDTH 6 0
BBX 8 7 -2 0
BITMAP
A564DD40
691D22D0
001B00A2
002A00A3
001B00A2
000D32D0
0004DE50
ENDCHAR
STARTCHAR uni2000
ENCODING 8192
SWIDTH 447 0
DWIDTH 4 0
BBX 1 1 0 0
BITMAP
00
ENDCHAR
STARTCHAR uni2001
ENCODING 8193
SWIDTH 876 0
DWIDTH 8 0
BBX 1 1 0 0
BITMAP
00
ENDCHAR
STARTCHAR uni2002
ENCODING 8194
SWIDTH 447 0
DWIDTH 4 0
BBX 1 1 0 0
BITMAP
00
ENDCHAR
STARTCHAR uni2003
ENCODING 8195
SWIDTH 876 0
DWIDTH 8 0
BBX 1 1 0 0
BITMAP
00
ENDCHAR
STARTCHAR uni2004
ENCODING 8196
SWIDTH 305 0
DWIDTH 3 0
BBX 1 1 0 0
BITMAP
00
ENDCHAR
STARTCHAR uni2005
ENCODING 8197
SWIDTH 233 0
DWIDTH 2 0
BBX 1 1 0 0
BITMAP
00
ENDCHAR
STARTCHAR uni2006
ENCODING 8198
SWIDTH 162 0
DWIDTH 1 0
BBX 1 1 0 0
BITMAP
00
ENDCHAR
STARTCHAR uni2007
ENCODING 8199
SWIDTH 491 0
DWIDTH 4 0
BBX 1 1 0 0
BITMAP
00
ENDCHAR
STARTCHAR uni2008
ENCODING 8200
SWIDTH 249 0
DWIDTH 2 0
BBX 1 1 0 0
BITMAP
00
ENDCHAR
STARTCHAR uni2009
ENCODING 8201
SWIDTH 190 0
DWIDTH 2 0
BBX 1 1 0 0
BITMAP
00
ENDCHAR
STARTCHAR uni200A
ENCODING 8202
SWIDTH 105 0
DWIDTH 1 0
BBX 1 1 0 0
BITMAP
00
ENDCHAR
STARTCHAR uni200B
ENCODING 8203
SWIDTH 0 0
DWIDTH 0 0
BBX 1 1 0 0
BITMAP
00
ENDCHAR
STARTCHAR uni2010
ENCODING 8208
SWIDTH 248 0
DWIDTH 2 0
BBX 2 1 0 2
BITMAP
CF
ENDCHAR
STARTCHAR uni2011
ENCODING 8209
SWIDTH 248 0
DWIDTH 2 0
BBX 2 1 0 2
BITMAP
CF
ENDCHAR
STARTCHAR endash
ENCODING 8211
SWIDTH 572 0
DWIDTH 5 0
BBX 5 1 0 3
BITMAP
4FFF60
ENDCHAR
STARTCHAR emdash
ENCODING 8212
SWIDTH 678 0
DWIDTH 6 0
BBX 6 1 0 3
BITMAP
4FFFFA
ENDCHAR
STARTCHAR uni2015
ENCODING 8213
SWIDTH 678 0
DWIDTH 6 0
BBX 6 1 0 3
BITMAP
4FFFFA
ENDCHAR
STARTCHAR underscoredbl
ENCODING 8215
SWIDTH 402 0
DWIDTH 4 0
BBX 4 2 0 -2
BITMAP
EFF8
EFF8
ENDCHAR
STARTCHAR quoteleft
ENCODING 8216
SWIDTH 194 0
DWIDTH 2 0
BBX 2 2 0 5
BITMAP
36
83
ENDCHAR
STARTCHAR quoteright
ENCODING 8217
SWIDTH 194 0
DWIDTH 2 0
BBX 2 2 0 5
BITMAP
65
81
ENDCHAR
STARTCHAR quotesinglbase
ENCODING 8218
SWIDTH 194 0
DWIDTH 2 0
BBX 2 2 0 -1
BITMAP
75
81
ENDCHAR
STARTCHAR quotereversed
ENCODING 8219
SWIDTH 194 0
DWIDTH 2 0
BBX 2 2 0 5
BITMAP
92
45
ENDCHAR
STARTCHAR quotedblleft
ENCODING 8220
SWIDTH 333 0
DWIDTH 3 0
BBX 3 2 0 5
BITMAP
3780
7880
ENDCHAR
STARTCHAR quotedblright
ENCODING 8221
SWIDTH 337 0
DWIDTH 3 0
BBX 3 2 0 5
BITMAP
5890
7650
ENDCHAR
STARTCHAR quotedblbase
ENCODING 8222
SWIDTH 326 0
DWIDTH 3 0
BBX 3 3 0 -1
BITMAP
0110
7970
8730
ENDCHAR
STARTCHAR dagger
ENCODING 8224
SWIDTH 482 0
DWIDTH 4 0
BBX 4 7 0 0
BITMAP
0380
0380
AFFF
0380
0380
0380
0380
ENDCHAR
STARTCHAR daggerdbl
ENCODING 8225
SWIDTH 500 0
DWIDTH 5 0
BBX 5 9 0 -2
BITMAP
029000
029000
9FFF10
029000
029000
029000
9FFF10
029000
029000
ENDCHAR
STARTCHAR bullet
ENCODING 8226
SWIDTH 336 0
DWIDTH 3 0
BBX 3 2 0 2
BITMAP
3E30
3D30
ENDCHAR
STARTCHAR twodotenleader
ENCODING 8229
SWIDTH 420 0
DWIDTH 4 0
BBX 4 1 0 0
BITMAP
3782
ENDCHAR
STARTCHAR ellipsis
ENCODING 8230
SWIDTH 590 0
DWIDTH 5 0
BBX 5 1 0 0
BITMAP
3783A0
ENDCHAR
STARTCHAR uni2027
ENCODING 8231
SWIDTH 181 0
DWIDTH 2 0
BBX 2 1 0 2
BITMAP
72
ENDCHAR
STARTCHAR perthousand
ENCODING 8240
SWIDTH 818 0
DWIDTH 7 0
BBX 7 7 0 0
BITMAP
6E400000
93862000
6E580000
00720000
0279DDA0
071A67A0
0009DDA0
ENDCHAR
STARTCHAR minute
ENCODING 8242
SWIDTH 174 0
DWIDTH 2 0
BBX 2 2 0 5
BITMAP
81
81
ENDCHAR
STARTCHAR second
ENCODING 8243
SWIDTH 319 0
DWIDTH 3 0
BBX 3 2 0 5
BITMAP
6660
6550
ENDCHAR
STARTCHAR guilsinglleft
ENCODING 8249
SWIDTH 271 0
DWIDTH 2 0
BBX 2 3 0 1
BITMAP
09
56
09
ENDCHAR
STARTCHAR guilsinglright
ENCODING 8250
SWIDTH 271 0
DWIDTH 2 0
BBX 2 3 0 1
BITMAP
45
0B
45
ENDCHAR
STARTCHAR exclamdbl
ENCODING 8252
SWIDTH 491 0
DWIDTH 4 0
BBX 4 7 0 0
BITMAP
481B
471A
471A
471A
471A
0000
3719
ENDCHAR
STARTCHAR fraction
ENCODING 8260
SWIDTH 403 0
DWIDTH 4 0
BBX 4 5 0 1
BITMAP
0052
0080
0720
1800
6100
ENDCHAR
STARTCHAR uni2074
ENCODING 8308
SWIDTH 329 0
DWIDTH 3 0
BBX 3 4 0 3
BITMAP
0A50
4A50
AFA0
0550
ENDCHAR
STARTCHAR uni207F
ENCODING 8319
SWIDTH 374 0
DWIDTH 3 0
BBX 3 4 0 3
BITMAP
7CA0
75C0
74B0
74B0
ENDCHAR
STARTCHAR franc
ENCODING 8355
SWIDTH 480 0
DWIDTH 4 0
BBX 4 7 0 0
BITMAP
5FFF
5800
5800
5FFA
5800
FF80
5800
ENDCHAR
STARTCHAR lira
ENCODING 8356
SWIDTH 510 0
DWIDTH 5 0
BBX 5 7 0 0
BITMAP
07E900
0D1C20
1C0000
9FF100
9FF100
1B0000
8FFF40
ENDCHAR
STARTCHAR uni20A6
ENCODING 8358
SWIDTH 691 0
DWIDTH 6 0
BBX 6 7 0 0
BITMAP
0E2093
0EA093
CFFFFF
0C4893
CFFFFF
0C07E3
0C00D3
ENDCHAR
STARTCHAR peseta
ENCODING 8359
SWIDTH 709 0
DWIDTH 6 0
BBX 6 7 0 0
BITMAP
5FE400
573BB1
570FFC
573BB1
5FE4B1
5700B2
57007B
ENDCHAR
STARTCHAR uni20A8
ENCODING 8360
SWIDTH 911 0
DWIDTH 8 0
BBX 8 7 0 0
BITMAP
5FFB0000
58095000
58096CE5
5FFB4B45
583A08E5
580C543B
58069DE5
ENDCHAR
STARTCHAR uni20A9
ENCODING 8361
SWIDTH 634 0
DWIDTH 6 0
BBX 6 7 0 0
BITMAP
929575
75B792
CFFFF8
2899B0
CFFFF8
0C6A80
0A4860
ENDCHAR
STARTCHAR uni20AA
ENCODING 8362
SWIDTH 669 0
DWIDTH 6 0
BBX 6 5 0 0
BITMAP
6FFA57
651D57
65CC57
65C076
65FFE2
ENDCHAR
STARTCHAR dong
ENCODING 8363
SWIDTH 510 0
DWIDTH 5 0
BBX 5 9 0 -2
BITMAP
00CF80
000C00
2DDC00
762C00
930C00
762C00
2DCC00
000000
5FFF20
ENDCHAR
STARTCHAR Euro
ENCODING 8364
SWIDTH 493 0
DWIDTH 4 0
BBX 4 7 0 0
BITMAP
04DD
0C31
8FF4
0C00
8FF4
0C21
04DD
ENDCHAR
STARTCHAR uni20B1
ENCODING 8369
SWIDTH 648 0
DWIDTH 6 0
BBX 6 7 0 0
BITMAP
1FFC10
1B0780
CFFFFA
1B00C0
CFFFE7
1FFE40
1B0000
ENDCHAR
STARTCHAR uni20B9
ENCODING 8377
SWIDTH 462 0
DWIDTH 4 0
BBX 4 7 0 0
BITMAP
AFFD
01D1
AFFD
01D1
BF80
3B10
04B0
ENDCHAR
STARTCHAR uni20BA
ENCODING 8378
SWIDTH 500 0
DWIDTH 5 0
BBX 5 7 0 0
BITMAP
0C0000
0DA000
AE3000
2DAB10
AE3C00
2C4B00
0DD300
ENDCHAR
STARTCHAR uni20BC
ENCODING 8380
SWIDTH 575 0
DWIDTH 5 0
BBX 5 5 0 0
BITMAP
00C000
09FB10
4AC770
84C1B0
93C0B0
ENDCHAR
STARTCHAR uni20BD
ENCODING 8381
SWIDTH 583 0
DWIDTH 5 0
BBX 5 7 0 0
BITMAP
0FFE40
0C02C0
0C02C0
CFFE50
0C0000
CFE000
0C0000
ENDCHAR
STARTCHAR uni2105
ENCODING 8453
SWIDTH 640 0
DWIDTH 6 0
BBX 6 7 0 0
BITMAP
3E6000
742530
3E6800
006200
018AD1
061A64
000AD1
ENDCHAR
STARTCHAR uni2113
ENCODING 8467
SWIDTH 422 0
DWIDTH 4 0
BBX 4 7 0 0
BITMAP
07E2
0C76
0C94
0CC0
7F20
0B20
05A0
ENDCHAR
STARTCHAR uni2116
ENCODING 8470
SWIDTH 886 0
DWIDTH 8 0
BBX 8 7 0 0
BITMAP
5B065BE3
5E166B57
5A765BE3
57A65000
577A5FF5
571E5000
570B5000
ENDCHAR
STARTCHAR trademark
ENCODING 8482
SWIDTH 547 0
DWIDTH 5 0
BBX 5 3 0 4
BITMAP
8D8710
059810
056910
ENDCHAR
STARTCHAR Omega
ENCODING 8486
SWIDTH 581 0
DWIDTH 5 0
BBX 5 7 0 0
BITMAP
09EA00
4B1960
760390
750290
560370
180720
7F7F90
ENDCHAR
STARTCHAR estimated
ENCODING 8494
SWIDTH 636 0
DWIDTH 6 0
BBX 6 5 0 0
BITMAP
04ED40
2C11C0
4FFFF2
2C1120
05ED50
ENDCHAR
STARTCHAR oneeighth
ENCODING 8539
SWIDTH 666 0
DWIDTH 6 0
BBX 6 7 0 0
BITMAP
290000
8B0710
0A2700
0A87E4
0367C4
070996
0007E4
ENDCHAR
STARTCHAR threeeighths
ENCODING 8540
SWIDTH 736 0
DWIDTH 7 0
BBX 6 7 0 0
BITMAP
3D6000
0C6080
129540
5E68CC
0072BB
0071BB
0000DC
ENDCHAR
STARTCHAR fiveeighths
ENCODING 8541
SWIDTH 736 0
DWIDTH 7 0
BBX 6 7 0 0
BITMAP
6F7000
7E5170
239720
5E68DC
0081CB
0161BB
0000DC
ENDCHAR
STARTCHAR seveneighths
ENCODING 8542
SWIDTH 692 0
DWIDTH 6 0
BBX 6 7 0 0
BITMAP
9FA000
036430
091900
1966E8
0183C8
06259A
0003E8
ENDCHAR
STARTCHAR partialdiff
ENCODING 8706
SWIDTH 497 0
DWIDTH 4 0
BBX 4 7 0 0
BITMAP
1DD2
023A
1BDD
682D
740B
582B
0BE4
ENDCHAR
STARTCHAR Delta
ENCODING 8710
SWIDTH 614 0
DWIDTH 6 0
BBX 6 7 0 0
BITMAP
00B500
01C900
056B00
0A1830
1B0480
5600B0
AFFFF2
ENDCHAR
STARTCHAR product
ENCODING 8719
SWIDTH 614 0
DWIDTH 6 0
BBX 5 8 0 -1
BITMAP
4FFFC0
4700C0
4700C0
4700C0
4700C0
4700C0
4700C0
4700C0
ENDCHAR
STARTCHAR summation
ENCODING 8721
SWIDTH 513 0
DWIDTH 5 0
BBX 5 8 0 -1
BITMAP
AFFF30
490000
085000
00B200
00A200
075000
490000
AFFF80
ENDCHAR
STARTCHAR minus
ENCODING 8722
SWIDTH 499 0
DWIDTH 5 0
BBX 4 1 0 3
BITMAP
4FFC
ENDCHAR
STARTCHAR radical
ENCODING 8730
SWIDTH 536 0
DWIDTH 5 0
BBX 5 7 0 0
BITMAP
000570
000920
000B00
003800
AC7400
0BD000
04A000
ENDCHAR
STARTCHAR infinity
ENCODING 8734
SWIDTH 874 0
DWIDTH 8 0
BBX 8 5 0 0
BITMAP
0BE46E90
682CB1A3
83096066
672CB1A3
0BE46E90
ENDCHAR
STARTCHAR integral
ENCODING 8747
SWIDTH 235 0
DWIDTH 2 0
BBX 4 9 -1 -2
BITMAP
01D7
0490
0470
0470
0470
0470
0470
0670
2E30
ENDCHAR
STARTCHAR approxequal
ENCODING 8776
SWIDTH 492 0
DWIDTH 4 0
BBX 4 4 0 1
BITMAP
5D44
42BA
5D44
42BA
ENDCHAR
STARTCHAR notequal
ENCODING 8800
SWIDTH 479 0
DWIDTH 4 0
BBX 4 5 0 0
BITMAP
0034
5FFB
0260
5FFB
0700
ENDCHAR
STARTCHAR lessequal
ENCODING 8804
SWIDTH 445 0
DWIDTH 4 0
BBX 4 5 0 0
BITMAP
0294
7A30
3981
0033
AFF6
ENDCHAR
STARTCHAR greaterequal
ENCODING 8805
SWIDTH 460 0
DWIDTH 4 0
BBX 4 5 0 0
BITMAP
5820
0298
18A3
3300
6FFA
ENDCHAR
STARTCHAR lozenge
ENCODING 9674
SWIDTH 442 0
DWIDTH 4 0
BBX 4 7 0 0
BITMAP
0870
0BB0
5675
A22A
5665
0BB0
0880
ENDCHAR
STARTCHAR uniEE01
ENCODING 60929
SWIDTH 271 0
DWIDTH 2 0
BBX 2 5 0 1
BITMAP
19
00
00
00
19
ENDCHAR
STARTCHAR uniEE02
ENCODING 60930
SWIDTH 298 0
DWIDTH 3 0
BBX 3 2 0 3
BITMAP
8640
8640
ENDCHAR
STARTCHAR uniF6C3
ENCODING 63171
SWIDTH 235 0
DWIDTH 2 0
BBX 2 2 0 -1
BITMAP
56
72
ENDCHAR
STARTCHAR uniFB01
ENCODING 64257
SWIDTH 489 0
DWIDTH 4 0
BBX 4 7 0 0
BITMAP
0BE3
3A11
CF6B
390B
390B
390B
390B
ENDCHAR
STARTCHAR uniFB02
ENCODING 64258
SWIDTH 503 0
DWIDTH 5 0
BBX 4 7 0 0
BITMAP
0AEB
1C1C
BF8C
1B0C
1B0C
1B0C
1B0C
ENDCHAR
STARTCHAR uniFB03
ENCODING 64259
SWIDTH 744 0
DWIDTH 7 0
BBX 6 7 0 0
BITMAP
0AB7E7
1C0C11
BFFFAB
1B0C0B
1B0C0B
1B0C0B
1B0C0B
ENDCHAR
STARTCHAR uniFB04
ENCODING 64260
SWIDTH 744 0
DWIDTH 7 0
BBX 6 7 0 0
BITMAP
0AB8ED
1C0C1C
BFFFAB
1B0C0B
1B0C0B
1B0C0B
1B0C0B
ENDCHAR
STARTCHAR uniFEFF
ENCODING 65279
SWIDTH 0 0
DWIDTH 0 0
BBX 1 1 0 0
BITMAP
00
ENDCHAR
STARTCHAR uniFFFC
ENCODING 65532
SWIDTH 1024 0
DWIDTH 9 0
BBX 9 9 0 -2
BITMAP
9CB8E7F7E0
7000000070
0000000000
04E8FB3600
74E8F88A70
0000000000
7000000070
0000000000
9CB8E7F7E0
ENDCHAR
STARTCHAR uniFFFD
ENCODING 65533
SWIDTH 1025 0
DWIDTH 9 0
BBX 9 9 0 -1
BITMAP
0001B20000
001BFD2000
00BFFFD100
0AF835FC10
5FFDD2FF90
0AFF4CFC10
00BFFFD100
001B2D2000
0001B20000
ENDCHAR
STARTCHAR .notdef
ENCODING -1
SWIDTH 392 0
DWIDTH 4 0
BBX 4 7 0 0
BITMAP
7FE1
3021
3331
3521
3331
3021
7FE1
ENDCHAR
STARTCHAR glyph369
ENCODING -1
SWIDTH 364 0
DWIDTH 3 0
BBX 3 2 0 5
BITMAP
75A0
3930
ENDCHAR
STARTCHAR uni2009.locl
ENCODING -1
SWIDTH 124 0
DWIDTH 1 0
BBX 1 1 0 0
BITMAP
00
ENDCHAR
STARTCHAR f_f.dlig
ENCODING -1
SWIDTH 546 0
DWIDTH 5 0
BBX 5 7 0 0
BITMAP
0AB9C0
1C0D10
BFFF90
1B0C00
1B0C00
1B0C00
1B0C00
ENDCHAR
STARTCHAR longs_t.dlig
ENCODING -1
SWIDTH 544 0
DWIDTH 5 0
BBX 5 8 0 -1
BITMAP
0BE900
1C1C00
BBBF80
1B0C00
1B0C00
1B0C00
1B0C70
010000
ENDCHAR
STARTCHAR s_t.dlig
ENCODING -1
SWIDTH 710 0
DWIDTH 6 0
BBX 7 7 0 0
BITMAP
003EC100
00759400
2DF9FF10
69357500
07B37500
55497600
2DE44E10
ENDCHAR
STARTCHAR two.dnom
ENCODING -1
SWIDTH 329 0
DWIDTH 3 0
BBX 3 4 0 0
BITMAP
6E50
3560
3900
9F90
ENDCHAR
STARTCHAR one.dnom
ENCODING -1
SWIDTH 329 0
DWIDTH 3 0
BBX 2 4 0 0
BITMAP
1A
7D
0A
0A
ENDCHAR
STARTCHAR zero.dnom
ENCODING -1
SWIDTH 329 0
DWIDTH 3 0
BBX 3 4 0 0
BITMAP
5E40
9480
9480
5E40
ENDCHAR
STARTCHAR nine.c2sc
ENCODING -1
SWIDTH 447 0
DWIDTH 4 0
BBX 4 5 0 0
BITMAP
3DD2
8677
4ED7
01A5
0D90
ENDCHAR
STARTCHAR eight.c2sc
ENCODING -1
SWIDTH 447 0
DWIDTH 4 0
BBX 4 5 0 0
BITMAP
2DD3
6876
2EF2
7668
3EE4
ENDCHAR
STARTCHAR seven.c2sc
ENCODING -1
SWIDTH 447 0
DWIDTH 4 0
BBX 4 5 0 0
BITMAP
AFFA
0065
00B0
0660
0B00
ENDCHAR
STARTCHAR six.c2sc
ENCODING -1
SWIDTH 447 0
DWIDTH 4 0
BBX 4 5 0 0
BITMAP
09D0
5A10
7DE4
7759
1DE4
ENDCHAR
STARTCHAR five.c2sc
ENCODING -1
SWIDTH 447 0
DWIDTH 4 0
BBX 4 5 0 0
BITMAP
2FF7
3800
4EE4
3359
2DE4
ENDCHAR
STARTCHAR four.c2sc
ENCODING -1
SWIDTH 447 0
DWIDTH 4 0
BBX 4 5 0 0
BITMAP
01E2
09C2
4692
BFFC
0092
ENDCHAR
STARTCHAR three.c2sc
ENCODING -1
SWIDTH 447 0
DWIDTH 4 0
BBX 4 5 0 0
BITMAP
3DD2
5486
09E2
6477
3ED3
ENDCHAR
STARTCHAR two.c2sc
ENCODING -1
SWIDTH 447 0
DWIDTH 4 0
BBX 4 5 0 0
BITMAP
3DD3
6367
01B2
1A30
8FFB
ENDCHAR
STARTCHAR one.c2sc
ENCODING -1
SWIDTH 447 0
DWIDTH 4 0
BBX 3 5 0 0
BITMAP
0780
5A90
0390
0390
0390
ENDCHAR
STARTCHAR zero.c2sc
ENCODING -1
SWIDTH 447 0
DWIDTH 4 0
BBX 4 5 0 0
BITMAP
2DD2
7668
8339
7667
2DD2
ENDCHAR
STARTCHAR Z.c2sc
ENCODING -1
SWIDTH 454 0
DWIDTH 4 0
BBX 4 5 0 0
BITMAP
AFFA
0093
0660
3900
AFFC
ENDCHAR
STARTCHAR Y.c2sc
ENCODING -1
SWIDTH 458 0
DWIDTH 4 0
BBX 4 5 0 0
BITMAP
A32B
2A84
0AB0
0570
0570
ENDCHAR
STARTCHAR X.c2sc
ENCODING -1
SWIDTH 478 0
DWIDTH 4 0
BBX 4 5 0 0
BITMAP
762B
0BA3
07B0
1CA3
762B
ENDCHAR
STARTCHAR W.c2sc
ENCODING -1
SWIDTH 655 0
DWIDTH 6 0
BBX 6 5 0 0
BITMAP
927739
659955
379982
0C67C0
0C33B0
ENDCHAR
STARTCHAR V.c2sc
ENCODING -1
SWIDTH 487 0
DWIDTH 4 0
BBX 5 5 0 0
BITMAP
A20B10
561B00
1A5600
0AA100
05B000
ENDCHAR
STARTCHAR U.c2sc
ENCODING -1
SWIDTH 488 0
DWIDTH 4 0
BBX 4 5 0 0
BITMAP
840C
840C
840C
772C
2DE6
ENDCHAR
STARTCHAR T.c2sc
ENCODING -1
SWIDTH 456 0
DWIDTH 4 0
BBX 4 5 0 0
BITMAP
CFFD
0570
0570
0570
0570
ENDCHAR
STARTCHAR S.c2sc
ENCODING -1
SWIDTH 453 0
DWIDTH 4 0
BBX 4 5 0 0
BITMAP
3DD3
7959
19D5
853A
1CE5
ENDCHAR
STARTCHAR R.c2sc
ENCODING -1
SWIDTH 465 0
DWIDTH 4 0
BBX 4 5 0 0
BITMAP
6FE6
653C
6FF5
6585
651C
ENDCHAR
STARTCHAR Q.c2sc
ENCODING -1
SWIDTH 519 0
DWIDTH 5 0
BBX 5 6 0 -1
BITMAP
1BE700
771C10
930830
771C10
1BFA00
000810
ENDCHAR
STARTCHAR P.c2sc
ENCODING -1
SWIDTH 481 0
DWIDTH 4 0
BBX 4 5 0 0
BITMAP
6FF8
651D
6FF9
6500
6500
ENDCHAR
STARTCHAR O.c2sc
ENCODING -1
SWIDTH 519 0
DWIDTH 5 0
BBX 5 5 0 0
BITMAP
1BE700
671C10
830830
671C10
1BE800
ENDCHAR
STARTCHAR N.c2sc
ENCODING -1
SWIDTH 533 0
DWIDTH 5 0
BBX 5 5 0 0
BITMAP
690830
6C3830
66A830
656D30
650C30
ENDCHAR
STARTCHAR M.c2sc
ENCODING -1
SWIDTH 652 0
DWIDTH 6 0
BBX 6 5 0 0
BITMAP
6B00D4
6D23D4
687994
65AA74
658674
ENDCHAR
STARTCHAR L.c2sc
ENCODING -1
SWIDTH 411 0
DWIDTH 4 0
BBX 4 5 0 0
BITMAP
6500
6500
6500
6500
6FF7
ENDCHAR
STARTCHAR K.c2sc
ENCODING -1
SWIDTH 473 0
DWIDTH 4 0
BBX 5 5 0 0
BITMAP
654A00
67C100
6E9000
66A300
652C10
ENDCHAR
STARTCHAR J.c2sc
ENCODING -1
SWIDTH 419 0
DWIDTH 4 0
BBX 4 5 0 0
BITMAP
0084
0084
0084
62A3
6EB0
ENDCHAR
STARTCHAR I.c2sc
ENCODING -1
SWIDTH 221 0
DWIDTH 2 0
BBX 2 5 0 0
BITMAP
66
66
66
66
66
ENDCHAR
STARTCHAR H.c2sc
ENCODING -1
SWIDTH 533 0
DWIDTH 5 0
BBX 5 5 0 0
BITMAP
650830
650830
6FFF30
650830
650830
ENDCHAR
STARTCHAR G.c2sc
ENCODING -1
SWIDTH 509 0
DWIDTH 5 0
BBX 5 5 0 0
BITMAP
1BE800
771700
83AF10
780B10
1BEA00
ENDCHAR
STARTCHAR F.c2sc
ENCODING -1
SWIDTH 415 0
DWIDTH 4 0
BBX 4 5 0 0
BITMAP
6FF7
6500
6FF3
6500
6500
ENDCHAR
STARTCHAR dollar.c2sc
ENCODING -1
SWIDTH 453 0
DWIDTH 4 0
BBX 4 7 0 -1
BITMAP
0360
3DE5
7936
19E5
633B
3DE5
0370
ENDCHAR
STARTCHAR sterling.c2sc
ENCODING -1
SWIDTH 467 0
DWIDTH 4 0
BBX 4 5 0 0
BITMAP
0BE5
2A24
BFF1
3800
7FFD
ENDCHAR
STARTCHAR yen.c2sc
ENCODING -1
SWIDTH 400 0
DWIDTH 4 0
BBX 4 5 0 0
BITMAP
A284
58C0
0E90
9FF2
9FF2
ENDCHAR
STARTCHAR Gamma.c2sc
ENCODING -1
SWIDTH 405 0
DWIDTH 4 0
BBX 4 5 0 0
BITMAP
6FF6
6500
6500
6500
6500
ENDCHAR
STARTCHAR Delta.c2sc
ENCODING -1
SWIDTH 487 0
DWIDTH 4 0
BBX 5 5 0 0
BITMAP
05B000
0AA100
1A4600
550A00
AFFF10
ENDCHAR
STARTCHAR Theta.c2sc
ENCODING -1
SWIDTH 519 0
DWIDTH 5 0
BBX 5 5 0 0
BITMAP
1BE700
671C10
8BFB30
671C10
1BE800
ENDCHAR
STARTCHAR Lambda.c2sc
ENCODING -1
SWIDTH 487 0
DWIDTH 4 0
BBX 5 5 0 0
BITMAP
05B000
0AA100
1A5600
561B00
A20B10
ENDCHAR
STARTCHAR Xi.c2sc
ENCODING -1
SWIDTH 389 0
DWIDTH 4 0
BBX 4 5 0 0
BITMAP
BFF3
0000
7FF0
0000
BFF3
ENDCHAR
STARTCHAR Pi.c2sc
ENCODING -1
SWIDTH 525 0
DWIDTH 5 0
BBX 5 5 0 0
BITMAP
6FFF20
650920
650920
650920
650920
ENDCHAR
STARTCHAR Sigma.c2sc
ENCODING -1
SWIDTH 435 0
DWIDTH 4 0
BBX 4 5 0 0
BITMAP
AFF8
4900
0A40
4900
AFFA
ENDCHAR
STARTCHAR Phi.c2sc
ENCODING -1
SWIDTH 587 0
DWIDTH 5 0
BBX 5 5 0 0
BITMAP
00B000
2CFE50
86B3C0
2CFE50
00B000
ENDCHAR
STARTCHAR Psi.c2sc
ENCODING -1
SWIDTH 560 0
DWIDTH 5 0
BBX 5 5 0 0
BITMAP
83C390
83C390
68C860
1BFB10
00C000
ENDCHAR
STARTCHAR Omega.c2sc
ENCODING -1
SWIDTH 540 0
DWIDTH 5 0
BBX 5 5 0 0
BITMAP
1BE900
681A40
750650
291A10
7F9F50
ENDCHAR
STARTCHAR uni0402.c2sc
ENCODING -1
SWIDTH 596 0
DWIDTH 5 0
BBX 5 5 0 0
BITMAP
CFF900
074000
07EE90
0761D0
074A90
ENDCHAR
STARTCHAR uni0404.c2sc
ENCODING -1
SWIDTH 490 0
DWIDTH 4 0
BBX 4 5 0 0
BITMAP
1BE7
7619
8FC0
7618
1CE8
ENDCHAR
STARTCHAR uni0409.c2sc
ENCODING -1
SWIDTH 782 0
DWIDTH 7 0
BBX 7 5 0 0
BITMAP
0DFF2000
0C0A2000
0C0AFE40
2B0A25A0
B50AFE40
ENDCHAR
STARTCHAR uni040A.c2sc
ENCODING -1
SWIDTH 788 0
DWIDTH 7 0
BBX 7 5 0 0
BITMAP
65093000
65093000
6FFFFE50
650934B0
6509FE50
ENDCHAR
STARTCHAR uni040B.c2sc
ENCODING -1
SWIDTH 596 0
DWIDTH 5 0
BBX 5 5 0 0
BITMAP
CFF900
084000
08EE90
0861D0
0840C0
ENDCHAR
STARTCHAR uni040F.c2sc
ENCODING -1
SWIDTH 524 0
DWIDTH 5 0
BBX 5 7 0 -2
BITMAP
650920
650920
650920
650920
6FFF20
00B000
00B000
ENDCHAR
STARTCHAR uni0411.c2sc
ENCODING -1
SWIDTH 479 0
DWIDTH 4 0
BBX 4 5 0 0
BITMAP
6FF8
6500
6FE7
652D
6FF7
ENDCHAR
STARTCHAR uni0414.c2sc
ENCODING -1
SWIDTH 563 0
DWIDTH 5 0
BBX 5 7 0 -2
BITMAP
0BFF40
0B1840
0B0840
2A0840
BFFFC0
B000C0
B000C0
ENDCHAR
STARTCHAR uni0416.c2sc
ENCODING -1
SWIDTH 651 0
DWIDTH 6 0
BBX 6 5 0 0
BITMAP
6775A4
0C87B0
08FF60
1D77D0
877596
ENDCHAR
STARTCHAR uni0417.c2sc
ENCODING -1
SWIDTH 466 0
DWIDTH 4 0
BBX 4 5 0 0
BITMAP
4EE4
3259
08F3
424A
4EE5
ENDCHAR
STARTCHAR uni0418.c2sc
ENCODING -1
SWIDTH 537 0
DWIDTH 5 0
BBX 5 5 0 0
BITMAP
650C40
656D40
66B840
6D3840
6A0840
ENDCHAR
STARTCHAR uni041A.c2sc
ENCODING -1
SWIDTH 473 0
DWIDTH 4 0
BBX 4 5 0 0
BITMAP
6559
66B1
6F70
66C1
654B
ENDCHAR
STARTCHAR uni041B.c2sc
ENCODING -1
SWIDTH 521 0
DWIDTH 5 0
BBX 5 5 0 0
BITMAP
0DFF20
0C0A20
0C0A20
2B0A20
B60A20
ENDCHAR
STARTCHAR uni0423.c2sc
ENCODING -1
SWIDTH 454 0
DWIDTH 4 0
BBX 4 5 0 0
BITMAP
942B
3975
0AB0
0790
3E20
ENDCHAR
STARTCHAR uni0426.c2sc
ENCODING -1
SWIDTH 564 0
DWIDTH 5 0
BBX 5 7 0 -2
BITMAP
650920
650920
650920
650920
6FFFC0
0000B0
0000B0
ENDCHAR
STARTCHAR uni0427.c2sc
ENCODING -1
SWIDTH 487 0
DWIDTH 4 0
BBX 4 5 0 0
BITMAP
B10C
B10C
942C
3EDC
000C
ENDCHAR
STARTCHAR uni0428.c2sc
ENCODING -1
SWIDTH 691 0
DWIDTH 6 0
BBX 6 5 0 0
BITMAP
65482A
65482A
65482A
65482A
6FFFFA
ENDCHAR
STARTCHAR uni0429.c2sc
ENCODING -1
SWIDTH 731 0
DWIDTH 7 0
BBX 7 7 0 -2
BITMAP
65482A00
65482A00
65482A00
65482A00
6FFFFF50
00000740
00000740
ENDCHAR
STARTCHAR uni042A.c2sc
ENCODING -1
SWIDTH 559 0
DWIDTH 5 0
BBX 5 5 0 0
BITMAP
DF2000
0A2000
0AFE40
0A25A0
0AFE40
ENDCHAR
STARTCHAR uni042B.c2sc
ENCODING -1
SWIDTH 658 0
DWIDTH 6 0
BBX 6 5 0 0
BITMAP
650065
650065
6FE765
652D65
6FF765
ENDCHAR
STARTCHAR uni042C.c2sc
ENCODING -1
SWIDTH 475 0
DWIDTH 4 0
BBX 4 5 0 0
BITMAP
6500
6500
6FE7
652D
6FF7
ENDCHAR
STARTCHAR uni042D.c2sc
ENCODING -1
SWIDTH 491 0
DWIDTH 4 0
BBX 4 5 0 0
BITMAP
3DE4
642C
05FF
642C
3DE5
ENDCHAR
STARTCHAR uni042E.c2sc
ENCODING -1
SWIDTH 705 0
DWIDTH 6 0
BBX 6 5 0 0
BITMAP
654DD3
65C33B
6FD00B
65C33B
654DD4
ENDCHAR
STARTCHAR uni042F.c2sc
ENCODING -1
SWIDTH 499 0
DWIDTH 4 0
BBX 4 5 0 0
BITMAP
2DFE
590C
1DFE
0B0C
670C
ENDCHAR
STARTCHAR uni0492.c2sc
ENCODING -1
SWIDTH 444 0
DWIDTH 4 0
BBX 4 5 0 0
BITMAP
1FFC
1B00
DF80
1B00
1B00
ENDCHAR
STARTCHAR uni0496.c2sc
ENCODING -1
SWIDTH 676 0
DWIDTH 6 0
BBX 6 7 0 -2
BITMAP
6775A4
0C87B0
08FF70
1D77E1
87759E
00000B
000005
ENDCHAR
STARTCHAR uni049A.c2sc
ENCODING -1
SWIDTH 492 0
DWIDTH 4 0
BBX 5 7 0 -2
BITMAP
655900
66B100
6F7000
66D300
654F30
000830
000830
ENDCHAR
STARTCHAR uni049C.c2sc
ENCODING -1
SWIDTH 562 0
DWIDTH 5 0
BBX 5 5 0 0
BITMAP
650860
6B7A00
6FF400
6A6C00
650780
ENDCHAR
STARTCHAR uni04A0.c2sc
ENCODING -1
SWIDTH 571 0
DWIDTH 5 0
BBX 5 5 0 0
BITMAP
CF4770
086B00
08F500
086C10
084690
ENDCHAR
STARTCHAR uni04A8.c2sc
ENCODING -1
SWIDTH 625 0
DWIDTH 6 0
BBX 6 5 0 0
BITMAP
1C7E80
76C2C0
83B0B0
6865B0
0AEFC2
ENDCHAR
STARTCHAR uni04B0.c2sc
ENCODING -1
SWIDTH 480 0
DWIDTH 4 0
BBX 4 5 0 0
BITMAP
A32B
2A84
0AB0
2FF4
0570
ENDCHAR
STARTCHAR uni04B2.c2sc
ENCODING -1
SWIDTH 514 0
DWIDTH 5 0
BBX 5 7 0 -2
BITMAP
762B00
0BA300
07C000
1CA500
762F60
000560
000560
ENDCHAR
STARTCHAR uni04B4.c2sc
ENCODING -1
SWIDTH 695 0
DWIDTH 6 0
BBX 6 7 0 -2
BITMAP
CFF9A1
0740A1
0740A1
0740A1
07FFFB
00000B
00000B
ENDCHAR
STARTCHAR uni04B8.c2sc
ENCODING -1
SWIDTH 487 0
DWIDTH 4 0
BBX 4 5 0 0
BITMAP
B10C
B10C
987C
3EEC
035C
ENDCHAR
STARTCHAR uni04BA.c2sc
ENCODING -1
SWIDTH 487 0
DWIDTH 4 0
BBX 5 5 0 0
BITMAP
650000
650000
6EE900
661C10
650A10
ENDCHAR
STARTCHAR uni04BC.c2sc
ENCODING -1
SWIDTH 632 0
DWIDTH 6 0
BBX 6 5 0 0
BITMAP
01CE80
B861A2
6FFFF4
086020
01BE80
ENDCHAR
STARTCHAR uni04D8.c2sc
ENCODING -1
SWIDTH 527 0
DWIDTH 5 0
BBX 5 5 0 0
BITMAP
0CE800
021A30
8FFF50
661A20
1BE800
ENDCHAR
STARTCHAR uni04E0.c2sc
ENCODING -1
SWIDTH 466 0
DWIDTH 4 0
BBX 4 5 0 0
BITMAP
8FF8
02A1
07D4
425A
4DE4
ENDCHAR
STARTCHAR uni04E8.c2sc
ENCODING -1
SWIDTH 519 0
DWIDTH 5 0
BBX 5 5 0 0
BITMAP
1BE700
671B10
8FFF30
671B10
1BE800
ENDCHAR
STARTCHAR lira.c2sc
ENCODING -1
SWIDTH 467 0
DWIDTH 4 0
BBX 4 5 0 0
BITMAP
0BE5
2B25
FFF2
4800
7FFD
ENDCHAR
STARTCHAR Euro.c2sc
ENCODING -1
SWIDTH 433 0
DWIDTH 4 0
BBX 4 5 0 0
BITMAP
07E7
0D11
FFF5
0D11
07E7
ENDCHAR
STARTCHAR uni2116.c2sc
ENCODING -1
SWIDTH 884 0
DWIDTH 8 0
BBX 8 5 0 0
BITMAP
69084CE2
6C385A66
66A84CE2
656D3000
650C3EF2
ENDCHAR
STARTCHAR uni20BD.c2sc
ENCODING -1
SWIDTH 512 0
DWIDTH 5 0
BBX 5 5 0 0
BITMAP
1FFB10
1B0A40
CFFC10
1B0000
CF9000
ENDCHAR
STARTCHAR three.dnom
ENCODING -1
SWIDTH 329 0
DWIDTH 3 0
BBX 3 4 0 0
BITMAP
4D50
0E40
2380
7E40
ENDCHAR
STARTCHAR four.dnom
ENCODING -1
SWIDTH 329 0
DWIDTH 3 0
BBX 3 4 0 0
BITMAP
0A50
4A50
AFA0
0550
ENDCHAR
STARTCHAR five.dnom
ENCODING -1
SWIDTH 329 0
DWIDTH 3 0
BBX 3 4 0 0
BITMAP
6F70
7E50
2390
5E40
ENDCHAR
STARTCHAR six.dnom
ENCODING -1
SWIDTH 329 0
DWIDTH 3 0
BBX 3 4 0 0
BITMAP
2D20
8E60
9490
4E50
ENDCHAR
STARTCHAR seven.dnom
ENCODING -1
SWIDTH 329 0
DWIDTH 3 0
BBX 3 4 0 0
BITMAP
BF90
0440
0900
2800
ENDCHAR
STARTCHAR eight.dnom
ENCODING -1
SWIDTH 329 0
DWIDTH 3 0
BBX 3 4 0 0
BITMAP
5E50
6C50
8970
6E50
ENDCHAR
STARTCHAR nine.dnom
ENCODING -1
SWIDTH 329 0
DWIDTH 3 0
BBX 3 4 0 0
BITMAP
6E40
8B80
1970
2D20
ENDCHAR
STARTCHAR glyph550
ENCODING -1
SWIDTH 404 0
DWIDTH 4 0
BBX 3 1 0 3
BITMAP
5FF0
ENDCHAR
STARTCHAR glyph551
ENCODING -1
SWIDTH 306 0
DWIDTH 3 0
BBX 3 3 0 5
BITMAP
0830
0800
3F00
ENDCHAR
STARTCHAR E.c2sc
ENCODING -1
SWIDTH 428 0
DWIDTH 4 0
BBX 4 5 0 0
BITMAP
6FF8
6500
6FF4
6500
6FF9
ENDCHAR
STARTCHAR g.ss01
ENCODING -1
SWIDTH 463 0
DWIDTH 4 0
BBX 4 7 0 -2
BITMAP
3DFF
8668
3FE4
5600
5FF8
B22C
7ED5
ENDCHAR
STARTCHAR alpha.ss02
ENCODING -1
SWIDTH 523 0
DWIDTH 5 0
BBX 5 5 0 0
BITMAP
1CDA20
683E00
840B00
773E00
1DDA20
ENDCHAR
STARTCHAR R.ss03
ENCODING -1
SWIDTH 577 0
DWIDTH 5 0
BBX 5 7 0 0
BITMAP
4FFC20
480770
480760
4FFD00
480960
480570
480490
ENDCHAR
STARTCHAR K.ss04
ENCODING -1
SWIDTH 560 0
DWIDTH 5 0
BBX 5 7 0 0
BITMAP
480780
482D10
48A500
4FE000
488700
481D20
4805A0
ENDCHAR
STARTCHAR k.ss04
ENCODING -1
SWIDTH 453 0
DWIDTH 4 0
BBX 4 7 0 0
BITMAP
6600
6600
6668
66C1
6F90
66C2
663B
ENDCHAR
STARTCHAR K.ss05
ENCODING -1
SWIDTH 572 0
DWIDTH 5 0
BBX 5 7 0 0
BITMAP
480960
485A00
49C100
4F8000
49C200
483C00
480780
ENDCHAR
STARTCHAR k.ss05
ENCODING -1
SWIDTH 454 0
DWIDTH 4 0
BBX 4 7 0 0
BITMAP
6600
6600
6696
6A90
6F30
68C0
6668
ENDCHAR
STARTCHAR D.c2sc
ENCODING -1
SWIDTH 492 0
DWIDTH 4 0
BBX 4 5 0 0
BITMAP
6FD4
652C
650C
653C
6FD4
ENDCHAR
STARTCHAR C.c2sc
ENCODING -1
SWIDTH 490 0
DWIDTH 4 0
BBX 4 5 0 0
BITMAP
1BE5
771C
8301
771C
1CE6
ENDCHAR
STARTCHAR B.c2sc
ENCODING -1
SWIDTH 475 0
DWIDTH 4 0
BBX 4 5 0 0
BITMAP
6FE5
654A
6FF5
652B
6FE7
ENDCHAR
STARTCHAR A.c2sc
ENCODING -1
SWIDTH 501 0
DWIDTH 5 0
BBX 5 5 0 0
BITMAP
04C000
09A200
0A3700
5FFC00
A20930
ENDCHAR
STARTCHAR glyph564
ENCODING -1
SWIDTH 236 0
DWIDTH 2 0
BBX 2 2 0 5
BITMAP
18
47
ENDCHAR
STARTCHAR glyph565
ENCODING -1
SWIDTH 402 0
DWIDTH 4 0
BBX 3 4 0 5
BITMAP
0900
0600
65A0
2D60
ENDCHAR
STARTCHAR glyph566
ENCODING -1
SWIDTH 0 0
DWIDTH 0 0
BBX 2 2 -3 6
BITMAP
27
A8
ENDCHAR
STARTCHAR glyph567
ENCODING -1
SWIDTH 455 0
DWIDTH 4 0
BBX 5 3 0 6
BITMAP
000930
0B9900
38A200
ENDCHAR
STARTCHAR glyph568
ENCODING -1
SWIDTH 454 0
DWIDTH 4 0
BBX 5 3 -1 6
BITMAP
660000
18B800
047A10
ENDCHAR
STARTCHAR glyph569
ENCODING -1
SWIDTH 446 0
DWIDTH 4 0
BBX 4 4 0 6
BITMAP
0017
000A
0BA8
4691
ENDCHAR
STARTCHAR glyph570
ENCODING -1
SWIDTH 453 0
DWIDTH 4 0
BBX 4 4 0 6
BITMAP
0B50
1690
0B80
4691
ENDCHAR
STARTCHAR uni0490.c2sc
ENCODING -1
SWIDTH 405 0
DWIDTH 4 0
BBX 4 7 0 0
BITMAP
0022
0056
6FF6
6500
6500
6500
6500
ENDCHAR
STARTCHAR glyph572
ENCODING -1
SWIDTH 404 0
DWIDTH 4 0
BBX 3 4 0 5
BITMAP
0450
0510
65A0
2D60
ENDCHAR
STARTCHAR glyph573
ENCODING -1
SWIDTH 404 0
DWIDTH 4 0
BBX 3 4 0 5
BITMAP
0540
0830
65A0
2E50
ENDCHAR
STARTCHAR zero.numr
ENCODING -1
SWIDTH 329 0
DWIDTH 3 0
BBX 3 4 0 3
BITMAP
5E40
9480
9480
5E40
ENDCHAR
STARTCHAR four.numr
ENCODING -1
SWIDTH 329 0
DWIDTH 3 0
BBX 3 4 0 3
BITMAP
0A50
4A50
AFA0
0550
ENDCHAR
STARTCHAR five.numr
ENCODING -1
SWIDTH 329 0
DWIDTH 3 0
BBX 3 4 0 3
BITMAP
6F70
7E50
2390
5E40
ENDCHAR
STARTCHAR six.numr
ENCODING -1
SWIDTH 329 0
DWIDTH 3 0
BBX 3 4 0 3
BITMAP
2D20
8E60
9490
4E50
ENDCHAR
STARTCHAR seven.numr
ENCODING -1
SWIDTH 329 0
DWIDTH 3 0
BBX 3 4 0 3
BITMAP
BF90
0440
0900
2800
ENDCHAR
STARTCHAR eight.numr
ENCODING -1
SWIDTH 329 0
DWIDTH 3 0
BBX 3 4 0 3
BITMAP
5E50
6C50
8970
6E50
ENDCHAR
STARTCHAR nine.numr
ENCODING -1
SWIDTH 329 0
DWIDTH 3 0
BBX 3 4 0 3
BITMAP
6E40
8B80
1970
2D20
ENDCHAR
STARTCHAR C.ss06
ENCODING -1
SWIDTH 603 0
DWIDTH 5 0
BBX 5 7 0 0
BITMAP
06ED30
2D23C0
670020
760000
670020
2D23C0
05ED40
ENDCHAR
STARTCHAR G.ss06
ENCODING -1
SWIDTH 618 0
DWIDTH 6 0
BBX 5 7 0 0
BITMAP
06ED40
2D23C0
570010
760000
570FF0
1D21D0
05EE80
ENDCHAR
STARTCHAR D.ss06
ENCODING -1
SWIDTH 608 0
DWIDTH 5 0
BBX 5 7 0 0
BITMAP
4FFA00
481970
4801C0
4800C0
4801C0
481970
4FF900
ENDCHAR
STARTCHAR O.ss06
ENCODING -1
SWIDTH 643 0
DWIDTH 6 0
BBX 6 7 0 0
BITMAP
05ED30
1D24C0
5700B2
760093
5700B2
1D24C0
05ED30
ENDCHAR
STARTCHAR Q.ss06
ENCODING -1
SWIDTH 644 0
DWIDTH 6 0
BBX 6 8 0 -1
BITMAP
05ED30
1D24C0
5800B2
760093
5700B2
1D24C0
05EF40
000490
ENDCHAR
STARTCHAR one.oldstyle.pnum
ENCODING -1
SWIDTH 421 0
DWIDTH 4 0
BBX 3 5 0 0
BITMAP
06A0
5AC0
00C0
00C0
00C0
ENDCHAR
STARTCHAR two.oldstyle.pnum
ENCODING -1
SWIDTH 492 0
DWIDTH 4 0
BBX 4 5 0 0
BITMAP
1BE6
472B
00A3
0A40
4FFF
ENDCHAR
STARTCHAR three.oldstyle.pnum
ENCODING -1
SWIDTH 474 0
DWIDTH 4 0
BBX 4 7 0 -2
BITMAP
9FFA
0182
08D2
0059
001B
3178
8EB1
ENDCHAR
STARTCHAR four.oldstyle.pnum
ENCODING -1
SWIDTH 524 0
DWIDTH 5 0
BBX 5 6 0 -1
BITMAP
006B00
01AB00
083B00
271B00
9FFF70
001B00
ENDCHAR
STARTCHAR five.oldstyle.pnum
ENCODING -1
SWIDTH 483 0
DWIDTH 4 0
BBX 4 7 0 -2
BITMAP
2FFD
3800
5DE4
223B
000C
214B
4DD3
ENDCHAR
STARTCHAR seven.oldstyle.pnum
ENCODING -1
SWIDTH 458 0
DWIDTH 4 0
BBX 4 6 0 -1
BITMAP
AFFC
0037
0091
0290
0830
1B00
ENDCHAR
STARTCHAR glyph592
ENCODING -1
SWIDTH 402 0
DWIDTH 4 0
BBX 3 5 0 5
BITMAP
2A50
4670
0000
65A0
2D60
ENDCHAR
STARTCHAR glyph593
ENCODING -1
SWIDTH 183 0
DWIDTH 2 0
BBX 2 2 0 -1
BITMAP
93
93
ENDCHAR
STARTCHAR OE.c2sc
ENCODING -1
SWIDTH 714 0
DWIDTH 6 0
BBX 7 5 0 0
BITMAP
1BFFFF20
670C0000
830DFC00
670C0000
1BFFFF20
ENDCHAR
STARTCHAR nine.oldstyle.pnum
ENCODING -1
SWIDTH 520 0
DWIDTH 5 0
BBX 5 7 0 -2
BITMAP
0AE600
4A1C10
660920
4A1C30
0AEE10
012B00
0DD300
ENDCHAR
STARTCHAR glyph596
ENCODING -1
SWIDTH 234 0
DWIDTH 2 0
BBX 3 3 -1 -2
BITMAP
0480
0670
1E30
ENDCHAR
STARTCHAR three.oldstyle
ENCODING -1
SWIDTH 494 0
DWIDTH 4 0
BBX 4 7 0 -2
BITMAP
7FFC
0083
06E4
003C
000C
215A
6EC2
ENDCHAR
STARTCHAR five.oldstyle
ENCODING -1
SWIDTH 494 0
DWIDTH 4 0
BBX 4 7 0 -2
BITMAP
1FFE
2800
4EE5
232C
000C
213B
3DD3
ENDCHAR
STARTCHAR four.oldstyle
ENCODING -1
SWIDTH 494 0
DWIDTH 4 0
BBX 5 6 0 -1
BITMAP
007A00
01BA00
084A00
362A00
BFFF50
002A00
ENDCHAR
STARTCHAR two.oldstyle
ENCODING -1
SWIDTH 494 0
DWIDTH 4 0
BBX 4 5 0 0
BITMAP
1BE6
573A
00A3
0A40
5FFE
ENDCHAR
STARTCHAR seven.oldstyle
ENCODING -1
SWIDTH 494 0
DWIDTH 4 0
BBX 4 6 0 -1
BITMAP
7FFF
0019
0073
00B0
0560
0B00
ENDCHAR
STARTCHAR zero.oldstyle
ENCODING -1
SWIDTH 494 0
DWIDTH 4 0
BBX 5 5 0 0
BITMAP
2CE600
861C00
A10A20
861C10
2CE600
ENDCHAR
STARTCHAR six.oldstyle
ENCODING -1
SWIDTH 494 0
DWIDTH 4 0
BBX 4 7 0 0
BITMAP
05D3
1C20
5BE5
692C
660C
4A2C
0AE5
ENDCHAR
STARTCHAR nine.oldstyle
ENCODING -1
SWIDTH 494 0
DWIDTH 4 0
BBX 4 7 0 -2
BITMAP
1BE4
672C
830C
682D
1CED
014A
2EC2
ENDCHAR
STARTCHAR eight.oldstyle
ENCODING -1
SWIDTH 494 0
DWIDTH 4 0
BBX 4 7 0 0
BITMAP
0BE4
593B
492A
0CF4
582B
682C
1CE5
ENDCHAR
STARTCHAR one.oldstyle
ENCODING -1
SWIDTH 494 0
DWIDTH 4 0
BBX 4 5 0 0
BITMAP
04C1
1BC1
00A1
00A1
00A1
ENDCHAR
STARTCHAR glyph607
ENCODING -1
SWIDTH 237 0
DWIDTH 2 0
BBX 3 7 -1 -2
BITMAP
0470
0470
0470
0470
0470
0670
1E30
ENDCHAR
STARTCHAR glyph608
ENCODING -1
SWIDTH 238 0
DWIDTH 2 0
BBX 3 7 -1 -2
BITMAP
0470
0470
0470
0470
0470
0670
1E30
ENDCHAR
STARTCHAR glyph609
ENCODING -1
SWIDTH 235 0
DWIDTH 2 0
BBX 2 5 0 0
BITMAP
56
56
56
56
56
ENDCHAR
STARTCHAR glyph610
ENCODING -1
SWIDTH 235 0
DWIDTH 2 0
BBX 2 7 0 -2
BITMAP
56
56
56
56
67
81
B5
ENDCHAR
STARTCHAR glyph611
ENCODING -1
SWIDTH 235 0
DWIDTH 2 0
BBX 2 5 0 0
BITMAP
56
56
56
56
56
ENDCHAR
STARTCHAR germandbls.sc
ENCODING -1
SWIDTH 475 0
DWIDTH 4 0
BBX 4 5 0 0
BITMAP
2DE4
6891
68F7
662C
69E6
ENDCHAR
STARTCHAR zero.oldstyle.pnum
ENCODING -1
SWIDTH 545 0
DWIDTH 5 0
BBX 5 5 0 0
BITMAP
0AE900
591A30
750650
591A40
0AE900
ENDCHAR
STARTCHAR seven.pnum
ENCODING -1
SWIDTH 458 0
DWIDTH 4 0
BBX 4 7 0 0
BITMAP
AFFB
0037
0092
00B0
0470
0920
0B00
ENDCHAR
STARTCHAR b.ss06
ENCODING -1
SWIDTH 493 0
DWIDTH 4 0
BBX 5 7 0 0
BITMAP
650000
650000
6CE600
682D00
650B10
681D00
6CE600
ENDCHAR
STARTCHAR c.ss06
ENCODING -1
SWIDTH 460 0
DWIDTH 4 0
BBX 4 5 0 0
BITMAP
1CE5
7728
8300
7727
1CE4
ENDCHAR
STARTCHAR d.ss06
ENCODING -1
SWIDTH 503 0
DWIDTH 5 0
BBX 4 7 0 0
BITMAP
000C
000C
1CDD
681D
830C
681D
1CDC
ENDCHAR
STARTCHAR g.ss06
ENCODING -1
SWIDTH 500 0
DWIDTH 5 0
BBX 4 7 0 -2
BITMAP
1CDC
682D
830C
671D
1CDD
012C
1DE5
ENDCHAR
STARTCHAR o.ss06
ENCODING -1
SWIDTH 508 0
DWIDTH 5 0
BBX 5 5 0 0
BITMAP
0BE600
681C00
830A20
681C00
1BE600
ENDCHAR
STARTCHAR p.ss06
ENCODING -1
SWIDTH 500 0
DWIDTH 5 0
BBX 5 7 0 -2
BITMAP
6CE600
682D00
650B10
672D00
6DE600
650000
650000
ENDCHAR
STARTCHAR q.ss06
ENCODING -1
SWIDTH 508 0
DWIDTH 5 0
BBX 4 7 0 -2
BITMAP
1CDC
681D
830C
681D
1CDD
000C
000C
ENDCHAR
STARTCHAR e.ss07
ENCODING -1
SWIDTH 468 0
DWIDTH 4 0
BBX 4 5 0 0
BITMAP
1BE4
672B
8FFD
6712
0BE6
ENDCHAR
STARTCHAR g.ss07
ENCODING -1
SWIDTH 492 0
DWIDTH 4 0
BBX 4 7 0 -2
BITMAP
1CDC
772C
830C
772C
1CDC
012B
0DE4
ENDCHAR
STARTCHAR one.pnum
ENCODING -1
SWIDTH 382 0
DWIDTH 3 0
BBX 3 7 0 0
BITMAP
1870
8980
0480
0480
0480
0480
0480
ENDCHAR
STARTCHAR ampersand.c2sc
ENCODING -1
SWIDTH 526 0
DWIDTH 5 0
BBX 5 5 0 0
BITMAP
1DC100
2AB100
1C8510
759C00
4EDB20
ENDCHAR
STARTCHAR Lslash.c2sc
ENCODING -1
SWIDTH 411 0
DWIDTH 4 0
BBX 4 5 0 0
BITMAP
6500
6500
8D40
C700
6FF7
ENDCHAR
STARTCHAR AE.c2sc
ENCODING -1
SWIDTH 676 0
DWIDTH 6 0
BBX 6 5 0 0
BITMAP
00AFF8
039A00
0A2FF5
3FFB00
A30FFB
ENDCHAR
STARTCHAR Thorn.c2sc
ENCODING -1
SWIDTH 440 0
DWIDTH 4 0
BBX 4 5 0 0
BITMAP
6500
6FD4
6559
6FE4
6500
ENDCHAR
STARTCHAR Oslash.c2sc
ENCODING -1
SWIDTH 519 0
DWIDTH 5 0
BBX 5 7 0 -1
BITMAP
000100
1BEC00
686D20
849830
6C3C10
3DE800
100000
ENDCHAR
STARTCHAR Hbar.c2sc
ENCODING -1
SWIDTH 533 0
DWIDTH 5 0
BBX 5 5 0 0
BITMAP
BFFF80
650830
6FFF30
650830
650830
ENDCHAR
STARTCHAR Eng.c2sc
ENCODING -1
SWIDTH 533 0
DWIDTH 5 0
BBX 5 7 0 -2
BITMAP
690830
6C3830
669830
655D30
650C30
000A30
005C10
ENDCHAR
STARTCHAR Dcroat.c2sc
ENCODING -1
SWIDTH 492 0
DWIDTH 4 0
BBX 5 5 -1 0
BITMAP
06FD40
0652C0
3FF3C0
0653C0
06FD40
ENDCHAR
STARTCHAR Eth.c2sc
ENCODING -1
SWIDTH 492 0
DWIDTH 4 0
BBX 5 5 -1 0
BITMAP
06FD40
0652C0
3FF3C0
0653C0
06FD40
ENDCHAR
STARTCHAR Tbar.c2sc
ENCODING -1
SWIDTH 456 0
DWIDTH 4 0
BBX 4 5 0 0
BITMAP
CFFD
1BC1
1FF2
0570
0570
ENDCHAR
STARTCHAR Agrave.c2sc
ENCODING -1
SWIDTH 501 0
DWIDTH 5 0
BBX 5 8 0 0
BITMAP
0C3000
047000
000000
04C000
09A200
0A3700
5FFC00
A20930
ENDCHAR
STARTCHAR Aacute.c2sc
ENCODING -1
SWIDTH 501 0
DWIDTH 5 0
BBX 5 8 0 0
BITMAP
009500
01A000
000000
04C000
09A200
0A3700
5FFC00
A20930
ENDCHAR
STARTCHAR Acircumflex.c2sc
ENCODING -1
SWIDTH 501 0
DWIDTH 5 0
BBX 5 8 0 0
BITMAP
04C000
097300
000000
04C000
09A200
0A3700
5FFC00
A20930
ENDCHAR
STARTCHAR Atilde.c2sc
ENCODING -1
SWIDTH 501 0
DWIDTH 5 0
BBX 5 8 0 0
BITMAP
0B4800
08B400
000000
04C000
09A200
0A3700
5FFC00
A20930
ENDCHAR
STARTCHAR Adieresis.c2sc
ENCODING -1
SWIDTH 501 0
DWIDTH 5 0
BBX 5 7 0 0
BITMAP
1A2800
000000
04C000
09A200
0A3700
5FFC00
A20930
ENDCHAR
STARTCHAR Aring.c2sc
ENCODING -1
SWIDTH 501 0
DWIDTH 5 0
BBX 5 8 0 0
BITMAP
068100
068100
000000
04C000
09A200
0A3700
5FFC00
A20930
ENDCHAR
STARTCHAR Aringacute.c2sc
ENCODING -1
SWIDTH 501 0
DWIDTH 5 0
BBX 5 8 0 0
BITMAP
008300
008000
03F000
04C000
09A200
0A3700
5FFC00
A20930
ENDCHAR
STARTCHAR Ccedilla.c2sc
ENCODING -1
SWIDTH 490 0
DWIDTH 4 0
BBX 4 7 0 -2
BITMAP
1BE5
771C
8301
771C
1CE6
0050
01D0
ENDCHAR
STARTCHAR Egrave.c2sc
ENCODING -1
SWIDTH 428 0
DWIDTH 4 0
BBX 4 8 0 0
BITMAP
1D10
0640
0000
6FF8
6500
6FF4
6500
6FF9
ENDCHAR
STARTCHAR Eacute.c2sc
ENCODING -1
SWIDTH 428 0
DWIDTH 4 0
BBX 4 8 0 0
BITMAP
00C3
0380
0000
6FF8
6500
6FF4
6500
6FF9
ENDCHAR
STARTCHAR Ecircumflex.c2sc
ENCODING -1
SWIDTH 428 0
DWIDTH 4 0
BBX 4 8 0 0
BITMAP
0790
0981
0000
6FF8
6500
6FF4
6500
6FF9
ENDCHAR
STARTCHAR Edieresis.c2sc
ENCODING -1
SWIDTH 428 0
DWIDTH 4 0
BBX 4 7 0 0
BITMAP
3756
0000
6FF8
6500
6FF4
6500
6FF9
ENDCHAR
STARTCHAR Igrave.c2sc
ENCODING -1
SWIDTH 221 0
DWIDTH 2 0
BBX 3 8 -1 0
BITMAP
2D00
0740
0000
0660
0660
0660
0660
0660
ENDCHAR
STARTCHAR Iacute.c2sc
ENCODING -1
SWIDTH 221 0
DWIDTH 2 0
BBX 3 8 0 0
BITMAP
0C20
3700
0000
6600
6600
6600
6600
6600
ENDCHAR
STARTCHAR Icircumflex.c2sc
ENCODING -1
SWIDTH 221 0
DWIDTH 2 0
BBX 4 8 -1 0
BITMAP
0880
1991
0000
0660
0660
0660
0660
0660
ENDCHAR
STARTCHAR Idieresis.c2sc
ENCODING -1
SWIDTH 221 0
DWIDTH 2 0
BBX 4 7 -1 0
BITMAP
4665
0000
0660
0660
0660
0660
0660
ENDCHAR
STARTCHAR Ntilde.c2sc
ENCODING -1
SWIDTH 533 0
DWIDTH 5 0
BBX 5 8 0 0
BITMAP
096800
089600
000000
690830
6C3830
66A830
656D30
650C30
ENDCHAR
STARTCHAR Ograve.c2sc
ENCODING -1
SWIDTH 519 0
DWIDTH 5 0
BBX 5 8 0 0
BITMAP
0B4000
038000
000000
1BE700
671C10
830830
671C10
1BE800
ENDCHAR
STARTCHAR Oacute.c2sc
ENCODING -1
SWIDTH 519 0
DWIDTH 5 0
BBX 5 8 0 0
BITMAP
008700
00A000
000000
1BE700
671C10
830830
671C10
1BE800
ENDCHAR
STARTCHAR Ocircumflex.c2sc
ENCODING -1
SWIDTH 519 0
DWIDTH 5 0
BBX 5 8 0 0
BITMAP
03C000
086400
000000
1BE700
671C10
830830
671C10
1BE800
ENDCHAR
STARTCHAR Otilde.c2sc
ENCODING -1
SWIDTH 519 0
DWIDTH 5 0
BBX 5 8 0 0
BITMAP
0A5800
08A500
000000
1BE700
671C10
830830
671C10
1BE800
ENDCHAR
STARTCHAR Odieresis.c2sc
ENCODING -1
SWIDTH 519 0
DWIDTH 5 0
BBX 5 7 0 0
BITMAP
0A1900
000000
1BE700
671C10
830830
671C10
1BE800
ENDCHAR
STARTCHAR Ugrave.c2sc
ENCODING -1
SWIDTH 488 0
DWIDTH 4 0
BBX 4 8 0 0
BITMAP
0C20
0560
0000
840C
840C
840C
772C
2DE6
ENDCHAR
STARTCHAR Uacute.c2sc
ENCODING -1
SWIDTH 488 0
DWIDTH 4 0
BBX 4 8 0 0
BITMAP
00A4
01A0
0000
840C
840C
840C
772C
2DE6
ENDCHAR
STARTCHAR Ucircumflex.c2sc
ENCODING -1
SWIDTH 488 0
DWIDTH 4 0
BBX 4 8 0 0
BITMAP
06B0
0972
0000
840C
840C
840C
772C
2DE6
ENDCHAR
STARTCHAR Udieresis.c2sc
ENCODING -1
SWIDTH 488 0
DWIDTH 4 0
BBX 4 7 0 0
BITMAP
2937
0000
840C
840C
840C
772C
2DE6
ENDCHAR
STARTCHAR Yacute.c2sc
ENCODING -1
SWIDTH 458 0
DWIDTH 4 0
BBX 4 8 0 0
BITMAP
00C2
0380
0000
A32B
2A84
0AB0
0570
0570
ENDCHAR
STARTCHAR Amacron.c2sc
ENCODING -1
SWIDTH 501 0
DWIDTH 5 0
BBX 5 7 0 0
BITMAP
0FF800
000000
04C000
09A200
0A3700
5FFC00
A20930
ENDCHAR
STARTCHAR Abreve.c2sc
ENCODING -1
SWIDTH 501 0
DWIDTH 5 0
BBX 5 8 0 0
BITMAP
0B3800
08E200
000000
04C000
09A200
0A3700
5FFC00
A20930
ENDCHAR
STARTCHAR Aogonek.c2sc
ENCODING -1
SWIDTH 501 0
DWIDTH 5 0
BBX 5 7 0 -2
BITMAP
04C000
09A200
0A3700
5FFC00
A20A30
000900
000D30
ENDCHAR
STARTCHAR Cacute.c2sc
ENCODING -1
SWIDTH 490 0
DWIDTH 4 0
BBX 4 8 0 0
BITMAP
0095
01A0
0000
1BE5
771C
8301
771C
1CE6
ENDCHAR
STARTCHAR Ccircumflex.c2sc
ENCODING -1
SWIDTH 490 0
DWIDTH 4 0
BBX 4 8 0 0
BITMAP
05C0
0973
0000
1BE5
771C
8301
771C
1CE6
ENDCHAR
STARTCHAR Cdotaccent.c2sc
ENCODING -1
SWIDTH 490 0
DWIDTH 4 0
BBX 4 7 0 0
BITMAP
0290
0000
1BE5
771C
8301
771C
1CE6
ENDCHAR
STARTCHAR Ccaron.c2sc
ENCODING -1
SWIDTH 490 0
DWIDTH 4 0
BBX 4 8 0 0
BITMAP
0973
03B0
0000
1BE5
771C
8301
771C
1CE6
ENDCHAR
STARTCHAR Dcaron.c2sc
ENCODING -1
SWIDTH 492 0
DWIDTH 4 0
BBX 4 8 0 0
BITMAP
19A0
0860
0000
6FD4
652C
650C
653C
6FD4
ENDCHAR
STARTCHAR Emacron.c2sc
ENCODING -1
SWIDTH 428 0
DWIDTH 4 0
BBX 4 7 0 0
BITMAP
3FF5
0000
6FF8
6500
6FF4
6500
6FF9
ENDCHAR
STARTCHAR Ebreve.c2sc
ENCODING -1
SWIDTH 428 0
DWIDTH 4 0
BBX 4 8 0 0
BITMAP
3865
0BC1
0000
6FF8
6500
6FF4
6500
6FF9
ENDCHAR
STARTCHAR Edotaccent.c2sc
ENCODING -1
SWIDTH 428 0
DWIDTH 4 0
BBX 4 7 0 0
BITMAP
0460
0000
6FF8
6500
6FF4
6500
6FF9
ENDCHAR
STARTCHAR Eogonek.c2sc
ENCODING -1
SWIDTH 428 0
DWIDTH 4 0
BBX 4 7 0 -2
BITMAP
6FF8
6500
6FF4
6500
6FF9
0091
00C5
ENDCHAR
STARTCHAR Ecaron.c2sc
ENCODING -1
SWIDTH 428 0
DWIDTH 4 0
BBX 4 8 0 0
BITMAP
0A91
0680
0000
6FF8
6500
6FF4
6500
6FF9
ENDCHAR
STARTCHAR Gcircumflex.c2sc
ENCODING -1
SWIDTH 509 0
DWIDTH 5 0
BBX 5 8 0 0
BITMAP
05B000
097300
000000
1BE800
771700
83AF10
780B10
1BEA00
ENDCHAR
STARTCHAR Gbreve.c2sc
ENCODING -1
SWIDTH 509 0
DWIDTH 5 0
BBX 5 8 0 0
BITMAP
0B4700
09E200
000000
1BE800
771700
83AF10
780B10
1BEA00
ENDCHAR
STARTCHAR Gdotaccent.c2sc
ENCODING -1
SWIDTH 509 0
DWIDTH 5 0
BBX 5 7 0 0
BITMAP
028000
000000
1BE800
771700
83AF10
780B10
1BEA00
ENDCHAR
STARTCHAR uni0122.c2sc
ENCODING -1
SWIDTH 509 0
DWIDTH 5 0
BBX 5 8 0 -3
BITMAP
1BE800
771700
83AF10
780B10
1BEA00
000000
029000
045000
ENDCHAR
STARTCHAR Hcircumflex.c2sc
ENCODING -1
SWIDTH 533 0
DWIDTH 5 0
BBX 5 8 0 0
BITMAP
03D100
086400
000000
650830
650830
6FFF30
650830
650830
ENDCHAR
STARTCHAR Itilde.c2sc
ENCODING -1
SWIDTH 221 0
DWIDTH 2 0
BBX 4 8 -1 0
BITMAP
1C54
45D1
0000
0660
0660
0660
0660
0660
ENDCHAR
STARTCHAR Imacron.c2sc
ENCODING -1
SWIDTH 221 0
DWIDTH 2 0
BBX 4 7 -1 0
BITMAP
4FF4
0000
0660
0660
0660
0660
0660
ENDCHAR
STARTCHAR Ibreve.c2sc
ENCODING -1
SWIDTH 221 0
DWIDTH 2 0
BBX 4 8 -1 0
BITMAP
4874
0CC0
0000
0660
0660
0660
0660
0660
ENDCHAR
STARTCHAR Iogonek.c2sc
ENCODING -1
SWIDTH 221 0
DWIDTH 2 0
BBX 2 7 0 -2
BITMAP
66
66
66
66
67
81
B6
ENDCHAR
STARTCHAR Idotaccent.c2sc
ENCODING -1
SWIDTH 221 0
DWIDTH 2 0
BBX 2 7 0 0
BITMAP
55
00
66
66
66
66
66
ENDCHAR
STARTCHAR Jcircumflex.c2sc
ENCODING -1
SWIDTH 419 0
DWIDTH 4 0
BBX 4 8 0 0
BITMAP
00B5
0379
0000
0084
0084
0084
62A3
6EB0
ENDCHAR
STARTCHAR uni0136.c2sc
ENCODING -1
SWIDTH 473 0
DWIDTH 4 0
BBX 5 8 0 -3
BITMAP
654A00
67C100
6E9000
66A300
652C10
000000
056000
072000
ENDCHAR
STARTCHAR Lacute.c2sc
ENCODING -1
SWIDTH 411 0
DWIDTH 4 0
BBX 4 8 0 0
BITMAP
0C20
4700
0000
6500
6500
6500
6500
6FF7
ENDCHAR
STARTCHAR uni013B.c2sc
ENCODING -1
SWIDTH 411 0
DWIDTH 4 0
BBX 4 8 0 -3
BITMAP
6500
6500
6500
6500
6FF7
0000
0650
0720
ENDCHAR
STARTCHAR Lcaron.c2sc
ENCODING -1
SWIDTH 411 0
DWIDTH 4 0
BBX 4 5 0 0
BITMAP
65B0
6680
6500
6500
6FF7
ENDCHAR
STARTCHAR Ldot.c2sc
ENCODING -1
SWIDTH 411 0
DWIDTH 4 0
BBX 4 5 0 0
BITMAP
6500
65A0
6500
6500
6FF7
ENDCHAR
STARTCHAR Nacute.c2sc
ENCODING -1
SWIDTH 533 0
DWIDTH 5 0
BBX 5 8 0 0
BITMAP
007700
00A000
000000
690830
6C3830
66A830
656D30
650C30
ENDCHAR
STARTCHAR uni0145.c2sc
ENCODING -1
SWIDTH 533 0
DWIDTH 5 0
BBX 5 8 0 -3
BITMAP
690830
6C3830
66A830
656D30
650C30
000000
00A000
026000
ENDCHAR
STARTCHAR Ncaron.c2sc
ENCODING -1
SWIDTH 533 0
DWIDTH 5 0
BBX 5 8 0 0
BITMAP
086500
02C000
000000
690830
6C3830
66A830
656D30
650C30
ENDCHAR
STARTCHAR Omacron.c2sc
ENCODING -1
SWIDTH 519 0
DWIDTH 5 0
BBX 5 7 0 0
BITMAP
0EFA00
000000
1BE700
671C10
830830
671C10
1BE800
ENDCHAR
STARTCHAR Obreve.c2sc
ENCODING -1
SWIDTH 519 0
DWIDTH 5 0
BBX 5 8 0 0
BITMAP
0B2900
07E300
000000
1BE700
671C10
830830
671C10
1BE800
ENDCHAR
STARTCHAR Ohungarumlaut.c2sc
ENCODING -1
SWIDTH 519 0
DWIDTH 5 0
BBX 5 8 0 0
BITMAP
03AC00
068600
000000
1BE700
671C10
830830
671C10
1BE800
ENDCHAR
STARTCHAR Racute.c2sc
ENCODING -1
SWIDTH 465 0
DWIDTH 4 0
BBX 4 8 0 0
BITMAP
00C2
0370
0000
6FE6
653C
6FF5
6585
651C
ENDCHAR
STARTCHAR uni0156.c2sc
ENCODING -1
SWIDTH 465 0
DWIDTH 4 0
BBX 4 8 0 -3
BITMAP
6FE6
653C
6FF5
6585
651C
0000
0650
0720
ENDCHAR
STARTCHAR Rcaron.c2sc
ENCODING -1
SWIDTH 465 0
DWIDTH 4 0
BBX 4 8 0 0
BITMAP
1991
0770
0000
6FE6
653C
6FF5
6585
651C
ENDCHAR
STARTCHAR Sacute.c2sc
ENCODING -1
SWIDTH 453 0
DWIDTH 4 0
BBX 4 8 0 0
BITMAP
00C3
0290
0000
3DD3
7959
19D5
853A
1CE5
ENDCHAR
STARTCHAR Scircumflex.c2sc
ENCODING -1
SWIDTH 453 0
DWIDTH 4 0
BBX 4 8 0 0
BITMAP
0790
0981
0000
3DD3
7959
19D5
853A
1CE5
ENDCHAR
STARTCHAR Scedilla.c2sc
ENCODING -1
SWIDTH 453 0
DWIDTH 4 0
BBX 4 7 0 -2
BITMAP
3DD3
7959
19D5
853A
1CE5
0140
03B0
ENDCHAR
STARTCHAR Scaron.c2sc
ENCODING -1
SWIDTH 453 0
DWIDTH 4 0
BBX 4 8 0 0
BITMAP
0A81
0680
0000
3DD3
7959
19D5
853A
1CE5
ENDCHAR
STARTCHAR uni021A.c2sc
ENCODING -1
SWIDTH 456 0
DWIDTH 4 0
BBX 4 8 0 -3
BITMAP
CFFD
0570
0570
0570
0570
0000
0560
0620
ENDCHAR
STARTCHAR Tcaron.c2sc
ENCODING -1
SWIDTH 456 0
DWIDTH 4 0
BBX 4 8 0 0
BITMAP
0991
0680
0000
CFFD
0570
0570
0570
0570
ENDCHAR
STARTCHAR uni0162.c2sc
ENCODING -1
SWIDTH 456 0
DWIDTH 4 0
BBX 4 7 0 -2
BITMAP
CFFD
0570
0570
0570
0570
0240
04A0
ENDCHAR
STARTCHAR Utilde.c2sc
ENCODING -1
SWIDTH 488 0
DWIDTH 4 0
BBX 4 8 0 0
BITMAP
0C47
17C3
0000
840C
840C
840C
772C
2DE6
ENDCHAR
STARTCHAR Umacron.c2sc
ENCODING -1
SWIDTH 488 0
DWIDTH 4 0
BBX 4 7 0 0
BITMAP
1FF7
0000
840C
840C
840C
772C
2DE6
ENDCHAR
STARTCHAR Ubreve.c2sc
ENCODING -1
SWIDTH 488 0
DWIDTH 4 0
BBX 4 8 0 0
BITMAP
1A57
09D2
0000
840C
840C
840C
772C
2DE6
ENDCHAR
STARTCHAR Uring.c2sc
ENCODING -1
SWIDTH 488 0
DWIDTH 4 0
BBX 4 8 0 0
BITMAP
0681
0681
0000
840C
840C
840C
772C
2DE6
ENDCHAR
STARTCHAR Uhungarumlaut.c2sc
ENCODING -1
SWIDTH 488 0
DWIDTH 4 0
BBX 4 8 0 0
BITMAP
069B
0883
0000
840C
840C
840C
772C
2DE6
ENDCHAR
STARTCHAR Uogonek.c2sc
ENCODING -1
SWIDTH 488 0
DWIDTH 4 0
BBX 4 7 0 -2
BITMAP
840C
840C
840C
772C
2DF6
0190
01E2
ENDCHAR
STARTCHAR Wcircumflex.c2sc
ENCODING -1
SWIDTH 655 0
DWIDTH 6 0
BBX 6 8 0 0
BITMAP
008800
019900
000000
927739
659955
379982
0C67C0
0C33B0
ENDCHAR
STARTCHAR Ycircumflex.c2sc
ENCODING -1
SWIDTH 458 0
DWIDTH 4 0
BBX 4 8 0 0
BITMAP
0790
0981
0000
A32B
2A84
0AB0
0570
0570
ENDCHAR
STARTCHAR Ydieresis.c2sc
ENCODING -1
SWIDTH 458 0
DWIDTH 4 0
BBX 4 7 0 0
BITMAP
3755
0000
A32B
2A84
0AB0
0570
0570
ENDCHAR
STARTCHAR Zacute.c2sc
ENCODING -1
SWIDTH 454 0
DWIDTH 4 0
BBX 4 8 0 0
BITMAP
00C2
0380
0000
AFFA
0093
0660
3900
AFFC
ENDCHAR
STARTCHAR Zdotaccent.c2sc
ENCODING -1
SWIDTH 454 0
DWIDTH 4 0
BBX 4 7 0 0
BITMAP
0460
0000
AFFA
0093
0660
3900
AFFC
ENDCHAR
STARTCHAR Zcaron.c2sc
ENCODING -1
SWIDTH 454 0
DWIDTH 4 0
BBX 4 8 0 0
BITMAP
0991
0680
0000
AFFA
0093
0660
3900
AFFC
ENDCHAR
STARTCHAR two.pnum
ENCODING -1
SWIDTH 493 0
DWIDTH 4 0
BBX 5 7 0 0
BITMAP
2CE500
762C00
001A00
009300
058000
2B0000
7FFF10
ENDCHAR
STARTCHAR three.pnum
ENCODING -1
SWIDTH 493 0
DWIDTH 4 0
BBX 4 7 0 0
BITMAP
1BE4
673B
1039
08F3
102B
772B
1CE4
ENDCHAR
STARTCHAR four.pnum
ENCODING -1
SWIDTH 493 0
DWIDTH 4 0
BBX 5 7 0 0
BITMAP
009700
01D700
077700
0A5700
555700
AFFF30
005700
ENDCHAR
STARTCHAR five.pnum
ENCODING -1
SWIDTH 493 0
DWIDTH 4 0
BBX 4 7 0 0
BITMAP
0EFD
1B00
2EE6
012D
000B
371C
0BE6
ENDCHAR
STARTCHAR six.pnum
ENCODING -1
SWIDTH 503 0
DWIDTH 5 0
BBX 5 7 0 0
BITMAP
04D500
0C3000
3CE700
5B2D00
570B10
2C1D00
09E600
ENDCHAR
STARTCHAR eight.pnum
ENCODING -1
SWIDTH 513 0
DWIDTH 5 0
BBX 4 7 0 0
BITMAP
0AE6
3A2C
2A2B
0BF5
391B
592D
1BE7
ENDCHAR
STARTCHAR nine.pnum
ENCODING -1
SWIDTH 503 0
DWIDTH 5 0
BBX 4 7 0 0
BITMAP
1CD3
674A
840C
683C
1CBB
0078
0BA1
ENDCHAR
STARTCHAR zero.pnum
ENCODING -1
SWIDTH 513 0
DWIDTH 5 0
BBX 4 7 0 0
BITMAP
0AE5
3A2C
660B
660B
660B
3A2C
0AE5
ENDCHAR
STARTCHAR G_acutecomb.ccmp
ENCODING -1
SWIDTH 590 0
DWIDTH 5 0
BBX 5 10 0 0
BITMAP
005A00
009200
000000
09EB10
4B1680
660130
750000
664FA0
3C13A0
08ED50
ENDCHAR
STARTCHAR g_acutecomb.ccmp
ENCODING -1
SWIDTH 492 0
DWIDTH 4 0
BBX 4 10 0 -2
BITMAP
00B3
0290
0000
2DDC
762C
930C
762C
2DDC
023C
2CE5
ENDCHAR
STARTCHAR N_gravecomb.ccmp
ENCODING -1
SWIDTH 619 0
DWIDTH 6 0
BBX 5 10 0 0
BITMAP
05A000
00A100
000000
5B00C0
5E30C0
59A0C0
5892C0
5829C0
5809D0
5803D0
ENDCHAR
STARTCHAR n_gravecomb.ccmp
ENCODING -1
SWIDTH 483 0
DWIDTH 4 0
BBX 4 8 0 0
BITMAP
0C20
0560
0000
6CE6
682B
650C
650C
650C
ENDCHAR
STARTCHAR A_uni030F.ccmp
ENCODING -1
SWIDTH 576 0
DWIDTH 5 0
BBX 5 10 0 0
BITMAP
2CC100
089300
000000
00D100
03C600
073A00
0A0A00
1FFF40
660380
A200C0
ENDCHAR
STARTCHAR a_uni030F.ccmp
ENCODING -1
SWIDTH 479 0
DWIDTH 4 0
BBX 4 8 0 0
BITMAP
7B90
0A90
0000
1CE5
243A
2CFA
773A
3EBC
ENDCHAR
STARTCHAR E_uni030F.ccmp
ENCODING -1
SWIDTH 496 0
DWIDTH 4 0
BBX 5 10 0 0
BITMAP
5BB000
0A9100
000000
5FFF10
580000
580000
5FFB00
580000
580000
5FFF20
ENDCHAR
STARTCHAR e_uni030F.ccmp
ENCODING -1
SWIDTH 468 0
DWIDTH 4 0
BBX 4 8 0 0
BITMAP
8B80
1A90
0000
1CE4
762B
8FFD
7601
2CE7
ENDCHAR
STARTCHAR I_uni030F.ccmp
ENCODING -1
SWIDTH 250 0
DWIDTH 2 0
BBX 3 10 -1 0
BITMAP
9B70
1A90
0000
0480
0480
0480
0480
0480
0480
0480
ENDCHAR
STARTCHAR dotlessi_uni030F.ccmp
ENCODING -1
SWIDTH 234 0
DWIDTH 2 0
BBX 3 8 -1 0
BITMAP
AB60
2A90
0000
0560
0560
0560
0560
0560
ENDCHAR
STARTCHAR O_uni030F.ccmp
ENCODING -1
SWIDTH 600 0
DWIDTH 5 0
BBX 5 10 0 0
BITMAP
1CC100
069500
000000
08EC20
3B1690
6600C0
7500C0
6600C0
3B1690
08EC20
ENDCHAR
STARTCHAR o_uni030F.ccmp
ENCODING -1
SWIDTH 501 0
DWIDTH 5 0
BBX 5 8 0 0
BITMAP
8B9000
1A9000
000000
1CE600
771D00
930A10
771C00
1CE600
ENDCHAR
STARTCHAR R_uni030F.ccmp
ENCODING -1
SWIDTH 530 0
DWIDTH 5 0
BBX 5 10 0 0
BITMAP
6BA000
0A9000
000000
5FFB00
580950
580950
5FFB00
583A00
580C10
580670
ENDCHAR
STARTCHAR r_uni030F.ccmp
ENCODING -1
SWIDTH 304 0
DWIDTH 3 0
BBX 4 8 -1 0
BITMAP
2CC0
0893
0000
06C8
0680
0650
0650
0650
ENDCHAR
STARTCHAR U_uni030F.ccmp
ENCODING -1
SWIDTH 561 0
DWIDTH 5 0
BBX 5 10 0 0
BITMAP
3CC000
099200
000000
660480
660480
660480
660480
660570
591860
0BEB10
ENDCHAR
STARTCHAR u_uni030F.ccmp
ENCODING -1
SWIDTH 483 0
DWIDTH 4 0
BBX 4 8 0 0
BITMAP
8B80
1A90
0000
750C
750C
750C
673C
2DCB
ENDCHAR
STARTCHAR Upsilon1_acutecomb.ccmp
ENCODING -1
SWIDTH 514 0
DWIDTH 5 0
BBX 7 8 -2 0
BITMAP
0B000000
17870690
000D0C10
00088900
0003F400
0000D000
0000C000
0000C000
ENDCHAR
STARTCHAR B_dotbelowcomb.ccmp
ENCODING -1
SWIDTH 545 0
DWIDTH 5 0
BBX 5 9 0 -2
BITMAP
5FFA00
580A30
580B20
5FFB00
580940
580950
5FFB00
000000
01A000
ENDCHAR
STARTCHAR b_dotbelowcomb.ccmp
ENCODING -1
SWIDTH 493 0
DWIDTH 4 0
BBX 4 9 0 -2
BITMAP
6500
6500
6CE7
681D
650B
681D
6CE7
0000
0190
ENDCHAR
STARTCHAR D_dotbelowcomb.ccmp
ENCODING -1
SWIDTH 570 0
DWIDTH 5 0
BBX 5 9 0 -2
BITMAP
5FE900
581A50
580480
580390
580480
581A50
5FE800
000000
01A000
ENDCHAR
STARTCHAR d_dotbelowcomb.ccmp
ENCODING -1
SWIDTH 496 0
DWIDTH 4 0
BBX 4 9 0 -2
BITMAP
000C
000C
2DDC
762C
930C
762C
2DCC
0000
01A0
ENDCHAR
STARTCHAR D_uniF6C3.ccmp
ENCODING -1
SWIDTH 570 0
DWIDTH 5 0
BBX 5 9 0 -2
BITMAP
5FE900
581A50
580480
580390
580480
581A50
5FE800
00A000
026000
ENDCHAR
STARTCHAR d_uniF6C3.ccmp
ENCODING -1
SWIDTH 496 0
DWIDTH 4 0
BBX 4 10 0 -3
BITMAP
000C
000C
2DDC
762C
930C
762C
2DCC
0000
00B0
0260
ENDCHAR
STARTCHAR H_dotbelowcomb.ccmp
ENCODING -1
SWIDTH 620 0
DWIDTH 6 0
BBX 5 9 0 -2
BITMAP
5800C0
5800C0
5800C0
5FFFD0
5800C0
5800C0
5800C0
000000
009100
ENDCHAR
STARTCHAR h_dotbelowcomb.ccmp
ENCODING -1
SWIDTH 482 0
DWIDTH 4 0
BBX 4 9 0 -2
BITMAP
6500
6500
6CE6
682B
650C
650C
650C
0000
0280
ENDCHAR
STARTCHAR K_acutecomb.ccmp
ENCODING -1
SWIDTH 544 0
DWIDTH 5 0
BBX 5 10 0 0
BITMAP
008600
00A000
000000
580960
584A00
58C100
5EC000
5A7700
581C10
580690
ENDCHAR
STARTCHAR k_acutecomb.ccmp
ENCODING -1
SWIDTH 450 0
DWIDTH 4 0
BBX 4 10 0 0
BITMAP
00B3
0290
0000
6500
6500
6576
68A0
6E80
66B2
653A
ENDCHAR
STARTCHAR K_dotbelowcomb.ccmp
ENCODING -1
SWIDTH 544 0
DWIDTH 5 0
BBX 5 9 0 -2
BITMAP
580960
584A00
58C100
5EC000
5A7700
581C10
580690
000000
00A000
ENDCHAR
STARTCHAR k_dotbelowcomb.ccmp
ENCODING -1
SWIDTH 450 0
DWIDTH 4 0
BBX 4 9 0 -2
BITMAP
6500
6500
6576
68A0
6E80
66B2
653A
0000
0550
ENDCHAR
STARTCHAR L_dotbelowcomb.ccmp
ENCODING -1
SWIDTH 475 0
DWIDTH 4 0
BBX 4 9 0 -2
BITMAP
5800
5800
5800
5800
5800
5800
5FFF
0000
01A0
ENDCHAR
STARTCHAR l_dotbelowcomb.ccmp
ENCODING -1
SWIDTH 229 0
DWIDTH 2 0
BBX 2 9 0 -2
BITMAP
56
56
56
56
56
56
56
00
55
ENDCHAR
STARTCHAR M_dotbelowcomb.ccmp
ENCODING -1
SWIDTH 755 0
DWIDTH 7 0
BBX 7 9 0 -2
BITMAP
5D001F20
5F306F20
5B70AB20
58B0BA20
57A57B20
586D2B20
581D0B20
00000000
001A0000
ENDCHAR
STARTCHAR m_dotbelowcomb.ccmp
ENCODING -1
SWIDTH 752 0
DWIDTH 7 0
BBX 7 7 0 -2
BITMAP
6CE9EB00
683E1B20
650C0930
650C0930
650C0930
00000000
001A0000
ENDCHAR
STARTCHAR N_dotbelowcomb.ccmp
ENCODING -1
SWIDTH 619 0
DWIDTH 6 0
BBX 5 9 0 -2
BITMAP
5B00C0
5E30C0
59A0C0
5892C0
5829C0
5809D0
5803D0
000000
009100
ENDCHAR
STARTCHAR n_dotbelowcomb.ccmp
ENCODING -1
SWIDTH 483 0
DWIDTH 4 0
BBX 4 7 0 -2
BITMAP
6CE6
682B
650C
650C
650C
0000
0370
ENDCHAR
STARTCHAR O_tildecomb_acutecomb.ccmp
ENCODING -1
SWIDTH 600 0
DWIDTH 5 0
BBX 5 10 0 0
BITMAP
005400
02A700
000000
08EC20
3B1690
6600C0
7500C0
6600C0
3B1690
08EC20
ENDCHAR
STARTCHAR P_acutecomb.ccmp
ENCODING -1
SWIDTH 554 0
DWIDTH 5 0
BBX 5 10 0 0
BITMAP
008700
00A000
000000
5FFC20
580680
580680
5FFC20
580000
580000
580000
ENDCHAR
STARTCHAR p_acutecomb.ccmp
ENCODING -1
SWIDTH 493 0
DWIDTH 4 0
BBX 4 10 0 -2
BITMAP
0078
00A1
0000
6CE7
671D
650B
671D
6CE7
6500
6500
ENDCHAR
STARTCHAR R_dotbelowcomb.ccmp
ENCODING -1
SWIDTH 530 0
DWIDTH 5 0
BBX 5 9 0 -2
BITMAP
5FFB00
580950
580950
5FFB00
583A00
580C10
580670
000000
019000
ENDCHAR
STARTCHAR r_dotbelowcomb.ccmp
ENCODING -1
SWIDTH 304 0
DWIDTH 3 0
BBX 3 7 0 -2
BITMAP
6C80
6800
6500
6500
6500
0000
5500
ENDCHAR
STARTCHAR S_dotbelowcomb.ccmp
ENCODING -1
SWIDTH 518 0
DWIDTH 5 0
BBX 5 9 0 -2
BITMAP
1BE600
681B20
490210
07C600
210B20
771A30
0AEA00
000000
00A000
ENDCHAR
STARTCHAR s_dotbelowcomb.ccmp
ENCODING -1
SWIDTH 455 0
DWIDTH 4 0
BBX 4 7 0 -2
BITMAP
2DE4
5A44
09E4
4449
3DE4
0000
0380
ENDCHAR
STARTCHAR T_dotbelowcomb.ccmp
ENCODING -1
SWIDTH 520 0
DWIDTH 5 0
BBX 5 9 0 -2
BITMAP
BFFF70
01B000
01B000
01B000
01B000
01B000
01B000
000000
019000
ENDCHAR
STARTCHAR t_dotbelowcomb.ccmp
ENCODING -1
SWIDTH 295 0
DWIDTH 3 0
BBX 3 8 0 -2
BITMAP
3900
EF50
3900
3900
3A00
1D40
0000
0920
ENDCHAR
STARTCHAR U_tildecomb_acutecomb.ccmp
ENCODING -1
SWIDTH 561 0
DWIDTH 5 0
BBX 5 10 0 0
BITMAP
007200
059500
000000
660480
660480
660480
660480
660570
591860
0BEB10
ENDCHAR
STARTCHAR V_tildecomb.ccmp
ENCODING -1
SWIDTH 560 0
DWIDTH 5 0
BBX 5 10 0 0
BITMAP
078800
087800
000000
A302B0
670660
2B0A20
0C0C00
086900
04D400
00E100
ENDCHAR
STARTCHAR v_tildecomb.ccmp
ENCODING -1
SWIDTH 427 0
DWIDTH 4 0
BBX 4 8 0 0
BITMAP
2C64
55D1
0000
A247
6583
19A0
0A90
0850
ENDCHAR
STARTCHAR V_dotbelowcomb.ccmp
ENCODING -1
SWIDTH 560 0
DWIDTH 5 0
BBX 5 9 0 -2
BITMAP
A302B0
670660
2B0A20
0C0C00
086900
04D400
00E100
000000
00A000
ENDCHAR
STARTCHAR v_dotbelowcomb.ccmp
ENCODING -1
SWIDTH 427 0
DWIDTH 4 0
BBX 4 7 0 -2
BITMAP
A247
6583
19A0
0A90
0850
0000
0640
ENDCHAR
STARTCHAR W_dotbelowcomb.ccmp
ENCODING -1
SWIDTH 761 0
DWIDTH 7 0
BBX 7 9 0 -2
BITMAP
930D0480
653E2750
48695920
1A938B00
0BA0AB00
0A90A900
08607700
00000000
000A0000
ENDCHAR
STARTCHAR w_dotbelowcomb.ccmp
ENCODING -1
SWIDTH 649 0
DWIDTH 6 0
BBX 6 7 0 -2
BITMAP
A18547
75A974
389AA1
0E68B0
0B2590
000000
007300
ENDCHAR
STARTCHAR Z_dotbelowcomb.ccmp
ENCODING -1
SWIDTH 522 0
DWIDTH 5 0
BBX 5 9 0 -2
BITMAP
8FFF30
001B00
008400
02A000
0A2000
490000
9FFF50
000000
019000
ENDCHAR
STARTCHAR z_dotbelowcomb.ccmp
ENCODING -1
SWIDTH 438 0
DWIDTH 4 0
BBX 4 7 0 -2
BITMAP
8FF7
00A2
0750
3900
9FF9
0000
0550
ENDCHAR
STARTCHAR Alphatonos.c2sc
ENCODING -1
SWIDTH 501 0
DWIDTH 5 0
BBX 5 7 0 0
BITMAP
470000
530000
04C000
09A200
0A3700
5FFC00
A20930
ENDCHAR
STARTCHAR Epsilontonos.c2sc
ENCODING -1
SWIDTH 458 0
DWIDTH 4 0
BBX 5 7 -1 0
BITMAP
740000
700000
02FFC0
029000
02FF80
029000
02FFD0
ENDCHAR
STARTCHAR Etatonos.c2sc
ENCODING -1
SWIDTH 562 0
DWIDTH 5 0
BBX 6 7 -1 0
BITMAP
560000
620000
029047
029047
02FFF7
029047
029047
ENDCHAR
STARTCHAR Iotatonos.c2sc
ENCODING -1
SWIDTH 250 0
DWIDTH 2 0
BBX 3 7 -1 0
BITMAP
5600
5200
02A0
02A0
02A0
02A0
02A0
ENDCHAR
STARTCHAR Omicrontonos.c2sc
ENCODING -1
SWIDTH 523 0
DWIDTH 5 0
BBX 6 7 -1 0
BITMAP
1A0000
260000
01BE80
0581B2
074084
0681B2
00BE80
ENDCHAR
STARTCHAR Upsilontonos.c2sc
ENCODING -1
SWIDTH 487 0
DWIDTH 4 0
BBX 6 7 -1 0
BITMAP
A10000
700000
0670C1
00C580
006E10
001B00
001B00
ENDCHAR
STARTCHAR Omegatonos.c2sc
ENCODING -1
SWIDTH 545 0
DWIDTH 5 0
BBX 6 7 -1 0
BITMAP
0B0000
160000
00AEA0
059195
065065
029192
07F9F6
ENDCHAR
STARTCHAR Alpha.c2sc
ENCODING -1
SWIDTH 501 0
DWIDTH 5 0
BBX 5 5 0 0
BITMAP
04C000
09A200
0A3700
5FFC00
A20930
ENDCHAR
STARTCHAR Beta.c2sc
ENCODING -1
SWIDTH 475 0
DWIDTH 4 0
BBX 4 5 0 0
BITMAP
6FE5
654A
6FF5
652B
6FE7
ENDCHAR
STARTCHAR Epsilon.c2sc
ENCODING -1
SWIDTH 428 0
DWIDTH 4 0
BBX 4 5 0 0
BITMAP
6FF8
6500
6FF4
6500
6FF9
ENDCHAR
STARTCHAR Zeta.c2sc
ENCODING -1
SWIDTH 454 0
DWIDTH 4 0
BBX 4 5 0 0
BITMAP
AFFA
0093
0660
3900
AFFC
ENDCHAR
STARTCHAR Eta.c2sc
ENCODING -1
SWIDTH 533 0
DWIDTH 5 0
BBX 5 5 0 0
BITMAP
650830
650830
6FFF30
650830
650830
ENDCHAR
STARTCHAR Iota.c2sc
ENCODING -1
SWIDTH 221 0
DWIDTH 2 0
BBX 2 5 0 0
BITMAP
66
66
66
66
66
ENDCHAR
STARTCHAR Kappa.c2sc
ENCODING -1
SWIDTH 473 0
DWIDTH 4 0
BBX 5 5 0 0
BITMAP
654A00
67C100
6E9000
66A300
652C10
ENDCHAR
STARTCHAR Mu.c2sc
ENCODING -1
SWIDTH 652 0
DWIDTH 6 0
BBX 6 5 0 0
BITMAP
6B00D4
6D23D4
687994
65AA74
658674
ENDCHAR
STARTCHAR Nu.c2sc
ENCODING -1
SWIDTH 533 0
DWIDTH 5 0
BBX 5 5 0 0
BITMAP
690830
6C3830
66A830
656D30
650C30
ENDCHAR
STARTCHAR Omicron.c2sc
ENCODING -1
SWIDTH 519 0
DWIDTH 5 0
BBX 5 5 0 0
BITMAP
1BE700
671C10
830830
671C10
1BE800
ENDCHAR
STARTCHAR Rho.c2sc
ENCODING -1
SWIDTH 481 0
DWIDTH 4 0
BBX 4 5 0 0
BITMAP
6FF8
651D
6FF9
6500
6500
ENDCHAR
STARTCHAR Tau.c2sc
ENCODING -1
SWIDTH 456 0
DWIDTH 4 0
BBX 4 5 0 0
BITMAP
CFFD
0570
0570
0570
0570
ENDCHAR
STARTCHAR Upsilon.c2sc
ENCODING -1
SWIDTH 458 0
DWIDTH 4 0
BBX 4 5 0 0
BITMAP
A32B
2A84
0AB0
0570
0570
ENDCHAR
STARTCHAR Chi.c2sc
ENCODING -1
SWIDTH 478 0
DWIDTH 4 0
BBX 4 5 0 0
BITMAP
762B
0BA3
07B0
1CA3
762B
ENDCHAR
STARTCHAR Iotadieresis.c2sc
ENCODING -1
SWIDTH 221 0
DWIDTH 2 0
BBX 4 7 -1 0
BITMAP
4665
0000
0660
0660
0660
0660
0660
ENDCHAR
STARTCHAR Upsilondieresis.c2sc
ENCODING -1
SWIDTH 458 0
DWIDTH 4 0
BBX 4 7 0 0
BITMAP
3755
0000
A32B
2A84
0AB0
0570
0570
ENDCHAR
STARTCHAR uni0401.c2sc
ENCODING -1
SWIDTH 428 0
DWIDTH 4 0
BBX 4 7 0 0
BITMAP
3756
0000
6FF8
6500
6FF4
6500
6FF9
ENDCHAR
STARTCHAR uni0403.c2sc
ENCODING -1
SWIDTH 405 0
DWIDTH 4 0
BBX 4 8 0 0
BITMAP
00C3
0380
0000
6FF6
6500
6500
6500
6500
ENDCHAR
STARTCHAR uni0405.c2sc
ENCODING -1
SWIDTH 453 0
DWIDTH 4 0
BBX 4 5 0 0
BITMAP
3DD3
7959
19D5
853A
1CE5
ENDCHAR
STARTCHAR uni0406.c2sc
ENCODING -1
SWIDTH 221 0
DWIDTH 2 0
BBX 2 5 0 0
BITMAP
66
66
66
66
66
ENDCHAR
STARTCHAR uni0407.c2sc
ENCODING -1
SWIDTH 221 0
DWIDTH 2 0
BBX 4 7 -1 0
BITMAP
4665
0000
0660
0660
0660
0660
0660
ENDCHAR
STARTCHAR uni0408.c2sc
ENCODING -1
SWIDTH 419 0
DWIDTH 4 0
BBX 4 5 0 0
BITMAP
0084
0084
0084
62A3
6EB0
ENDCHAR
STARTCHAR uni040C.c2sc
ENCODING -1
SWIDTH 473 0
DWIDTH 4 0
BBX 5 8 0 0
BITMAP
00C200
037000
000000
654A00
67C100
6E9000
66A300
652C10
ENDCHAR
STARTCHAR uni040E.c2sc
ENCODING -1
SWIDTH 454 0
DWIDTH 4 0
BBX 4 8 0 0
BITMAP
3874
0CC1
0000
942B
3975
0AB0
0790
3E20
ENDCHAR
STARTCHAR uni0410.c2sc
ENCODING -1
SWIDTH 501 0
DWIDTH 5 0
BBX 5 5 0 0
BITMAP
04C000
09A200
0A3700
5FFC00
A20930
ENDCHAR
STARTCHAR uni0412.c2sc
ENCODING -1
SWIDTH 475 0
DWIDTH 4 0
BBX 4 5 0 0
BITMAP
6FE5
654A
6FF5
652B
6FE7
ENDCHAR
STARTCHAR uni0413.c2sc
ENCODING -1
SWIDTH 405 0
DWIDTH 4 0
BBX 4 5 0 0
BITMAP
6FF6
6500
6500
6500
6500
ENDCHAR
STARTCHAR uni0415.c2sc
ENCODING -1
SWIDTH 428 0
DWIDTH 4 0
BBX 4 5 0 0
BITMAP
6FF8
6500
6FF4
6500
6FF9
ENDCHAR
STARTCHAR uni0419.c2sc
ENCODING -1
SWIDTH 537 0
DWIDTH 5 0
BBX 5 8 0 0
BITMAP
0B2A00
06E400
000000
650C40
656D40
66B840
6D3840
6A0840
ENDCHAR
STARTCHAR uni041C.c2sc
ENCODING -1
SWIDTH 652 0
DWIDTH 6 0
BBX 6 5 0 0
BITMAP
6B00D4
6D23D4
687994
65AA74
658674
ENDCHAR
STARTCHAR uni041D.c2sc
ENCODING -1
SWIDTH 533 0
DWIDTH 5 0
BBX 5 5 0 0
BITMAP
650830
650830
6FFF30
650830
650830
ENDCHAR
STARTCHAR uni041E.c2sc
ENCODING -1
SWIDTH 519 0
DWIDTH 5 0
BBX 5 5 0 0
BITMAP
1BE700
671C10
830830
671C10
1BE800
ENDCHAR
STARTCHAR uni041F.c2sc
ENCODING -1
SWIDTH 525 0
DWIDTH 5 0
BBX 5 5 0 0
BITMAP
6FFF20
650920
650920
650920
650920
ENDCHAR
STARTCHAR uni0420.c2sc
ENCODING -1
SWIDTH 481 0
DWIDTH 4 0
BBX 4 5 0 0
BITMAP
6FF8
651D
6FF9
6500
6500
ENDCHAR
STARTCHAR uni0421.c2sc
ENCODING -1
SWIDTH 490 0
DWIDTH 4 0
BBX 4 5 0 0
BITMAP
1BE5
771C
8301
771C
1CE6
ENDCHAR
STARTCHAR uni0422.c2sc
ENCODING -1
SWIDTH 456 0
DWIDTH 4 0
BBX 4 5 0 0
BITMAP
CFFD
0570
0570
0570
0570
ENDCHAR
STARTCHAR uni0425.c2sc
ENCODING -1
SWIDTH 478 0
DWIDTH 4 0
BBX 4 5 0 0
BITMAP
762B
0BA3
07B0
1CA3
762B
ENDCHAR
STARTCHAR uni0498.c2sc
ENCODING -1
SWIDTH 466 0
DWIDTH 4 0
BBX 4 7 0 -2
BITMAP
4EE4
3259
08F3
424A
5EE5
0750
0750
ENDCHAR
STARTCHAR uni04A2.c2sc
ENCODING -1
SWIDTH 533 0
DWIDTH 5 0
BBX 5 7 0 -2
BITMAP
650830
650830
6FFF30
650830
6508D0
0000C0
0000C0
ENDCHAR
STARTCHAR uni04AA.c2sc
ENCODING -1
SWIDTH 490 0
DWIDTH 4 0
BBX 4 7 0 -2
BITMAP
1BE7
7719
9300
7718
1CF8
02A0
02A0
ENDCHAR
STARTCHAR uni04AE.c2sc
ENCODING -1
SWIDTH 458 0
DWIDTH 4 0
BBX 4 5 0 0
BITMAP
A32B
2A84
0AB0
0570
0570
ENDCHAR
STARTCHAR uni04BE.c2sc
ENCODING -1
SWIDTH 632 0
DWIDTH 6 0
BBX 6 6 0 -1
BITMAP
01CE80
B861A2
6FFFF4
086020
01BF80
000C00
ENDCHAR
STARTCHAR uni04E2.c2sc
ENCODING -1
SWIDTH 537 0
DWIDTH 5 0
BBX 5 7 0 0
BITMAP
0CFB00
000000
650C40
656D40
66B840
6D3840
6A0840
ENDCHAR
STARTCHAR uni04EE.c2sc
ENCODING -1
SWIDTH 454 0
DWIDTH 4 0
BBX 4 7 0 0
BITMAP
3FF5
0000
942B
3975
0AB0
0790
3E20
ENDCHAR
STARTCHAR uni0424.c2sc
ENCODING -1
SWIDTH 587 0
DWIDTH 5 0
BBX 5 5 0 0
BITMAP
00B000
2CFE50
86B3C0
2CFE50
00B000
ENDCHAR
STARTCHAR IJ.c2sc
ENCODING -1
SWIDTH 641 0
DWIDTH 6 0
BBX 6 5 0 0
BITMAP
660084
660084
660084
6662A3
666EB0
ENDCHAR
STARTCHAR AEacute.c2sc
ENCODING -1
SWIDTH 676 0
DWIDTH 6 0
BBX 6 8 0 0
BITMAP
000780
000A10
000000
00AFF8
039A00
0A2FF5
3FFB00
A30FFB
ENDCHAR
STARTCHAR Oslashacute.c2sc
ENCODING -1
SWIDTH 519 0
DWIDTH 5 0
BBX 5 9 0 -1
BITMAP
008700
00A000
000100
1BEC00
686D20
849830
6C3C10
3DE800
100000
ENDCHAR
STARTCHAR uni0218.c2sc
ENCODING -1
SWIDTH 453 0
DWIDTH 4 0
BBX 4 8 0 -3
BITMAP
3DD3
7959
19D5
853A
1CE5
0000
0470
0530
ENDCHAR
STARTCHAR Wgrave.c2sc
ENCODING -1
SWIDTH 655 0
DWIDTH 6 0
BBX 6 8 0 0
BITMAP
02C000
008300
000000
927739
659955
379982
0C67C0
0C33B0
ENDCHAR
STARTCHAR Wacute.c2sc
ENCODING -1
SWIDTH 655 0
DWIDTH 6 0
BBX 6 8 0 0
BITMAP
000C20
004700
000000
927739
659955
379982
0C67C0
0C33B0
ENDCHAR
STARTCHAR Wdieresis.c2sc
ENCODING -1
SWIDTH 655 0
DWIDTH 6 0
BBX 6 7 0 0
BITMAP
056640
000000
927739
659955
379982
0C67C0
0C33B0
ENDCHAR
STARTCHAR Ygrave.c2sc
ENCODING -1
SWIDTH 458 0
DWIDTH 4 0
BBX 4 8 0 0
BITMAP
1D10
0740
0000
A32B
2A84
0AB0
0570
0570
ENDCHAR
STARTCHAR Aogonek.locl
ENCODING -1
SWIDTH 576 0
DWIDTH 5 0
BBX 5 9 0 -2
BITMAP
00D100
03C600
073A00
0A0A00
1FFF40
660380
A210C0
027000
03E000
ENDCHAR
STARTCHAR aogonek.locl
ENCODING -1
SWIDTH 479 0
DWIDTH 4 0
BBX 4 7 0 -2
BITMAP
1CE5
243A
2CFA
773A
3FCC
0910
0D40
ENDCHAR
STARTCHAR Eogonek.locl
ENCODING -1
SWIDTH 496 0
DWIDTH 4 0
BBX 5 9 0 -2
BITMAP
5FFF10
580000
580000
5FFB00
580000
580000
5FFF20
054000
06A000
ENDCHAR
STARTCHAR eogonek.locl
ENCODING -1
SWIDTH 468 0
DWIDTH 4 0
BBX 4 7 0 -2
BITMAP
1CE4
762B
8FFD
7601
2CF7
0720
0970
ENDCHAR
STARTCHAR Aogonek.c2sc.locl
ENCODING -1
SWIDTH 501 0
DWIDTH 5 0
BBX 5 7 0 -2
BITMAP
04C000
09A200
0A3700
5FFC00
A21930
063000
079000
ENDCHAR
STARTCHAR Eogonek.c2sc.locl
ENCODING -1
SWIDTH 428 0
DWIDTH 4 0
BBX 4 7 0 -2
BITMAP
6FF8
6500
6FF4
6500
6FF9
0810
0B60
ENDCHAR
STARTCHAR glyph1293
ENCODING -1
SWIDTH 234 0
DWIDTH 2 0
BBX 2 7 0 -2
BITMAP
56
56
56
56
56
00
55
ENDCHAR
ENDFONT
